<svg width="834" height="134" viewBox="0 0 834 134" fill="none" xmlns="http://www.w3.org/2000/svg">
<path d="M11.736 25.24V13.016C11.736 11.736 11.736 10.584 11.992 9.304C12.376 6.936 13.144 5.272 16.088 5.144C16.344 5.144 17.56 5.272 17.944 5.4C19.992 6.296 20.184 9.048 20.312 10.712C20.504 12.632 20.312 14.168 20.312 16.088C20.504 18.392 20.312 20.696 20.312 23.064C20.312 24.6 20.504 26.264 20.632 27.8C20.76 29.976 21.976 31.896 23.128 33.688C24.28 35.928 26.2 38.744 27.352 40.792C27.992 41.944 28.76 43.096 29.272 44.248C29.912 45.656 30.552 47.448 29.912 48.92C29.528 49.816 28.376 50.584 27.352 50.712C26.072 50.84 25.304 50.456 24.408 49.56C22.744 47.896 20.568 45.272 19.096 43.352C18.84 42.968 15.896 39 15.768 39C15.64 39.128 15.512 39.384 15.256 39.64C12.568 42.584 10.648 45.912 7.832 48.792C7.192 49.432 6.36 49.944 5.464 50.2C5.08 50.328 4.696 50.456 4.184 50.456C3.288 50.456 2.392 50.072 1.752 49.304C0.984 48.664 0.6 47.768 0.6 46.68C0.728 45.912 0.856 45.272 1.24 44.632C3.16 40.92 5.592 37.464 8.088 33.944C8.728 32.92 9.176 31.896 9.816 31C10.072 30.616 10.456 30.104 10.712 29.592C10.968 29.208 11.224 28.824 11.352 28.44C11.48 28.056 11.608 27.672 11.608 27.288C11.736 26.52 11.736 25.88 11.736 25.24ZM27.352 23.256C27.608 23 27.864 22.616 28.12 22.488C28.632 22.104 29.144 21.72 29.784 21.592C30.68 21.464 34.904 21.464 37.4 21.592L37.272 15.192C37.144 14.168 37.144 13.4 37.272 12.376V9.432C37.272 8.792 37.4 8.088 37.4 7.448C37.528 6.808 37.656 6.296 37.912 5.656C38.04 5.144 38.296 4.632 38.68 4.248C39.96 3.096 42.52 2.84 43.928 4.248C45.464 5.784 45.208 8.92 45.208 11.096V50.008C45.208 50.392 45.208 50.776 45.08 51.288C45.08 51.8 44.952 52.312 44.696 52.824C44.568 53.336 44.312 53.592 43.928 53.976C42.776 55 39.96 55.256 38.808 53.976C37.272 52.312 37.272 50.52 37.272 48.408V40.728C37.272 39.96 37.272 39.064 37.144 38.168L37.272 30.04C36.76 29.912 33.496 30.04 32.984 29.912C32.344 29.912 31.832 29.912 31.192 29.784C30.552 29.784 29.912 29.656 29.272 29.272C28.632 29.016 28.12 28.632 27.608 28.248C27.224 27.736 26.84 27.224 26.712 26.584C26.584 25.944 26.584 25.176 26.712 24.408C26.84 24.024 26.968 23.64 27.352 23.256ZM94.547 50.008C95.891 50.136 97.043 50.584 97.427 51.928C97.939 53.464 97.363 54.552 95.763 55.192C94.739 55.576 93.651 55.64 92.755 55.64H62.995C61.267 55.64 59.411 55.576 57.555 55.512C55.763 55.448 54.483 54.104 54.291 52.184L54.099 47.704C54.035 46.808 53.971 45.272 54.739 44.44C55.891 43.16 58.195 42.968 60.051 42.968C62.483 42.968 70.611 43.032 90.131 43.032V40.728H58.643C57.811 40.728 57.107 40.728 56.467 40.6C55.699 40.408 55.059 40.408 54.675 39.704C54.099 38.808 53.907 37.976 54.227 36.952C54.675 35.608 56.595 35.416 57.555 35.288C58.195 35.16 58.835 35.096 59.539 35.096C61.907 35.096 64.979 35.16 72.019 35.16C72.019 33.944 72.147 32.856 72.147 31.512C68.243 31.512 66.387 31.512 62.803 31.384C61.331 31.32 56.275 31.128 55.059 31.128C53.715 31 53.075 31 51.987 29.976C51.411 29.464 51.155 28.952 51.155 28.056C51.155 27.224 51.475 26.328 51.987 25.816C53.267 24.472 56.403 24.6 56.531 24.6H93.139C94.419 24.6 95.699 24.6 96.915 24.664C98.067 24.728 99.347 24.856 100.243 25.688C101.139 26.392 101.139 27.288 101.139 28.312C101.139 29.592 100.371 30.168 99.091 30.616C97.363 31.256 95.059 31.192 93.395 31.256C89.171 31.384 85.267 31.512 80.979 31.512C81.043 32.728 80.915 33.944 80.915 35.16H90.771C95.059 35.16 97.491 36.44 97.491 39.384V43.928C97.491 45.08 96.979 46.36 95.635 47.128C94.547 47.768 93.395 47.704 92.307 47.704H61.971V50.008H94.547ZM54.355 12.312C54.355 5.336 62.547 3.416 76.115 3.416C89.171 3.416 97.939 4.568 97.939 12.312C97.939 19.992 90.707 21.208 76.115 21.208C64.083 21.208 54.355 19.992 54.355 12.312ZM89.171 12.312C89.171 9.624 82.259 9.496 76.115 9.496C70.035 9.496 63.507 9.624 63.507 12.312C63.507 14.68 69.907 14.808 75.987 14.808C82.131 14.808 89.171 15.384 89.171 12.312ZM141.414 46.296C141.414 48.408 141.35 49.304 140.71 51.288C140.262 52.568 139.302 53.528 137.446 53.528C136.934 53.528 135.91 53.4 135.462 53.08C133.734 51.992 133.67 48.024 133.67 46.744V29.656L129.51 29.464C128.038 29.4 125.99 28.696 125.798 26.136C125.67 24.6 125.798 22.552 127.718 21.656C128.486 21.272 129.83 21.208 130.662 21.272H133.67V9.624C133.67 8.536 133.606 7.32 133.862 6.232C133.99 5.848 134.118 5.464 134.31 5.08C134.822 4.248 135.333 3.8 136.294 3.48C136.678 3.352 137.254 3.288 137.638 3.288C139.046 3.288 140.134 3.992 140.838 5.208C141.478 6.296 141.414 9.368 141.414 9.688C141.478 40.792 141.414 46.296 141.414 46.296ZM151.59 51.736C151.334 52.312 150.95 52.76 150.374 53.144C149.478 53.72 148.646 53.848 147.558 53.592C144.998 53.016 144.742 50.2 144.742 48.024V10.328C144.678 8.408 144.742 5.208 145.894 4.056C146.854 3.224 147.622 3.096 148.774 3.096C150.246 3.096 151.142 3.992 151.654 5.336C152.422 7.128 152.358 9.048 152.422 10.968V11.288C152.614 17.752 152.422 23.64 152.422 29.656V45.656C152.422 47.896 152.422 49.944 151.59 51.736ZM118.31 39.448C118.182 39.576 114.918 44.056 114.79 44.184C114.15 45.08 113.51 46.04 112.806 46.872C112.678 47.064 112.486 47.32 112.358 47.512C111.206 48.92 109.99 50.52 108.262 51.16C107.878 51.352 107.558 51.416 107.11 51.416C106.278 51.416 105.766 50.968 105.126 50.264C104.486 49.56 104.102 48.6 104.102 47.576C104.166 46.04 104.998 44.632 105.638 43.48C106.214 43.032 112.87 31.128 113.766 30.04C114.278 29.08 114.598 28.248 114.662 27.352C114.79 26.008 114.79 24.728 114.79 23.192V11.864C114.79 11.032 114.79 10.264 114.854 9.432C114.854 8.536 115.046 7.512 115.238 6.744C115.43 6.232 115.75 5.592 116.006 5.08C116.39 4.44 117.222 4.12 118.054 3.928L118.182 3.864C118.822 3.672 119.206 3.736 119.846 3.992C120.166 4.12 120.486 4.312 120.742 4.568C121.062 4.888 121.318 5.528 121.574 6.232C121.894 7.064 122.15 8.152 122.214 9.368C122.534 12.952 122.598 17.88 122.598 21.464C122.662 23.64 122.662 25.88 122.79 27.992C122.854 29.848 123.878 31.448 124.71 33.048C125.542 34.904 126.502 36.952 127.462 38.744C127.718 39.32 129.702 43.032 129.894 43.48L130.022 43.992L130.214 44.376C130.47 44.824 130.662 45.272 130.79 45.848C131.046 46.744 131.238 47.896 130.662 49.112C130.086 50.392 129.19 51.16 128.102 51.224H128.038C126.694 51.224 125.734 50.008 124.582 48.6C123.43 47.256 122.214 45.208 121.382 43.992C119.462 40.728 118.374 39.576 118.31 39.448ZM172.203 45.72C172.203 41.88 172.139 40.216 172.139 19.48C172.139 18.072 172.203 16.728 172.01 15.32C171.755 13.784 171.435 13.528 169.899 13.528C166.187 13.464 164.267 13.528 160.939 13.528C157.931 13.528 156.459 11.864 156.459 9.368C156.459 5.592 161.003 5.4 164.843 5.4H173.355C173.803 5.4 174.251 5.464 174.699 5.464C175.787 5.528 176.683 5.72 177.707 6.104C178.347 6.36 179.115 6.808 179.499 7.384C180.331 8.6 180.267 9.496 180.395 10.904C180.459 12.248 180.523 14.872 180.523 16.216C181.163 16.152 181.803 16.152 182.315 16.152H187.179V9.688C187.179 8.6 187.115 7.384 187.371 6.296C187.499 5.912 187.627 5.528 187.819 5.144C188.331 4.312 188.715 3.864 189.675 3.544C190.059 3.416 190.443 3.352 190.826 3.352C192.235 3.352 193.323 4.056 194.027 5.272C194.667 6.36 194.667 9.432 194.667 9.752C194.731 40.856 194.603 46.936 194.603 46.936C194.603 49.048 194.539 49.944 193.899 51.928C193.451 53.208 192.491 54.168 190.635 54.168C190.123 54.168 189.419 54.04 188.971 53.72C187.243 52.632 187.179 48.664 187.179 47.384V39.832L181.163 39.704C180.971 39.704 180.715 39.704 180.523 39.64C180.523 39.832 180.651 43.8 180.523 46.552C180.267 49.624 178.539 51.672 175.595 51.672C172.458 51.672 172.203 48.152 172.203 45.72ZM205.931 11.032C206.123 17.432 205.931 24.28 205.931 30.296V46.296C205.931 48.536 205.931 50.584 205.099 52.376C204.843 52.952 204.459 53.4 203.883 53.784C202.987 54.36 202.411 54.488 201.323 54.232C198.763 53.656 198.315 50.84 198.315 48.664V10.392C198.251 8.472 198.251 5.272 199.403 4.12C200.363 3.288 201.387 3.16 202.539 3.16C205.995 3.16 205.867 8.728 205.931 11.032ZM187.179 23.832L181.163 23.704C180.971 23.704 180.715 23.704 180.523 23.64V32.344C181.163 32.28 181.803 32.28 182.315 32.28H187.179V23.832ZM253.36 49.944C254.704 50.072 255.856 50.52 256.24 51.864C256.752 53.4 256.176 54.488 254.576 55.128C253.552 55.512 252.464 55.576 251.568 55.576H221.808C220.08 55.576 218.224 55.512 216.368 55.448C214.576 55.384 213.296 54.04 213.104 52.12L212.911 47.64C212.848 46.744 212.784 45.208 213.552 44.376C214.704 43.096 217.008 42.904 218.864 42.904C221.296 42.904 229.424 42.968 248.944 42.968V40.664H217.456C216.624 40.664 215.92 40.664 215.28 40.536C214.512 40.344 213.872 40.344 213.488 39.64C212.911 38.744 212.72 37.912 213.04 36.888C213.488 35.544 215.408 35.352 216.368 35.224C217.008 35.096 217.648 35.032 218.352 35.032C220.72 35.032 223.792 35.096 230.832 35.096C230.896 34.2 230.96 33.304 230.96 32.344C229.296 32.28 215.344 32.216 213.872 31.96C212.528 31.832 211.888 32.088 210.799 31.064C210.224 30.552 209.968 29.976 209.968 29.08C209.968 28.248 210.288 27.416 210.799 26.904C212.08 25.56 215.216 25.816 215.344 25.816H251.952C253.232 25.816 254.512 25.816 255.728 25.88C256.88 25.944 258.16 25.944 259.056 26.776C259.952 27.48 259.952 28.312 259.952 29.336C259.952 30.616 259.184 31.32 257.904 31.768C256.176 32.408 253.936 32.152 252.208 32.216C247.984 32.344 244.08 32.344 239.792 32.344C239.792 33.304 239.792 34.2 239.728 35.096H249.584C253.872 35.096 256.304 36.376 256.304 39.32V43.864C256.304 45.016 255.792 46.296 254.448 47.064C253.36 47.704 252.208 47.64 251.12 47.64H220.784V49.944H253.36ZM215.984 21.464C214.064 19.992 213.936 16.28 213.936 16.088V5.976C213.936 4.376 214.704 2.456 216.56 2.2C218.352 1.944 220.784 2.712 221.168 4.76C221.296 5.528 221.04 6.616 221.36 7.384C221.552 7.832 222.448 7.64 222.832 7.704C224.816 7.832 226.8 7.64 228.848 7.64H246.512C246.832 7.64 247.088 7.64 247.408 7.704C248.304 7.768 248.56 7.64 249.392 7.512C249.584 6.872 249.52 6.168 249.52 5.464C249.584 3.928 250.096 2.52 251.632 2.2C254.64 1.624 256.56 3.16 256.496 6.232C256.432 10.072 256.688 14.168 256.368 18.072C256.24 19.224 255.856 19.864 255.216 20.888C253.936 22.808 250.416 22.488 248.432 22.552C245.68 22.68 244.912 22.552 242.16 22.552C238.064 22.552 235.76 22.616 231.6 22.552C230.128 22.552 228.656 22.68 227.248 22.68C225.2 22.616 223.216 22.616 221.168 22.68C219.376 22.68 217.456 22.552 215.984 21.464ZM221.36 15.704C221.744 17.176 224.24 16.792 225.328 16.792C227.696 16.792 230.064 16.856 232.368 16.856C235.568 16.92 236.976 16.856 240.176 16.792C241.007 16.728 241.904 16.792 242.8 16.792C243.44 16.792 244.144 16.664 244.784 16.728C245.488 16.856 246.192 16.792 246.896 16.792C247.792 16.92 249.392 17.24 249.392 15.832C249.392 15.192 249.648 14.808 249.136 14.232C248.496 13.528 247.664 13.592 246.832 13.656H237.232C236.656 13.656 228.016 13.592 227.503 13.592C225.904 13.528 221.168 12.632 221.232 15.128C221.232 15.512 221.296 15.448 221.36 15.704ZM303.426 47.768C305.09 48.472 306.434 49.24 307.778 50.328C309.314 51.608 308.802 54.488 306.626 54.936C303.81 55.512 300.802 54.616 298.306 53.528C296.706 52.76 288.514 48.152 286.722 47.448C286.082 47.832 278.274 52.248 277.698 52.568C276.29 53.336 274.754 54.104 273.218 54.616C271.682 55.192 269.89 55.576 268.29 55.192C267.202 54.936 266.05 54.232 265.858 53.208C265.73 52.696 265.858 52.184 265.986 51.736C266.306 50.392 267.65 49.624 268.93 48.984C270.402 48.152 271.938 47.448 273.474 46.68C275.074 45.912 276.61 45.144 278.146 44.312C278.338 44.184 282.178 42.392 282.242 42.072H271.938C271.938 42.072 267.458 41.752 266.946 39.512C266.754 37.784 267.586 35.8 269.634 35.608H283.074V34.52C283.074 32.6 285.314 31.448 287.298 31.448C290.306 31.448 291.074 33.432 291.074 35.16V35.608H300.162C303.17 35.608 306.626 35.48 307.074 38.488C306.754 42.136 303.426 42.2 300.61 42.072H292.098C292.738 42.456 302.594 47.64 303.426 47.768ZM305.794 23.32C307.202 23.384 308.802 23.64 310.018 24.6C310.594 25.048 310.914 25.688 310.914 26.456C310.914 27.288 310.594 28.504 310.082 28.952C308.738 30.232 305.41 30.104 305.282 30.104L269.314 30.232C267.394 30.232 265.026 30.36 263.618 29.208C262.658 28.504 262.146 27.672 262.146 26.712C262.146 25.56 263.042 24.216 264.386 23.768C266.178 23.192 268.098 23.384 270.018 23.32C274.178 23.192 279.298 23.32 283.586 23.32V18.968C283.586 16.408 286.274 15.576 288.834 15.832C291.138 16.088 292.418 16.728 292.482 18.392C292.61 19.608 292.674 21.848 292.674 23.32C297.41 23.32 302.146 23.128 305.794 23.32ZM297.154 11.928C297.09 11.416 296.898 10.264 295.106 10.136C293.954 10.2 290.178 10.072 288.77 10.136C287.81 10.136 286.146 10.008 285.314 9.496C284.098 8.664 284.354 7.96 284.354 6.552C284.354 5.72 284.546 5.528 284.866 4.76C285.378 4.312 286.402 3.48 287.746 3.416L299.586 3.48C300.738 3.544 302.018 3.608 303.042 3.992C303.682 4.248 304.45 4.696 304.834 5.272C305.602 6.488 305.538 5.848 305.666 7.256C305.922 9.56 305.73 13.528 305.794 15.768C305.73 17.496 305.282 19.544 303.106 20.44C302.274 20.696 301.634 20.888 300.994 20.888C299.906 20.888 298.626 20.376 298.114 19.48C297.474 18.136 297.154 16.6 297.154 14.936C297.154 13.976 297.09 12.76 297.154 11.928ZM271.17 10.392C270.594 10.328 267.906 10.328 267.01 10.392C266.05 10.392 264.898 10.328 264.066 9.816C262.914 8.984 262.53 8.216 262.53 6.808C262.53 5.976 262.658 6.424 263.042 5.656C263.234 5.272 263.49 4.888 263.874 4.568C264.322 4.184 265.282 3.864 265.922 3.672C267.714 3.288 268.93 3.352 270.914 3.288H274.562C275.01 3.288 275.458 3.288 275.906 3.352C276.994 3.416 278.338 3.608 279.362 3.992C280.002 4.248 280.45 4.696 280.834 5.272C281.666 6.488 281.538 6.488 281.666 7.896C281.858 10.2 281.858 13.08 281.858 15.896C281.986 17.944 281.474 19.608 279.298 20.504C278.466 20.76 277.698 20.888 277.122 20.888C275.97 20.888 274.882 20.504 274.434 19.608C273.794 18.264 273.474 17.944 273.41 16.28L273.346 12.632C273.346 11.224 273.282 10.52 271.17 10.392ZM320.635 46.616C320.508 46.616 318.012 46.04 317.756 44.248C317.5 42.648 317.756 41.368 318.524 40.408C319.548 39.192 321.084 39.192 321.148 39.192H334.332C334.204 37.592 334.46 36.632 334.46 34.968C330.556 34.968 320.956 34.84 317.372 34.584C316.028 34.456 315.388 34.392 314.299 33.368C313.724 32.856 313.468 32.024 313.468 31.128C313.468 30.296 313.788 29.464 314.299 28.952C315.58 27.608 318.716 27.672 318.844 27.672H355.452C356.732 27.672 358.012 27.672 359.228 27.736C360.38 27.8 361.66 27.992 362.556 28.824C363.452 29.528 363.452 30.36 363.452 31.384C363.452 32.664 362.684 33.624 361.404 34.072C359.676 34.712 357.564 34.776 355.772 34.84C351.548 34.968 347.58 35.096 343.292 35.096C343.228 36.632 343.1 37.528 343.1 39.192H352.764C352.764 39.192 352.956 39.128 353.212 39.128C356.668 39.128 358.716 40.28 358.716 42.264V46.616C358.716 47.064 358.78 47.512 358.78 47.96C358.78 48.856 358.844 51.608 358.716 52.568C358.588 54.36 357.18 55.576 355.26 55.576C354.812 55.576 354.364 55.512 353.916 55.384C351.612 54.68 351.484 52.568 351.42 50.648C351.356 49.88 351.292 47.384 351.164 46.744C350.908 46.68 350.012 46.552 346.876 46.552C344.124 46.552 342.012 46.616 342.012 46.616H320.635ZM353.532 16.408C355.132 17.112 356.732 18.2 358.076 19.288C359.484 20.504 359.036 23.32 356.924 23.704C354.236 24.28 351.036 23.448 348.604 22.36C346.3 21.336 344.38 20.44 342.46 19.352C341.308 18.712 338.044 17.048 338.044 17.048C338.044 17.048 334.14 18.776 332.796 19.416C330.556 20.568 328.892 21.272 326.652 22.296C324.988 23 323.196 24.152 321.276 24.024C319.74 23.96 318.012 23.32 317.692 21.656C317.628 21.208 317.692 20.696 317.82 20.184C318.14 18.968 319.036 18.2 320.188 17.496L324.604 15.32C326.076 14.552 326.972 14.168 328.508 13.464C329.212 13.08 330.108 12.632 331.003 12.184H326.972C325.628 12.184 324.796 12.248 323.516 12.12C322.556 11.992 321.34 12.12 320.444 11.672C319.932 11.416 319.548 10.968 319.292 10.456C318.78 9.624 318.652 8.408 319.1 7.512C319.74 6.168 321.532 5.464 323.132 5.464H324.604C325.948 5.528 326.268 5.464 327.612 5.464H333.308V3.544C333.308 0.983997 335.996 0.151997 338.556 0.407997C340.86 0.663998 342.14 1.304 342.204 2.968C342.268 3.544 342.332 4.504 342.332 5.464H349.756C352.572 5.464 357.372 4.76 358.268 8.408C359.292 12.568 352.38 12.44 349.692 12.312C348.347 12.248 346.748 12.248 345.404 12.248C345.66 12.376 345.979 12.568 346.236 12.696C347.068 13.144 347.9 13.464 348.732 13.912C350.332 14.68 351.932 15.576 353.532 16.408ZM403.726 46.296C403.726 48.408 403.662 49.304 403.022 51.288C402.574 52.568 401.614 53.528 399.758 53.528C399.246 53.528 398.35 53.4 397.902 53.08C396.174 51.992 396.11 48.024 396.11 46.744V30.616L391.246 30.552C389.774 30.488 387.726 29.912 387.534 27.352C387.406 25.816 387.534 24.216 389.454 23.32C390.222 22.936 391.566 22.616 392.398 22.616H396.11V9.688C396.11 8.6 396.046 7.384 396.302 6.296C396.43 5.912 396.558 5.528 396.75 5.144C397.262 4.312 397.646 3.864 398.606 3.544C398.99 3.416 399.566 3.352 399.95 3.352C401.358 3.352 402.446 4.056 403.15 5.272C403.79 6.36 403.726 9.432 403.726 9.752C403.79 40.856 403.726 46.296 403.726 46.296ZM414.03 51.736C413.774 52.312 413.39 52.76 412.814 53.144C411.918 53.72 411.278 53.848 410.19 53.592C407.63 53.016 407.118 50.2 407.118 48.024V10.392C407.054 8.472 407.118 5.272 408.27 4.12C409.23 3.288 409.678 3.16 410.83 3.16C412.302 3.16 413.582 4.056 414.094 5.4C414.862 7.192 414.798 9.112 414.862 11.032V11.352C415.054 17.816 414.862 23.64 414.862 29.656V45.656C414.862 47.896 414.862 49.944 414.03 51.736ZM375.438 13.784C372.75 13.784 369.678 13.72 369.166 13.656C367.886 13.336 366.926 12.312 366.414 10.904C366.094 9.624 366.222 8.664 366.862 7.704C367.502 6.744 368.462 6.04 369.422 5.784C369.934 5.72 374.542 5.72 374.926 5.72H386.574C389.454 5.72 391.182 6.04 392.398 8.472C392.974 9.624 393.102 10.456 392.718 11.544C392.206 12.632 391.182 13.464 389.966 13.656C388.302 13.912 387.022 13.976 383.438 13.784C383.502 14.488 383.438 29.144 383.502 29.656C384.014 30.36 384.782 32.472 385.358 33.304C386.062 34.264 386.766 35.736 387.598 37.08C388.11 37.848 388.558 38.616 388.942 39.256C390.286 41.496 392.014 43.608 392.59 46.232C392.782 47.448 392.782 49.048 391.95 49.944C391.374 50.52 390.67 50.84 389.838 50.84C388.238 50.84 386.638 49.56 385.742 48.408C384.398 46.68 383.182 44.824 382.094 43.032C381.262 41.752 380.046 39.896 379.214 38.744C378.83 39.448 378.382 40.28 377.998 40.92C377.486 41.688 376.718 42.456 376.206 43.224C375.31 44.952 374.35 46.744 373.006 48.28C371.534 50.072 370.318 50.968 368.974 50.968C368.654 50.968 368.334 50.968 367.95 50.84C367.182 50.52 366.606 49.944 366.286 49.048C365.774 47.64 366.414 45.72 366.99 44.504C367.502 43.096 368.27 41.816 369.038 40.6C369.486 39.832 369.998 39.064 370.382 38.296C371.662 35.8 374.606 31 375.438 29.912V13.784ZM235.1 109.528C225.836 109.528 218.78 108.664 218.78 101.608C218.78 95.176 225.836 93.688 235.1 93.688C244.364 93.688 251.42 94.456 251.42 101.608C251.42 108.664 244.364 109.528 235.1 109.528ZM235.1 99.064C230.396 99.064 225.308 99.16 225.308 101.608C225.308 103.768 229.052 104.344 235.1 104.248C239.804 104.248 244.892 104.44 244.892 101.608C244.892 99.16 239.804 99.064 235.1 99.064ZM220.124 112.072H248.3C250.508 112.072 253.1 111.88 253.1 114.808C253.1 115.528 252.764 116.056 252.14 116.632C251.132 117.496 249.548 117.448 248.252 117.4C247.964 117.352 247.676 117.352 247.388 117.352H220.028C219.164 117.352 217.148 117.064 217.148 114.952C217.148 113.08 218.684 112.072 220.124 112.072ZM220.412 132.472C220.364 132.472 220.316 132.424 220.268 132.376C219.644 131.896 219.452 130.84 219.452 130.12C219.404 128.968 219.26 127.816 219.26 126.712C219.26 125.08 219.212 123.832 219.5 122.248C219.692 121.24 220.076 120.664 221.036 120.28C221.9 119.944 222.812 119.752 223.724 119.752H245.852C247.052 119.8 248.396 119.848 249.548 120.376C250.796 120.904 251.132 121.864 251.228 123.112C251.324 125.32 251.42 128.872 250.796 131.176C250.604 131.896 250.46 132.472 249.692 132.712C249.02 132.952 248.204 133 247.532 133L223.004 132.904C222.188 132.856 221.132 132.952 220.412 132.472ZM224.972 127C224.972 127.288 224.972 127.672 225.164 127.816C225.404 128.056 226.508 127.912 226.508 127.912H241.052C241.052 127.912 243.307 128.104 244.508 127.96C245.132 127.912 245.18 127.576 245.228 127C245.276 126.472 245.372 125.704 244.988 125.224C244.556 124.696 243.596 124.792 242.972 124.84H230.108C228.716 124.744 227.372 124.792 225.98 124.84C225.452 124.84 225.212 124.744 225.068 125.32C224.972 125.752 224.972 126.184 224.972 126.568C225.02 126.664 224.972 126.808 224.972 127ZM260.062 119.08H282.911C283.967 119.032 284.687 119.08 285.263 119.32C285.695 119.56 286.271 119.752 286.559 120.136C286.847 120.472 287.087 120.76 287.135 121.144C287.231 121.48 287.375 121.864 287.375 122.344V128.968C287.375 132.472 286.655 133.048 285.551 133.48C284.015 134.008 282.047 133.912 281.279 132.28C280.895 131.32 281.039 128.536 281.039 126.568C281.039 125.272 279.887 125.08 278.734 125.08H272.111C268.991 125.08 265.919 125.176 262.751 125.08C261.023 125.08 259.055 125.224 257.327 124.744C255.887 124.216 255.263 122.632 255.646 121.192C256.367 119.08 258.047 119.08 260.062 119.08ZM255.646 114.712C255.263 114.472 255.023 114.088 254.831 113.656C254.543 112.936 254.543 112.312 254.639 111.688C254.831 110.968 255.071 110.392 255.455 109.768C255.887 109.336 256.319 108.664 256.751 108.184C257.327 107.656 257.711 107.272 258.047 106.792L259.727 104.824C260.207 104.056 260.783 103.384 261.359 102.664C261.551 102.376 261.791 102.184 261.983 101.848C262.271 101.512 262.463 101.224 262.799 100.936C263.039 100.552 263.183 100.312 263.423 99.976C263.471 99.688 263.567 99.304 263.567 99.016C263.711 98.392 263.711 97.864 263.711 97.384C263.759 96.856 263.855 96.376 264.047 95.848C264.191 95.416 264.431 95.128 264.767 94.84C265.199 94.648 265.727 94.408 266.447 94.408C266.927 94.408 267.455 94.504 267.887 94.648C268.463 94.792 268.703 95.08 268.991 95.56C269.183 96.184 269.279 96.808 269.183 97.528C269.087 98.152 269.183 98.824 269.375 99.544C269.519 99.976 269.855 100.504 270.191 100.84C272.015 102.76 273.551 105.112 275.183 107.272C275.615 107.944 276.095 108.664 276.623 109.384C277.007 110.104 277.391 110.92 277.535 111.688C277.679 112.36 277.583 113.08 277.295 113.512C277.007 114.088 276.623 114.376 276.095 114.616C275.615 114.76 275.087 114.904 274.463 114.76C273.887 114.712 273.311 114.472 272.879 114.088C271.583 112.84 270.527 111.544 269.615 110.2L266.591 106.312C266.015 106.936 265.535 107.368 265.007 107.896C264.623 108.328 264.143 108.904 263.567 109.384C263.087 110.008 262.559 110.488 262.175 110.968C261.695 111.544 261.359 112.024 261.023 112.36C260.639 112.696 260.398 113.08 260.351 113.128C260.062 113.512 259.583 113.8 259.199 114.184C258.815 114.472 258.335 114.712 257.759 114.76C257.519 114.904 257.039 114.904 256.751 114.904C256.367 114.904 256.031 114.76 255.646 114.712ZM288.143 112.84C287.999 114.328 287.135 115.912 285.359 115.912C282.623 115.912 282.431 113.224 282.383 110.968V99.16C282.383 97.816 282.239 96.28 283.007 94.984C283.727 93.832 285.407 93.688 286.559 94.12C288.143 94.984 288.143 96.952 288.143 98.392C288.287 103.24 288.143 107.944 288.143 112.84ZM294.332 123.88C294.332 123.112 294.236 122.008 294.476 121.24C294.572 120.472 294.956 119.848 295.724 119.56C297.404 118.888 298.892 119.08 300.668 119.08H319.724C321.02 119.08 322.604 118.888 323.756 119.656C324.572 120.28 324.764 121.816 324.764 122.824C324.86 124.072 324.86 125.464 324.86 126.856C324.764 128.248 324.956 129.88 324.476 131.272C324.188 132.28 323.18 132.568 322.22 132.664H321.116L297.788 132.568C297.308 132.568 296.732 132.664 296.3 132.568C295.916 132.472 295.532 132.28 295.244 132.088C294.86 131.848 294.572 131.464 294.476 130.888C294.332 130.504 294.332 130.024 294.332 129.688V123.88ZM292.316 100.12C291.884 99.928 291.5 99.544 291.404 99.112C291.02 98.152 291.02 97.144 291.692 96.376C292.412 95.608 292.988 95.416 294.092 95.416H308.924C310.22 95.416 311.084 95.416 311.9 95.608C313.532 95.896 314.54 96.664 314.348 98.536C314.252 98.824 314.156 99.112 314.06 99.448C313.532 100.408 312.668 100.504 311.708 100.504C311.18 100.6 310.988 100.6 310.508 100.6C310.124 100.6 309.596 100.504 309.212 100.504H306.092C306.092 101.512 305.996 102.28 305.996 102.856C305.996 103.48 305.996 104.056 306.092 104.536V105.352C306.188 105.544 306.476 105.832 306.86 106.12C307.34 106.504 307.628 106.792 307.964 107.08C308.252 107.32 308.636 107.608 308.924 107.896C309.212 108.184 309.596 108.472 309.932 108.856C310.124 109.048 310.412 109.288 310.508 109.48L311.084 110.056C311.708 110.632 312.284 111.352 312.86 112.024C313.436 112.696 313.868 113.416 314.06 114.088C314.156 114.376 314.252 114.664 314.156 115.096C314.06 115.384 313.868 115.672 313.532 115.96C312.956 116.248 312.38 116.44 311.804 116.44C311.084 116.44 310.508 116.248 309.836 115.96C309.212 115.768 308.732 115.48 308.348 115.192C307.772 114.664 307.148 114.28 306.668 113.8C306.188 113.32 305.66 112.792 305.18 112.216C304.796 111.928 304.412 111.544 304.028 111.016C303.5 110.632 303.116 110.248 302.636 109.864L300.764 111.736C300.476 111.928 300.284 112.216 300.092 112.408C299.66 112.792 299.276 113.32 298.796 113.8C298.412 114.184 297.932 114.664 297.308 115.096C296.06 115.96 294.86 116.44 293.66 116.44H293.276C293.18 116.44 293.084 116.44 292.892 116.344C292.22 116.248 291.692 115.96 291.5 115.576C291.308 115.192 291.212 114.76 291.308 114.376C291.404 113.896 291.5 113.512 291.692 113.224C291.884 112.792 292.22 112.504 292.604 112.12C292.892 111.832 293.18 111.448 293.468 111.16C293.756 110.824 294.284 110.344 294.86 109.768C295.436 109.192 296.06 108.568 296.732 107.992C297.308 107.416 297.932 106.792 298.508 106.312L299.468 105.352V100.504H296.444C296.06 100.504 295.628 100.6 295.052 100.6C294.572 100.6 294.092 100.6 293.564 100.504C293.084 100.408 292.7 100.312 292.316 100.12ZM312.86 103.576C313.148 103.288 313.532 103.144 314.252 102.952C314.348 102.952 314.636 102.856 315.116 102.856H316.7C317.276 102.856 317.9 102.76 318.38 102.76H319.244V97.672C319.244 97.384 319.34 96.952 319.436 96.664C319.436 96.376 319.58 96.184 319.676 95.896C319.676 95.704 319.868 95.512 320.06 95.176C320.252 94.888 320.636 94.696 321.116 94.504C321.548 94.408 322.028 94.408 322.604 94.408C323.084 94.504 323.516 94.696 323.9 94.888C324.284 95.08 324.476 95.272 324.668 95.704C324.86 95.992 324.956 96.472 325.052 97.048V107.32C325.052 109.576 325.1 111.928 324.908 114.184C324.908 114.376 324.86 115.048 324.764 115.336C324.668 115.576 324.572 115.864 324.38 116.152C324.188 116.44 323.996 116.632 323.612 116.824C323.18 117.112 322.7 117.208 322.22 117.208C321.644 117.208 321.116 117.016 320.636 116.728C320.252 116.44 319.964 116.152 319.868 115.768C319.676 115.432 319.436 115.048 319.436 114.76C319.34 114.376 319.34 114.088 319.244 113.704V108.088H316.7C315.836 108.088 315.02 107.992 314.252 107.992C313.532 107.896 312.956 107.608 312.572 106.888C312.38 106.6 312.284 106.216 312.284 105.736C312.284 105.256 312.38 104.728 312.38 104.44C312.476 104.056 312.668 103.768 312.86 103.576ZM302.732 124.408C301.724 124.504 299.756 124.216 299.66 125.464C299.66 125.848 299.66 126.28 299.756 126.664V127.048C299.756 127.24 299.852 127.336 299.948 127.336C299.948 127.432 300.044 127.432 300.236 127.432C300.38 127.528 300.572 127.528 300.668 127.528H315.02C315.5 127.528 315.884 127.432 316.316 127.528H317.372C318.284 127.528 319.148 127.528 319.244 126.568V125.752C319.244 125.368 319.148 125.08 318.956 124.888C318.668 124.6 318.476 124.408 318.092 124.408H302.732Z" fill="#FF6B97"/>
<path d="M449.619 3.096C450.707 3.096 451.731 3.224 452.755 3.352C454.355 3.608 455.827 4.376 457.043 5.592C461.203 9.944 462.099 17.432 462.355 23.512C462.547 27.416 462.483 31.384 462.035 35.224C461.587 39.192 461.011 43.48 458.899 46.744C457.107 49.496 454.291 51.288 451.411 51.864C448.787 52.376 445.907 52.056 443.475 50.648C441.171 49.304 439.635 47.192 438.483 44.504C437.651 42.52 437.139 40.344 437.011 38.168C436.691 34.584 436.563 31 436.563 27.416C436.563 24.984 436.563 22.616 436.819 20.248C436.947 18.328 437.267 16.344 437.587 14.488C437.907 12.952 438.099 11.608 438.739 10.2C439.379 8.792 440.211 7.448 441.299 6.424C443.155 4.568 445.587 3.544 448.019 3.224C448.531 3.16 449.107 3.16 449.619 3.096ZM472.595 31.064C471.443 30.872 469.011 30.872 467.859 30.744C464.915 30.552 463.507 28.376 464.403 25.112C464.595 24.472 465.235 23.576 465.747 23.128C466.259 22.744 466.835 22.424 467.539 22.296C468.883 22.104 471.123 22.296 472.531 22.168H472.723V21.912C472.787 19.8 472.787 20.312 472.723 18.136C472.723 15.96 472.659 13.72 472.723 11.608V10.712C472.723 8.472 472.723 5.144 474.259 3.608C474.835 3.096 475.475 2.776 476.307 2.776H476.435C480.595 2.968 481.043 7.96 481.043 10.648V49.048C481.043 49.176 481.171 52.44 479.699 53.784C479.123 54.36 477.779 54.744 476.883 54.744C475.923 54.744 475.027 54.36 474.451 53.72C473.363 52.568 473.235 51.224 473.107 49.816C473.107 49.56 473.043 49.304 473.043 48.984C472.915 47.64 472.915 46.04 472.851 44.504C472.787 43.544 472.787 42.648 472.787 41.752V40.28C472.787 38.488 472.723 34.264 472.723 32.472C472.723 32.024 472.787 31.448 472.595 31.064ZM449.427 43.352C450.195 43.352 451.027 43.096 451.795 42.584C453.203 41.56 453.715 39.768 454.099 37.72C454.803 33.816 454.739 29.08 454.611 25.048C454.547 21.784 454.483 17.56 452.947 14.936C452.115 13.528 450.835 12.632 449.491 12.824C448.083 12.952 446.803 13.848 446.035 15.512L445.459 16.856C444.947 18.456 444.691 20.248 444.563 21.976C444.435 23.704 444.307 25.496 444.307 27.224C444.371 28.952 444.179 30.552 444.307 32.216C444.627 36.632 445.203 43.288 449.427 43.352ZM516.936 43.992C517.832 44.44 518.472 45.592 518.728 46.488C518.92 47.384 518.664 48.344 518.088 49.112C516.936 50.584 515.4 51.224 513.288 51.352C511.496 51.416 509.64 51.416 507.464 51.416C505.416 51.416 504.264 51.416 502.28 51.352H498.312C496.392 51.288 494.152 51.288 492.232 50.712C490.888 50.328 489.544 49.112 488.904 47.704C488.072 45.784 488.264 41.88 488.264 41.752V14.168C488.2 13.784 487.752 9.24 489.032 7.192C490.12 5.4 494.984 5.272 495.432 5.272H510.408C510.664 5.336 516.04 5.08 516.872 7.768C517.192 8.728 517.128 10.968 516.744 11.672C516.424 12.248 515.848 12.696 515.144 12.888C514.376 13.08 513.16 13.144 511.496 13.144C510.408 13.144 509.576 13.08 509.512 13.08H501.704C500.552 13.08 499.08 13.208 498.504 13.4C497.288 13.912 497.352 16.728 497.48 17.624V32.92C497.48 33.048 497.416 35.928 497.736 39.64C497.736 39.768 497.736 39.96 497.8 40.152C497.8 41.048 497.864 41.944 498.44 42.52C499.016 43.032 499.784 43.096 500.488 43.096H501.32C501.576 43.032 501.832 43.032 502.152 43.032H502.28C503.688 43.096 504.264 43.096 505.672 43.096C506.696 43.032 506.824 43.032 507.784 43.096H510.024C510.6 43.032 511.176 43.032 511.688 43.032C513.8 43.032 515.528 43.352 516.936 43.992ZM532.104 49.752C531.976 50.776 531.912 51.736 531.592 52.76C531.464 53.08 531.336 53.336 531.208 53.656C530.952 54.168 530.568 54.68 530.056 55.064C529.096 55.64 527.88 55.768 526.792 55.512C526.152 55.384 525.576 55.128 525.128 54.744C523.592 53.336 523.656 50.008 523.656 49.88V10.328C523.592 8.344 523.656 5.144 524.872 3.992C525.768 3.096 526.856 2.968 528.008 2.968C529.48 2.968 530.824 3.864 531.336 5.272C532.104 7.064 532.04 9.048 532.104 11.032V11.352C532.296 17.88 532.104 25.112 532.104 31.256V47.448C532.104 48.216 532.168 48.984 532.104 49.752ZM548.549 25.24V13.016C548.549 11.736 548.549 10.584 548.805 9.304C549.189 6.936 549.957 5.272 552.901 5.144C553.157 5.144 554.373 5.272 554.757 5.4C556.805 6.296 556.997 9.048 557.125 10.712C557.317 12.632 557.125 14.168 557.125 16.088C557.317 18.392 557.125 20.696 557.125 23.064C557.125 24.6 557.317 26.264 557.445 27.8C557.573 29.976 558.789 31.896 559.941 33.688C561.093 35.928 563.013 38.744 564.165 40.792C564.805 41.944 565.573 43.096 566.085 44.248C566.725 45.656 567.365 47.448 566.725 48.92C566.341 49.816 565.189 50.584 564.165 50.712C562.885 50.84 562.117 50.456 561.221 49.56C559.557 47.896 557.381 45.272 555.909 43.352C555.653 42.968 552.708 39 552.581 39C552.453 39.128 552.325 39.384 552.069 39.64C549.381 42.584 547.461 45.912 544.645 48.792C544.005 49.432 543.173 49.944 542.277 50.2C541.893 50.328 541.509 50.456 540.997 50.456C540.101 50.456 539.205 50.072 538.565 49.304C537.797 48.664 537.413 47.768 537.413 46.68C537.541 45.912 537.669 45.272 538.053 44.632C539.973 40.92 542.405 37.464 544.901 33.944C545.541 32.92 545.989 31.896 546.629 31C546.885 30.616 547.269 30.104 547.525 29.592C547.781 29.208 548.037 28.824 548.165 28.44C548.293 28.056 548.421 27.672 548.421 27.288C548.549 26.52 548.549 25.88 548.549 25.24ZM564.165 23.256C564.421 23 564.677 22.616 564.933 22.488C565.445 22.104 565.957 21.72 566.597 21.592C567.493 21.464 571.717 21.464 574.213 21.592L574.085 15.192C573.957 14.168 573.957 13.4 574.085 12.376V9.432C574.085 8.792 574.213 8.088 574.213 7.448C574.341 6.808 574.469 6.296 574.725 5.656C574.853 5.144 575.109 4.632 575.493 4.248C576.773 3.096 579.333 2.84 580.741 4.248C582.277 5.784 582.021 8.92 582.021 11.096V50.008C582.021 50.392 582.021 50.776 581.893 51.288C581.893 51.8 581.765 52.312 581.509 52.824C581.381 53.336 581.125 53.592 580.741 53.976C579.589 55 576.773 55.256 575.621 53.976C574.085 52.312 574.085 50.52 574.085 48.408V40.728C574.085 39.96 574.085 39.064 573.957 38.168L574.085 30.04C573.573 29.912 570.309 30.04 569.797 29.912C569.157 29.912 568.645 29.912 568.005 29.784C567.365 29.784 566.725 29.656 566.085 29.272C565.445 29.016 564.933 28.632 564.421 28.248C564.037 27.736 563.653 27.224 563.525 26.584C563.397 25.944 563.397 25.176 563.525 24.408C563.653 24.024 563.781 23.64 564.165 23.256ZM648 50.136C649.28 50.2 650.432 50.712 650.88 52.056C651.328 53.592 650.752 54.68 649.216 55.256C648.192 55.704 647.04 55.704 646.144 55.704H616.384C614.656 55.704 612.8 55.704 610.944 55.64C609.152 55.576 607.872 54.232 607.68 52.312C607.552 50.904 607.488 48.856 607.488 47.704V47.128C607.424 46.168 607.424 44.696 608.192 43.8C609.28 42.584 611.584 42.392 613.44 42.392H614.784C615.104 42.392 615.424 42.456 615.68 42.456H643.52V39.704H615.04C614.592 39.704 614.08 39.64 613.632 39.704H612.032C611.2 39.704 610.496 39.704 609.856 39.576C609.152 39.384 608.512 39.384 608.064 38.68C607.488 37.784 607.36 36.952 607.616 35.928C608.064 34.584 609.984 34.392 610.944 34.2C611.584 34.136 612.224 34.072 612.992 34.072H614.08C614.464 34.072 614.848 34.136 615.232 34.136H644.16C648.448 34.136 650.88 35.352 650.88 38.36V43.352C650.88 44.504 650.432 45.72 649.088 46.552C647.936 47.192 646.784 47.128 645.76 47.128H615.36V50.136H648ZM607.232 4.12L628.48 4.056C631.872 4.056 634.24 4.312 635.648 5.976C636.479 7 636.224 9.752 634.88 10.392C634.24 10.648 633.152 11.032 632.448 11.096C631.232 11.16 630.016 11.096 628.8 11.096H624.576C624.512 11.032 624.512 15.32 624.576 15.64C625.024 16.024 626.368 17.304 627.136 17.944C627.968 18.648 628.864 19.48 629.824 20.376C630.4 20.952 630.912 21.528 631.36 21.976C632.96 23.576 634.88 25.56 635.456 27.48C635.712 28.248 635.583 29.336 634.688 29.976C634.048 30.36 633.28 30.616 632.384 30.616C630.528 30.616 628.672 29.656 627.648 28.888C626.048 27.672 624.704 26.328 623.36 24.984C622.4 24.024 621.184 22.616 619.968 21.72L618.24 23.448C617.664 24.024 617.024 24.6 616.512 25.176C615.424 26.392 614.272 27.672 612.736 28.76C611.008 30.04 609.344 30.68 607.808 30.68C607.424 30.68 607.104 30.68 606.72 30.552C605.824 30.36 605.184 29.976 604.864 29.4C604.288 28.44 604.608 27.096 605.12 26.2C605.76 25.24 606.72 24.344 607.552 23.448C609.088 21.784 614.912 16.344 615.616 15.64V11.096H611.52C609.408 11.096 605.76 11.608 604.672 9.112C604.288 8.152 604.096 6.872 604.352 5.848C604.672 4.632 606.144 4.248 607.232 4.12ZM652.032 21.784H650.56V26.968C650.56 29.208 649.28 31.128 646.656 31.128C646.016 31.128 645.376 31 644.864 30.68C643.136 29.656 642.88 27.8 642.88 27.16V8.024C642.816 7.704 642.944 5.72 643.456 4.696C643.84 3.864 644.8 3.288 646.016 3.16C647.488 2.968 648.832 3.352 649.536 4.12C650.048 4.76 650.176 5.4 650.368 6.104C650.624 6.872 650.624 8.664 650.56 9.496V14.68C651.264 14.744 654.72 14.808 655.488 15C657.152 15.32 657.728 16.024 657.92 16.92C658.176 17.816 658.24 19.288 657.728 20.12C656.704 21.784 654.528 21.72 652.032 21.784ZM719.434 43.032C719.69 43.096 719.946 43.032 720.202 43.032C721.61 43.16 722.89 43.48 724.042 44.504C724.618 45.08 724.938 45.848 724.938 46.744C724.938 47.64 724.618 48.92 724.106 49.496C722.762 50.84 719.626 50.712 719.498 50.712H683.658C683.274 50.712 682.826 50.776 682.378 50.776C680.586 50.84 678.282 50.968 676.874 49.752C676.042 48.984 675.53 48.024 675.53 47C675.53 45.72 676.362 44.12 677.642 43.608C679.37 42.968 681.226 43.096 683.082 43.032H683.402C687.05 42.968 691.018 42.968 694.858 43.032L694.794 34.2C691.53 34.264 688.842 34.264 687.306 34.136C685.514 34.072 683.146 34.008 681.674 32.92C679.754 31.448 679.69 26.776 679.69 26.584V12.824C679.69 11.16 679.434 9.368 679.754 7.704C680.202 5.72 682.634 5.208 684.554 5.08C686.026 5.016 688.202 5.4 688.522 7.128C688.65 7.896 688.394 12.76 688.714 13.464C688.906 13.912 689.802 13.976 690.25 14.04C692.234 14.168 692.874 13.976 694.858 13.976L709.514 14.04C710.41 14.104 711.114 14.104 711.37 13.208C711.434 12.312 711.434 8.536 711.498 7.832C711.562 6.296 712.01 5.4 713.61 5.08C715.274 4.696 717.642 4.824 718.602 5.784C719.946 7.192 719.882 8.856 719.882 12.184C719.754 16.088 720.074 25.496 719.69 29.4C719.498 31.896 718.09 33.496 715.658 33.88C714.378 34.072 712.65 34.008 711.37 34.008C708.618 34.072 705.994 34.072 703.434 34.072L703.562 43.032C707.914 43.032 710.922 42.904 715.082 43.032C716.618 43.096 718.09 42.904 719.434 43.032ZM688.714 25.944C689.034 27.224 690.89 27.224 692.298 27.288C692.938 27.224 705.93 27.096 706.698 27.224C707.402 27.288 708.106 27.224 708.81 27.288C709.706 27.352 711.242 27.672 711.242 26.264C711.242 25.624 711.37 23 711.05 21.784C710.794 20.76 710.218 20.824 709.386 20.888C709.002 20.888 707.786 20.952 707.402 20.888H692.81C691.21 20.824 688.842 20.504 688.65 22.488C688.65 22.936 688.65 25.624 688.714 25.944ZM771.948 49.944C773.292 50.008 774.444 50.52 774.828 51.864C775.276 53.4 774.764 54.488 773.164 55.064C772.14 55.512 770.988 55.512 770.156 55.512H741.676C739.948 55.512 738.028 55.512 736.172 55.448C733.868 55.384 733.1 53.784 732.972 51.864L732.716 47.448C732.652 46.488 732.652 44.248 733.42 43.352C734.572 42.136 736.172 41.944 738.028 41.944H740.012C740.396 41.944 740.652 42.008 740.908 42.008H767.532V39.448H740.268C739.82 39.448 739.372 39.384 738.86 39.448H737.324C736.492 39.448 735.788 39.448 735.148 39.32C734.38 39.128 733.74 39.128 733.292 38.424C732.78 37.528 732.588 36.504 732.908 35.48C733.356 34.136 735.276 33.944 736.236 33.752C736.876 33.688 737.516 33.624 738.22 33.624H739.308C739.756 33.688 740.076 33.688 740.524 33.688H768.172C772.46 33.688 774.892 34.904 774.892 37.912V43.8C774.892 44.952 774.38 45.976 773.036 46.808C771.948 47.448 770.796 47.384 769.708 47.384H740.588V49.944H771.948ZM744.492 3.032C753.196 3.608 758.06 8.6 757.42 17.752C756.844 25.368 752.748 29.784 744.62 29.784C741.484 29.784 737.9 30.104 733.996 27.672C730.284 25.304 729.132 20.568 729.132 16.472C729.132 7.256 735.66 2.392 744.492 3.032ZM774.956 8.472V26.904C774.956 26.968 774.7 29.464 773.036 30.552C772.46 30.872 771.884 31.064 771.244 31.064C770.476 31.064 769.772 30.808 769.132 30.36C768.684 30.04 768.3 29.592 768.044 29.016C766.764 26.456 767.276 22.68 767.276 19.864C767.34 16.216 767.34 13.848 767.34 10.264V9.432C767.276 8.472 767.276 7.384 767.532 6.424C767.724 5.72 768.108 5.08 768.684 4.376C769.388 3.544 770.732 3.096 772.14 3.288C773.356 3.48 774.316 4.12 774.7 4.952C775.212 6.04 775.02 8.152 774.956 8.472ZM749.996 18.52L750.06 18.008C750.444 14.936 748.908 11.992 746.22 11.032C742.635 9.816 737.132 10.904 736.428 15.704C735.916 18.968 737.324 22.552 742.252 23C745.644 23.384 749.164 22.424 749.996 18.52ZM827.377 22.872H827.505C827.889 22.872 828.273 23 828.721 23C829.169 23.064 829.681 23.128 830.193 23.192C831.153 23.384 832.177 23.768 832.625 24.728C832.945 25.24 833.073 25.816 833.073 26.392C833.073 27.032 833.073 27.608 832.881 28.248C832.753 28.888 832.561 29.784 831.985 30.232C831.473 30.616 830.897 30.936 830.257 31.064C828.913 31.256 826.609 31.064 825.265 31.128C825.137 31.128 825.073 31.192 825.073 31.192C825.073 31.192 825.009 31.192 825.009 31.448C824.945 33.56 825.009 37.272 825.009 39.448C825.073 41.624 825.073 43.864 825.009 45.976V46.872C825.009 49.112 825.009 52.376 823.473 53.912C822.961 54.488 822.257 54.808 821.425 54.808C821.425 54.808 821.361 54.744 821.297 54.744C817.137 54.616 816.689 49.624 816.689 46.936V8.92C816.689 8.792 816.625 5.592 818.033 4.184C818.609 3.608 819.953 3.288 820.913 3.288C821.873 3.288 822.705 3.672 823.281 4.248C824.433 5.464 824.497 6.808 824.625 8.216C824.689 8.472 824.689 8.728 824.689 8.984C824.881 10.392 824.817 12.056 824.881 13.592C824.881 14.552 825.009 15.32 825.009 16.28C824.945 16.792 825.009 17.24 825.009 17.688V21.336C825.009 21.784 825.009 22.296 825.137 22.744C825.137 22.808 826.417 22.808 826.481 22.808C826.801 22.872 827.057 22.936 827.377 22.872ZM789.361 42.712C789.361 41.688 789.297 40.664 789.297 39.64V19.096C789.297 17.688 789.361 16.28 789.169 14.936C789.105 14.488 789.041 13.528 788.593 13.272C788.145 13.08 787.569 13.208 787.057 13.144C786.481 13.08 787.505 13.208 783.793 13.144C782.833 13.144 781.681 13.08 780.849 12.568C779.697 11.736 779.312 10.84 779.312 9.432C779.312 8.6 779.441 8.088 779.825 7.32C780.017 6.936 780.273 6.552 780.657 6.232C781.105 5.848 782.065 5.528 782.705 5.336C784.497 4.952 785.585 4.952 787.441 4.952H792.113C792.433 4.952 792.817 4.952 793.201 5.016C794.033 4.952 794.865 4.952 795.697 4.952H803.761C804.209 4.952 804.657 4.952 805.105 5.016C806.257 5.08 807.601 5.272 808.625 5.656C809.265 5.912 810.033 6.36 810.417 6.936C811.185 8.152 811.121 9.304 811.249 10.712C811.505 13.016 811.377 15.384 811.377 17.752V38.104C811.441 38.36 811.569 43.608 811.377 46.36C811.312 48.088 810.865 50.136 808.689 51.032C807.857 51.288 807.153 51.48 806.513 51.48C805.425 51.48 804.145 50.968 803.633 50.072C802.993 48.728 802.673 47.192 802.673 45.528C802.673 44.568 802.673 43.608 802.609 42.712V19.096C802.609 17.688 802.609 16.28 802.417 14.936C802.417 14.488 802.353 13.528 801.905 13.272C801.457 13.08 800.881 13.208 800.369 13.144C799.793 13.08 798.705 13.208 798.128 13.144V16.92V38.104C798.128 38.36 798.321 43.608 798.128 46.36C798.001 48.088 797.617 50.136 795.441 51.032C794.609 51.288 793.841 51.48 793.265 51.48C792.113 51.48 790.833 50.968 790.385 50.072C789.745 48.728 789.425 47.192 789.361 45.528V42.712ZM97.7713 128.44C98.3713 128.5 98.9113 128.74 99.0913 129.4C99.3313 130.15 99.0613 130.69 98.3113 131.02C97.8613 131.2 97.3513 131.23 96.9313 131.23H83.1313C82.3513 131.23 81.4813 131.2 80.6113 131.17C79.8013 131.14 79.2013 130.48 79.1113 129.52L79.0213 127.3C78.9913 126.88 78.9613 126.1 79.3213 125.71C79.8613 125.08 80.9113 124.99 81.7813 124.99C82.8913 124.99 86.6713 125.02 95.7013 125.02V123.88H81.1213C80.7313 123.88 80.4013 123.88 80.1313 123.82C79.7713 123.7 79.4713 123.7 79.2913 123.37C79.0213 122.92 78.9313 122.5 79.0813 122.02C79.2913 121.33 80.1913 121.24 80.6113 121.18C80.9113 121.12 81.2113 121.09 81.5413 121.09C83.3113 121.09 85.3813 121.12 96.0013 121.12C98.0113 121.12 99.1213 121.75 99.1213 123.22V125.44C99.1213 126.01 98.8813 126.64 98.2513 127.03C97.7713 127.33 97.2313 127.3 96.7213 127.3H82.6813V128.44H97.7713ZM79.1413 110.44C79.1413 107.17 82.9813 105.97 89.3413 105.97C95.4613 105.97 99.5713 106.81 99.5713 110.44C99.5713 114.04 96.1813 114.91 89.3413 114.91C83.7013 114.91 79.1413 114.04 79.1413 110.44ZM80.3113 116.23C80.9113 116.17 82.2313 116.17 82.2313 116.17H88.8313C88.8313 116.17 94.3813 116.11 97.0813 116.17H97.2313C98.0413 116.2 98.8513 116.14 99.6313 116.44C100.201 116.65 100.561 117.16 100.561 117.76C100.561 118.24 100.351 118.69 99.9613 119.02C99.3313 119.59 98.3113 119.56 97.5013 119.5H80.2813C80.2213 119.5 78.8113 119.53 78.2413 118.9C78.0013 118.66 77.8813 118.27 77.8813 117.88C77.8813 117.46 78.0313 117.1 78.2712 116.86C78.7813 116.35 79.3513 116.32 79.9513 116.26C80.0713 116.26 80.1913 116.23 80.3113 116.23ZM95.4613 110.44C95.4613 109.18 92.2213 108.91 89.3413 108.91C86.4913 108.91 83.4313 109.18 83.4313 110.44C83.4313 111.55 86.4313 111.82 89.2813 111.82C92.1613 111.82 95.4613 111.88 95.4613 110.44ZM118.858 107.14C119.218 107.14 119.878 107.14 120.208 107.23C120.748 107.41 121.348 107.68 121.708 108.16C122.098 108.64 122.278 109.54 122.278 110.17C122.278 111.91 122.368 113.62 122.308 115.36C122.248 116.41 122.428 117.94 121.888 118.87C121.288 119.95 119.608 120.25 118.948 119.17C118.438 118.36 118.408 117.28 118.408 116.26V113.68C118.408 113.02 118.378 112.33 118.318 111.73C118.228 110.77 117.508 110.95 116.758 110.92C115.978 110.89 114.568 110.95 113.878 110.92C112.558 110.92 111.478 110.89 110.038 110.71C108.958 110.59 109.018 109.09 109.168 108.37C109.228 107.95 109.438 107.68 109.768 107.44C110.218 107.14 110.758 107.2 111.238 107.14C111.808 107.11 118.168 107.11 118.858 107.14ZM127.378 114.94H126.658C125.488 114.88 124.528 114.97 124.018 114.19C123.778 113.8 123.808 113.08 123.898 112.66C124.018 112.21 124.288 111.91 125.068 111.73C125.398 111.67 127.048 111.61 127.378 111.58V109C127.348 108.58 127.348 108.1 127.468 107.68C127.558 107.38 127.588 107.08 127.858 106.78C128.188 106.39 128.818 106.21 129.478 106.3C130.078 106.39 130.528 106.66 130.708 107.05C130.948 107.53 130.978 108.43 130.978 108.58V118.36H130.948C130.948 118.42 130.828 119.5 130.048 119.98C129.778 120.13 129.508 120.22 129.208 120.22C128.848 120.22 128.518 120.1 128.218 119.89C128.008 119.74 127.828 119.56 127.708 119.29C127.468 118.87 127.408 118.39 127.378 117.97V114.94ZM112.078 130.12C112.048 130.12 112.018 130.09 111.988 130.06C111.598 129.76 111.478 129.01 111.478 128.56C111.448 127.84 111.358 127.12 111.358 126.43C111.358 125.41 111.328 124.39 111.508 123.4C111.628 122.77 111.868 122.41 112.468 122.17C113.008 121.96 113.578 121.84 114.148 121.84H128.278C129.028 121.87 129.868 121.9 130.588 122.23C131.368 122.56 131.578 123.4 131.638 124.18C131.698 125.56 131.758 127.87 131.368 129.31C131.248 129.76 131.158 130.12 130.678 130.27C130.258 130.42 129.748 130.45 129.328 130.45L113.698 130.39C113.188 130.36 112.528 130.42 112.078 130.12ZM114.928 126.61C114.928 126.79 114.928 127 115.048 127.09C115.198 127.24 115.888 127.15 115.888 127.15H125.278C125.278 127.15 126.688 127.27 127.438 127.18C127.828 127.15 127.858 126.97 127.888 126.61C127.918 126.28 127.978 125.8 127.738 125.5C127.468 125.17 126.868 125.23 126.478 125.26H118.138C117.268 125.2 116.428 125.23 115.558 125.26C115.228 125.26 115.078 125.2 114.988 125.56C114.928 125.83 114.928 126.1 114.928 126.34C114.958 126.4 114.928 126.49 114.928 126.61ZM155.509 108.82V118.87C155.509 118.93 155.479 120.01 154.669 120.49C154.429 120.64 154.249 120.7 153.979 120.7C153.619 120.7 153.259 120.61 152.989 120.4C152.779 120.25 152.599 120.04 152.479 119.8C151.879 118.69 152.089 117.25 152.119 116.02V115.6C151.579 115.63 150.709 115.63 150.259 115.66H150.169V118.39C150.139 118.81 150.079 119.29 149.839 119.74C149.719 119.98 149.539 120.19 149.329 120.31C149.059 120.52 148.909 120.64 148.549 120.64C148.249 120.64 147.979 120.55 147.709 120.4C146.929 119.92 146.809 118.84 146.809 118.81V108.91C146.779 108.73 146.809 107.83 147.049 107.35C147.229 106.96 147.709 106.69 148.279 106.63C148.939 106.54 149.359 106.72 149.689 107.08C149.959 107.38 149.989 107.68 150.079 108.01C150.199 108.4 150.199 108.88 150.199 109.3C150.169 109.42 150.169 109.54 150.169 109.66V112.3C150.349 112.33 151.459 112.36 152.149 112.39V109.57V109.21C152.119 108.79 152.119 108.34 152.239 107.92C152.329 107.62 152.509 107.32 152.779 107.02C153.079 106.63 153.529 106.45 154.189 106.54C154.759 106.63 155.089 106.93 155.269 107.32C155.509 107.8 155.539 108.67 155.509 108.82ZM152.599 122.68C154.219 122.68 155.329 123.22 155.329 124.12V128.14C155.359 128.59 155.359 129.04 155.329 129.46C155.239 130.3 154.609 130.87 153.709 130.87C153.499 130.87 152.839 130.84 152.629 130.78C151.579 130.45 151.489 129.46 151.429 128.56C151.399 128.2 151.399 126.52 151.339 126.22C151.219 126.19 150.799 126.13 149.329 126.13C148.039 126.13 147.919 126.19 147.889 126.19H137.059L137.029 126.16C136.999 126.16 135.799 125.89 135.679 125.05C135.589 124.3 135.709 123.7 136.069 123.25C136.549 122.68 137.269 122.68 137.299 122.68H152.599ZM133.909 119.65C133.669 119.53 133.459 119.29 133.369 118.96C132.769 117.37 134.389 115.81 135.199 114.73C135.769 113.89 136.339 113.29 136.939 112.42C137.329 111.76 137.989 111.01 138.049 110.14C138.079 108.79 138.049 106.81 139.549 106.81C140.149 106.81 141.319 106.87 141.559 107.5C141.859 108.22 141.559 109.69 141.799 110.44C141.979 111.1 142.159 111.52 142.459 112.09C143.119 113.29 143.599 114.01 144.319 115.12C144.889 115.96 145.399 116.74 145.579 117.76C145.939 119.47 143.959 120.22 142.999 119.08L139.729 114.67L136.579 118.6C136.189 119.08 135.679 119.56 135.109 119.71C134.689 119.8 134.239 119.83 133.909 119.65ZM165.219 113.74C171.669 113.98 171.969 122.92 169.539 127.24C167.769 130.36 162.699 130.54 160.299 127.96C159.279 126.85 158.919 125.65 158.709 124.18C158.289 121.24 158.079 118.66 159.669 115.99C160.539 114.49 163.029 113.65 165.219 113.74ZM179.199 115.93H179.259C179.439 115.93 179.619 115.99 179.829 115.99C180.039 116.02 180.279 116.05 180.519 116.08C180.969 116.17 181.449 116.35 181.659 116.8C181.809 117.04 181.869 117.31 181.869 117.58C181.869 117.88 181.869 118.15 181.779 118.45C181.719 118.75 181.629 119.17 181.359 119.38C181.119 119.56 180.849 119.71 180.549 119.77C179.919 119.86 178.839 119.77 178.209 119.8C178.149 119.8 178.119 119.83 178.119 119.83C178.119 119.83 178.089 119.83 178.089 119.95C178.059 120.94 178.089 122.44 178.089 123.46C178.119 124.48 178.119 125.53 178.089 126.52V126.94C178.089 127.99 178.089 129.52 177.369 130.24C177.129 130.51 176.799 130.66 176.409 130.66C176.409 130.66 176.379 130.63 176.349 130.63C174.399 130.57 174.189 128.23 174.189 126.97V109.15C174.189 109.09 174.159 107.59 174.819 106.93C175.089 106.66 175.719 106.51 176.169 106.51C176.619 106.51 177.009 106.69 177.279 106.96C177.819 107.53 177.849 108.16 177.909 108.82C177.939 108.94 177.939 109.06 177.939 109.18C178.029 109.84 178.029 110.59 178.059 111.31C178.059 111.76 178.089 112.15 178.089 112.6C178.059 112.84 178.089 113.05 178.089 113.26V115.21C178.089 115.42 178.089 115.66 178.149 115.87C178.149 115.9 178.749 115.9 178.779 115.9C178.929 115.93 179.049 115.96 179.199 115.93ZM169.419 108.94C170.199 108.94 171.129 109.12 171.549 109.9C171.819 110.41 171.729 111.34 171.339 111.85C170.559 112.84 167.559 112.51 167.019 112.54C166.719 112.57 166.419 112.57 166.059 112.57H165.099C164.799 112.54 164.499 112.54 164.169 112.54L160.629 112.48C158.589 112.48 157.809 111.97 157.659 110.86C157.569 110.26 157.749 109.78 158.109 109.45C158.649 108.97 158.949 108.91 159.549 108.91C159.699 108.91 159.879 108.94 160.029 108.94H160.779C161.349 108.94 162.189 108.91 162.759 108.88C162.789 108.58 162.819 107.56 162.849 107.29C162.879 106.96 162.999 106.63 163.179 106.36C163.569 105.82 164.139 105.52 164.739 105.55C165.309 105.61 165.909 105.64 166.269 106.12C166.719 106.75 166.539 108.04 166.629 108.91H167.499C167.829 108.91 168.579 108.94 168.879 108.94H169.419ZM165.099 126.43C166.899 126.16 167.589 123.91 167.559 122.29C167.529 120.91 167.469 118.72 166.239 117.88C165.159 117.16 162.909 117.49 162.339 118.75C161.589 120.37 161.649 122.02 162.009 123.73C162.189 124.6 162.519 125.68 163.269 126.19C163.599 126.4 164.769 126.49 165.099 126.43ZM186.342 111.61C185.652 111.61 184.662 111.52 184.182 110.8C183.912 110.32 183.822 109.66 183.972 109.12C184.122 108.58 184.542 108.13 185.082 107.89C185.322 107.8 185.562 107.71 185.832 107.65C186.582 107.47 186.972 107.47 187.752 107.44C188.112 107.44 188.232 107.44 188.562 107.41C188.862 107.41 188.892 107.38 189.252 107.38C189.912 107.38 196.272 107.41 196.902 107.44C197.502 107.47 198.162 107.47 198.792 107.47C199.512 107.47 200.202 107.5 200.922 107.59C201.252 107.65 201.612 107.68 201.912 107.86C202.782 108.34 202.842 109.84 202.872 110.71C202.872 111.25 202.902 111.79 202.902 112.33C202.932 113.08 202.932 114.22 202.902 114.97C202.872 116.59 202.842 118.18 202.842 119.8C202.842 120.43 202.752 121.09 202.362 121.63C201.942 122.2 201.252 122.41 200.562 122.23C199.002 121.84 199.152 120.04 199.002 118.75C198.882 117.91 198.822 117.1 198.822 116.29C198.852 115.39 198.732 114.16 198.732 113.29C198.732 112.6 198.762 111.94 198.192 111.61C197.952 111.49 197.622 111.52 197.202 111.52H196.572C196.362 111.55 196.152 111.52 195.972 111.52H192.792C192.012 111.52 191.502 111.61 190.722 111.61C189.912 111.61 189.402 111.58 188.592 111.64C188.262 111.67 188.172 111.61 187.842 111.61H186.342ZM203.022 124.87C203.142 124.9 203.262 124.87 203.382 124.87C204.042 124.93 204.642 125.08 205.182 125.56C205.452 125.83 205.602 126.19 205.602 126.61C205.602 127.03 205.452 127.63 205.212 127.9C204.582 128.53 203.112 128.47 203.052 128.47H186.252C186.072 128.47 185.862 128.5 185.652 128.5C184.812 128.53 183.732 128.59 183.072 128.02C182.682 127.66 182.442 127.21 182.442 126.73C182.442 126.13 182.832 125.38 183.432 125.14C184.242 124.84 185.112 124.9 185.982 124.87H186.132C187.842 124.84 188.832 124.84 190.632 124.87L190.602 118.42C190.602 118.42 190.602 117.4 191.412 116.83C192.432 116.08 194.622 116.59 194.622 118.06L194.682 124.87C196.902 124.87 198.912 124.81 200.982 124.87C201.702 124.9 202.392 124.81 203.022 124.87ZM347.49 128.44C348.09 128.5 348.63 128.74 348.81 129.4C349.05 130.15 348.78 130.69 348.03 131.02C347.58 131.2 347.07 131.23 346.65 131.23H332.85C332.07 131.23 331.2 131.2 330.33 131.17C329.52 131.14 328.92 130.48 328.83 129.52L328.74 127.3C328.71 126.88 328.68 126.1 329.04 125.71C329.58 125.08 330.63 124.99 331.5 124.99C332.61 124.99 336.39 125.02 345.42 125.02V123.88H330.84C330.45 123.88 330.12 123.88 329.85 123.82C329.49 123.7 329.19 123.7 329.01 123.37C328.74 122.92 328.65 122.5 328.8 122.02C329.01 121.33 329.91 121.24 330.33 121.18C330.63 121.12 330.93 121.09 331.26 121.09C333.03 121.09 335.1 121.12 345.72 121.12C347.73 121.12 348.84 121.75 348.84 123.22V125.44C348.84 126.01 348.6 126.64 347.97 127.03C347.49 127.33 346.95 127.3 346.44 127.3H332.4V128.44H347.49ZM328.86 110.44C328.86 107.17 332.7 105.97 339.06 105.97C345.18 105.97 349.29 106.81 349.29 110.44C349.29 114.04 345.9 114.91 339.06 114.91C333.42 114.91 328.86 114.04 328.86 110.44ZM330.03 116.23C330.63 116.17 331.95 116.17 331.95 116.17H338.55C338.55 116.17 344.1 116.11 346.8 116.17H346.95C347.76 116.2 348.57 116.14 349.35 116.44C349.92 116.65 350.28 117.16 350.28 117.76C350.28 118.24 350.07 118.69 349.68 119.02C349.05 119.59 348.03 119.56 347.22 119.5H330C329.94 119.5 328.53 119.53 327.96 118.9C327.72 118.66 327.6 118.27 327.6 117.88C327.6 117.46 327.75 117.1 327.99 116.86C328.5 116.35 329.07 116.32 329.67 116.26C329.79 116.26 329.91 116.23 330.03 116.23ZM345.18 110.44C345.18 109.18 341.94 108.91 339.06 108.91C336.21 108.91 333.15 109.18 333.15 110.44C333.15 111.55 336.15 111.82 339 111.82C341.88 111.82 345.18 111.88 345.18 110.44ZM379.287 128.08C379.917 128.11 380.457 128.35 380.637 128.98C380.847 129.7 380.607 130.21 379.857 130.48C379.377 130.69 378.837 130.69 378.447 130.69H364.497C363.687 130.69 362.787 130.69 361.917 130.66C360.837 130.63 360.477 129.88 360.417 128.98L360.297 127C360.267 126.55 360.267 125.83 360.627 125.41C361.167 124.84 361.917 124.75 362.787 124.75H363.717C363.897 124.75 364.017 124.78 364.137 124.78H377.217V123.73H363.837C363.627 123.73 363.417 123.7 363.177 123.73H362.457C362.067 123.73 361.737 123.73 361.437 123.67C361.077 123.58 360.777 123.58 360.567 123.25C360.327 122.83 360.237 122.44 360.387 121.96C360.597 121.33 361.497 121.24 361.947 121.15C362.247 121.12 362.547 121.09 362.877 121.09H363.387C363.597 121.12 363.747 121.12 363.957 121.12H377.517C379.527 121.12 380.667 121.69 380.667 123.1V125.2C380.667 125.74 380.427 126.31 379.797 126.7C379.287 127 378.747 126.97 378.237 126.97H363.987V128.08H379.287ZM361.257 118.81C360.477 118.81 359.397 118.63 359.097 117.85C358.917 117.31 358.917 116.32 359.397 115.93C359.667 115.66 360.117 115.66 360.477 115.66C360.747 115.66 361.017 115.69 361.287 115.69C361.437 115.69 361.557 115.72 361.557 115.54C361.617 115.12 361.557 114.67 361.557 114.25V112.66C361.557 112.21 361.587 111.76 361.587 111.31C361.587 111.22 361.617 110.53 361.587 110.5C361.287 110.5 360.957 110.47 360.657 110.44C359.907 110.35 359.397 110.08 359.247 109.27C359.157 108.88 359.157 108.43 359.337 108.04C359.487 107.77 359.787 107.53 360.117 107.44C360.627 107.26 361.167 107.38 361.677 107.35C362.337 107.32 362.967 107.29 363.627 107.29C364.257 107.26 364.857 107.26 365.517 107.26H370.917C371.457 107.26 372.027 107.32 372.537 107.5C372.987 107.65 373.287 107.98 373.437 108.4C373.707 109 373.587 109.69 373.047 110.05C372.327 110.53 371.427 110.32 370.617 110.41C370.677 111.46 370.737 114.34 370.767 115.6C371.607 115.63 372.687 115.39 373.377 115.96C373.947 116.41 373.917 117.52 373.467 118.12C372.777 118.96 371.547 118.81 370.617 118.81H361.257ZM380.697 108.94V118.18C380.697 118.21 380.577 119.38 379.797 119.89C379.527 120.04 379.257 120.13 378.957 120.13C378.597 120.13 378.267 120.01 377.967 119.8C377.757 119.65 377.577 119.44 377.457 119.17C376.857 117.97 377.097 116.2 377.097 114.88C377.127 113.17 377.127 111.46 377.127 109.78V109.39C377.097 108.94 377.097 108.43 377.217 107.98C377.307 107.65 377.487 107.35 377.757 107.02C378.087 106.63 378.717 106.42 379.377 106.51C379.947 106.6 380.397 106.9 380.577 107.29C380.817 107.8 380.727 108.79 380.697 108.94ZM367.467 115.33C367.497 115.09 367.467 114.82 367.497 114.58V112.72C367.497 112.18 367.497 111.61 367.467 111.07C367.467 110.8 367.437 110.59 367.167 110.47C366.927 110.38 366.627 110.41 366.357 110.41C365.997 110.41 365.637 110.41 365.307 110.44C365.157 110.47 365.037 110.44 364.917 110.5C364.587 110.65 364.617 111.04 364.677 111.31C364.707 111.64 364.677 111.97 364.677 112.3V114.85C364.677 115.09 364.617 115.39 364.797 115.57C364.917 115.69 365.037 115.69 365.157 115.66C365.637 115.66 366.117 115.69 366.597 115.63C366.777 115.63 366.987 115.66 367.167 115.63C367.407 115.6 367.467 115.57 367.467 115.33ZM400.651 119.83C400.111 119.74 399.001 119.74 398.461 119.68C397.081 119.59 395.851 118.63 396.271 117.1C396.361 116.8 396.661 116.38 396.901 116.17C397.141 115.99 397.411 115.84 397.741 115.78C398.371 115.69 399.961 115.78 400.621 115.72H400.711V115.6C400.741 114.61 400.741 114.49 400.711 113.47C400.711 112.45 400.681 111.4 400.711 110.41V109.99C400.711 108.94 400.711 107.38 401.431 106.66C401.701 106.42 402.001 106.27 402.391 106.27H402.451C404.401 106.36 404.701 108.7 404.701 109.96V127.96C404.701 128.02 404.761 129.55 404.071 130.18C403.801 130.45 403.171 130.63 402.751 130.63C402.301 130.63 401.791 130.45 401.521 130.15C401.011 129.61 400.951 128.98 400.891 128.32C400.891 128.2 400.861 128.08 400.861 127.93C400.801 127.3 400.801 126.55 400.771 125.83C400.741 125.38 400.741 124.96 400.741 124.54V123.85C400.741 123.01 400.711 121.33 400.711 120.49C400.711 120.28 400.741 120.01 400.651 119.83ZM396.601 125.29C397.621 126.01 397.501 127.9 396.391 128.47C395.521 128.95 394.501 129.07 393.601 129.07H392.371C391.261 129.1 389.791 129.04 388.681 129.07H388.171C386.851 129.07 385.021 128.95 384.181 127.93C383.371 127 383.461 124.48 383.461 124.36V110.2C383.461 110.08 383.461 108.82 383.731 108.37C384.091 107.8 384.391 107.56 384.991 107.47C385.291 107.41 386.041 107.38 386.041 107.38H392.761C392.761 107.38 393.421 107.41 393.751 107.38H393.811C394.201 107.38 394.561 107.41 394.921 107.53C395.281 107.62 395.671 107.68 395.941 108.01C396.181 108.28 396.331 108.64 396.391 109C396.451 109.3 396.481 109.57 396.421 109.9C396.301 110.74 395.731 111.46 394.831 111.46H387.571V114.07C387.571 114.07 387.601 115.03 387.571 115.9C388.861 115.96 389.851 115.9 389.851 115.9H391.591C391.771 115.9 391.981 115.93 392.191 115.9H393.001C393.451 115.9 393.931 115.96 394.321 116.2C394.921 116.56 395.011 117.37 394.951 118C394.951 118.3 394.951 118.66 394.771 118.9C394.291 119.56 393.811 119.62 393.271 119.62H390.841C390.841 119.62 390.181 119.65 389.161 119.65C388.651 119.65 388.111 119.65 387.601 119.62C387.631 121.21 387.571 122.23 387.571 122.26V123.64C387.571 124.18 387.661 124.69 387.751 124.72C388.021 124.87 388.741 124.96 389.491 124.96H389.611C390.271 124.93 391.291 124.93 391.951 124.96H393.421C393.541 124.96 393.691 124.96 393.841 124.93H394.351C394.981 124.93 395.641 124.93 396.271 125.14C396.391 125.17 396.481 125.23 396.601 125.29ZM408.973 125.98C408.973 122.35 413.473 121.36 418.993 121.36C424.513 121.36 429.013 121.93 429.013 125.98C429.013 129.97 424.513 130.6 418.993 130.6C413.473 130.6 408.973 129.97 408.973 125.98ZM419.743 119.53C419.263 119.71 418.753 119.77 418.243 119.77H411.763C410.893 119.77 409.963 119.77 409.033 119.71C408.163 119.68 407.563 119.02 407.473 118.03C407.383 117.28 407.383 115.12 407.383 114.46V114.16C407.353 113.71 407.323 113.17 407.683 112.72C408.223 112.06 409.333 112 410.263 112H417.043V110.23H411.043C410.803 110.23 410.563 110.26 410.323 110.26C410.083 110.29 409.813 110.29 409.543 110.29C409.153 110.29 408.793 110.26 408.493 110.2C408.133 110.11 407.863 109.87 407.653 109.54C407.383 109.06 407.293 108.43 407.443 107.92C407.653 107.23 408.553 106.9 409.033 106.84C409.333 106.78 409.663 106.75 410.023 106.75H410.563C410.773 106.75 410.953 106.78 411.163 106.78H417.253C419.323 106.78 420.523 107.65 420.523 109.18V112.39C420.523 112.99 420.283 114.07 419.653 114.46C419.143 114.79 418.573 114.79 418.033 114.76H411.103V116.74H417.943C418.333 116.74 418.753 116.74 419.143 116.77C419.803 116.8 420.313 117.31 420.493 117.91C420.733 118.69 420.463 119.23 419.743 119.53ZM428.623 108.94V118.18C428.623 118.21 428.503 119.38 427.723 119.89C427.453 120.04 427.183 120.13 426.883 120.13C426.523 120.13 426.193 120.01 425.893 119.8C425.683 119.65 425.503 119.44 425.383 119.17C424.783 117.97 425.023 116.2 425.023 114.88C425.053 113.17 425.053 111.46 425.053 109.78V109.39C425.023 108.94 425.023 108.43 425.143 107.98C425.233 107.65 425.413 107.35 425.683 107.02C426.013 106.63 426.643 106.42 427.303 106.51C427.873 106.6 428.323 106.9 428.503 107.29C428.743 107.8 428.653 108.79 428.623 108.94ZM424.963 125.98C424.963 124.6 421.783 124.48 418.993 124.48C416.203 124.48 413.203 124.6 413.203 125.98C413.203 127.21 416.203 127.45 418.993 127.45C421.783 127.45 424.963 127.6 424.963 125.98ZM440.3 108.82H440.69C441.02 108.82 441.35 108.88 441.68 108.97C441.95 109.06 442.19 109.3 442.37 109.72C442.52 110.2 442.46 110.77 442.19 111.25C442.04 111.46 441.8 111.64 441.59 111.79C441.35 111.88 441.02 111.97 440.69 111.97C440.36 112.03 440.12 112.03 439.7 111.97C439.4 111.97 439.07 111.97 438.74 111.97L433.07 111.88C432.29 111.88 431.72 111.7 431.39 111.46C431.06 111.16 430.91 110.77 430.82 110.2C430.82 109.87 430.97 109.54 431.3 109.21C431.63 108.88 431.96 108.82 432.38 108.82C432.44 108.82 432.59 108.82 432.83 108.82C433.16 108.82 433.4 108.82 433.73 108.82C433.97 108.82 434.3 108.82 434.54 108.82C434.72 108.82 434.87 108.82 434.87 108.73C434.87 108.58 434.96 108.49 434.96 108.4C434.96 108.31 434.96 108.16 434.96 108.07C434.96 107.68 435.11 107.35 435.2 107.11C435.35 106.9 435.59 106.66 435.92 106.48C436.49 106.24 437.54 106.24 437.84 106.9C437.93 107.02 438.02 107.2 438.02 107.35C438.11 107.44 438.11 107.62 438.11 107.77C438.17 107.92 438.17 108.07 438.11 108.25C438.11 108.4 438.11 108.58 438.17 108.82H439.13C439.31 108.82 439.46 108.82 439.7 108.82C439.97 108.82 440.12 108.82 440.3 108.82ZM437.6 113.11C438.44 113.2 439.13 113.44 439.79 113.92C440.36 114.4 440.87 114.97 441.29 115.78C441.59 116.5 441.8 117.37 441.95 118.36C442.13 119.35 442.19 120.28 442.19 121.27C442.19 122.26 442.13 123.25 441.89 124.12C441.74 125.08 441.53 125.89 441.2 126.61C440.78 127.42 440.3 127.99 439.55 128.41C438.8 128.83 438.11 129.04 437.3 129.13C436.49 129.19 435.65 129.04 434.87 128.74C434.12 128.5 433.46 127.99 433.01 127.33C432.23 126.22 431.72 124.99 431.57 123.55C431.48 122.83 431.39 122.08 431.39 121.42C431.39 120.76 431.39 120.16 431.48 119.5C431.48 118.87 431.63 118.21 431.81 117.55C432.53 114.73 434.54 112.96 437.6 113.11ZM437.39 125.8C437.69 125.74 438.02 125.56 438.26 125.32C438.5 124.99 438.74 124.66 438.89 124.27C439.07 123.85 439.13 123.37 439.22 122.98C439.31 122.5 439.31 122.08 439.31 121.69C439.31 121.36 439.31 120.94 439.31 120.52C439.22 120.1 439.22 119.68 439.13 119.26C439.07 118.87 438.98 118.45 438.8 118.12C438.65 117.79 438.5 117.46 438.26 117.22C438.02 117.07 437.78 117.01 437.45 116.92C437.15 116.83 436.82 116.92 436.49 117.01C436.16 117.07 435.92 117.13 435.59 117.37C435.35 117.55 435.2 117.79 435.05 118.12C434.78 118.93 434.63 119.77 434.63 120.52C434.63 121.42 434.63 122.26 434.78 123.16C434.87 123.55 435.05 124.03 435.2 124.51C435.35 124.9 435.59 125.32 435.92 125.56C435.98 125.65 436.07 125.65 436.25 125.74C436.31 125.74 436.49 125.74 436.64 125.8C436.82 125.8 436.97 125.8 437.06 125.8C437.21 125.8 437.3 125.8 437.39 125.8ZM452.57 111.55V127.18C452.66 127.75 452.57 128.32 452.51 128.89C452.24 130.66 450.17 131.14 449.51 129.19C449.42 128.89 449.36 128.56 449.36 128.17C449.27 127.84 449.27 127.51 449.27 127.18V120.22H447.32V127.33C447.41 127.84 447.32 128.32 447.32 128.83C447.17 129.82 446.57 130.72 445.31 130.42C444.59 130.15 444.17 129.46 444.08 128.74C444.02 128.23 444.02 127.75 444.02 127.27V109.96C444.02 109.96 444.02 109.87 444.02 109.81C444.02 109.72 444.02 109.63 444.02 109.54C444.02 109.21 444.02 108.97 444.02 108.64C444.02 108.31 444.08 107.98 444.17 107.68C444.35 107.35 444.5 107.11 444.68 106.9C444.83 106.66 445.04 106.48 445.37 106.39C445.88 106.33 446.27 106.39 446.51 106.72C446.75 106.99 446.9 107.29 447.08 107.68C447.17 108.07 447.23 108.49 447.23 108.97C447.32 109.48 447.32 109.96 447.32 110.47C447.32 111.01 447.32 111.4 447.32 111.88V116.59H449.27V109.81C449.27 109.54 449.27 109.21 449.27 108.82C449.27 108.49 449.27 108.07 449.36 107.77C449.42 107.44 449.6 107.11 449.84 106.9C450.02 106.66 450.32 106.48 450.71 106.39C451.19 106.39 451.52 106.48 451.76 106.81C452 107.02 452.24 107.35 452.33 107.77C452.42 108.16 452.51 108.58 452.57 109.06C452.57 109.48 452.66 109.96 452.66 110.47C452.57 110.86 452.57 111.25 452.57 111.55ZM483.18 125.14C483.3 125.17 483.42 125.14 483.54 125.14C484.2 125.2 484.8 125.35 485.34 125.83C485.61 126.1 485.76 126.46 485.76 126.88C485.76 127.3 485.61 127.9 485.37 128.17C484.74 128.8 483.27 128.74 483.21 128.74H466.41C466.23 128.74 466.02 128.77 465.81 128.77C464.97 128.8 463.89 128.86 463.23 128.29C462.84 127.93 462.6 127.48 462.6 127C462.6 126.4 462.99 125.65 463.59 125.41C464.4 125.11 465.27 125.17 466.14 125.14H466.29C468 125.11 469.86 125.11 471.66 125.14L471.63 121C470.1 121.03 468.84 121.03 468.12 120.97C467.28 120.94 466.17 120.91 465.48 120.4C464.58 119.71 464.55 117.52 464.55 117.43V110.98C464.55 110.2 464.43 109.36 464.58 108.58C464.79 107.65 465.93 107.41 466.83 107.35C467.52 107.32 468.54 107.5 468.69 108.31C468.75 108.67 468.63 110.95 468.78 111.28C468.87 111.49 469.29 111.52 469.5 111.55C470.43 111.61 470.73 111.52 471.66 111.52L478.53 111.55C478.95 111.58 479.28 111.58 479.4 111.16C479.43 110.74 479.43 108.97 479.46 108.64C479.49 107.92 479.7 107.5 480.45 107.35C481.23 107.17 482.34 107.23 482.79 107.68C483.42 108.34 483.39 109.12 483.39 110.68C483.33 112.51 483.48 116.92 483.3 118.75C483.21 119.92 482.55 120.67 481.41 120.85C480.81 120.94 480 120.91 479.4 120.91C478.11 120.94 476.88 120.94 475.68 120.94L475.74 125.14C477.78 125.14 479.19 125.08 481.14 125.14C481.86 125.17 482.55 125.08 483.18 125.14ZM468.78 117.13C468.93 117.73 469.8 117.73 470.46 117.76C470.76 117.73 476.85 117.67 477.21 117.73C477.54 117.76 477.87 117.73 478.2 117.76C478.62 117.79 479.34 117.94 479.34 117.28C479.34 116.98 479.4 115.75 479.25 115.18C479.13 114.7 478.86 114.73 478.47 114.76C478.29 114.76 477.72 114.79 477.54 114.76H470.7C469.95 114.73 468.84 114.58 468.75 115.51C468.75 115.72 468.75 116.98 468.78 117.13ZM504.616 126.67C504.616 127.66 504.586 128.08 504.286 129.01C504.076 129.61 503.626 130.06 502.756 130.06C502.516 130.06 502.036 130 501.826 129.85C501.016 129.34 500.986 127.48 500.986 126.88V118.87L499.036 118.78C498.346 118.75 497.386 118.42 497.296 117.22C497.236 116.5 497.296 115.54 498.196 115.12C498.556 114.94 499.186 114.91 499.576 114.94H500.986V109.48C500.986 108.97 500.956 108.4 501.076 107.89C501.136 107.71 501.196 107.53 501.286 107.35C501.526 106.96 501.766 106.75 502.216 106.6C502.396 106.54 502.666 106.51 502.846 106.51C503.506 106.51 504.016 106.84 504.346 107.41C504.646 107.92 504.616 109.36 504.616 109.51C504.646 124.09 504.616 126.67 504.616 126.67ZM509.386 129.22C509.266 129.49 509.086 129.7 508.816 129.88C508.396 130.15 508.006 130.21 507.496 130.09C506.296 129.82 506.176 128.5 506.176 127.48V109.81C506.146 108.91 506.176 107.41 506.716 106.87C507.166 106.48 507.526 106.42 508.066 106.42C508.756 106.42 509.176 106.84 509.416 107.47C509.776 108.31 509.746 109.21 509.776 110.11V110.26C509.866 113.29 509.776 116.05 509.776 118.87V126.37C509.776 127.42 509.776 128.38 509.386 129.22ZM493.786 123.46C493.726 123.52 492.196 125.62 492.136 125.68C491.836 126.1 491.536 126.55 491.206 126.94C491.146 127.03 491.056 127.15 490.996 127.24C490.456 127.9 489.886 128.65 489.076 128.95C488.896 129.04 488.746 129.07 488.536 129.07C488.146 129.07 487.906 128.86 487.606 128.53C487.306 128.2 487.126 127.75 487.126 127.27C487.156 126.55 487.546 125.89 487.846 125.35C488.116 125.14 491.236 119.56 491.656 119.05C491.896 118.6 492.046 118.21 492.076 117.79C492.136 117.16 492.136 116.56 492.136 115.84V110.53C492.136 110.14 492.136 109.78 492.166 109.39C492.166 108.97 492.256 108.49 492.346 108.13C492.436 107.89 492.586 107.59 492.706 107.35C492.886 107.05 493.276 106.9 493.666 106.81L493.726 106.78C494.026 106.69 494.206 106.72 494.506 106.84C494.656 106.9 494.806 106.99 494.926 107.11C495.076 107.26 495.196 107.56 495.316 107.89C495.466 108.28 495.586 108.79 495.616 109.36C495.766 111.04 495.796 113.35 495.796 115.03C495.826 116.05 495.826 117.1 495.886 118.09C495.916 118.96 496.396 119.71 496.786 120.46C497.176 121.33 497.626 122.29 498.076 123.13C498.196 123.4 499.126 125.14 499.216 125.35L499.276 125.59L499.366 125.77C499.486 125.98 499.576 126.19 499.636 126.46C499.756 126.88 499.846 127.42 499.576 127.99C499.306 128.59 498.886 128.95 498.376 128.98H498.346C497.716 128.98 497.266 128.41 496.726 127.75C496.186 127.12 495.616 126.16 495.226 125.59C494.326 124.06 493.816 123.52 493.786 123.46ZM532.428 125.17C532.548 125.2 532.668 125.17 532.788 125.17C533.448 125.23 534.048 125.38 534.588 125.89C534.858 126.13 535.008 126.49 535.008 126.91C535.008 127.33 534.858 127.93 534.618 128.2C534.018 128.83 532.518 128.77 532.458 128.77H515.988C515.808 128.77 515.268 128.8 515.088 128.8C514.218 128.83 513.168 128.89 512.478 128.32C512.088 127.96 511.848 127.51 511.848 127.03C511.848 126.43 512.238 125.68 512.838 125.44C513.648 125.14 514.518 125.2 515.388 125.17H515.538C516.138 125.17 517.068 125.14 517.698 125.14C517.668 124.9 517.668 124.72 517.668 124.72V121.93C517.668 121.93 517.668 121 518.388 120.4C516.918 120.04 515.568 119.32 514.608 117.94C513.708 116.71 513.468 115.27 513.468 113.77C513.468 110.68 515.268 108.52 518.118 107.59C520.008 106.96 522.048 106.81 524.028 106.96C525.648 107.08 527.358 107.17 528.858 107.86C529.548 108.19 530.178 108.61 530.748 109.21C532.158 110.71 532.608 112.51 532.458 114.49C532.218 117.61 530.448 119.41 528.078 120.25C528.498 120.49 528.828 120.88 528.858 121.45C528.888 122.08 528.918 123.55 528.918 125.17H530.118C530.838 125.2 531.798 125.11 532.428 125.17ZM528.528 114.94C528.588 114.7 528.618 114.46 528.588 114.19C528.528 112.12 527.148 111.16 525.258 110.92C523.008 110.65 518.088 110.08 517.608 113.29C517.338 115.21 518.118 116.89 520.968 117.16C522.378 117.31 523.848 117.52 525.258 117.25C526.638 116.98 528.168 116.41 528.528 114.94ZM524.478 120.79C523.428 120.79 522.288 120.82 521.118 120.76C521.238 120.97 521.328 121.18 521.358 121.45C521.388 122.08 521.418 123.55 521.418 125.17H524.598H525.198C525.168 124.9 525.168 124.72 525.168 124.72V121.93C525.168 121.93 525.168 121.3 525.558 120.76C525.198 120.79 524.838 120.79 524.478 120.79Z" fill="black"/>
<path d="M15.272 114.856C14.36 114.952 8.168 114.808 7.112 114.856H7.064C4.808 114.856 2.36 114.904 1.352 113.416C0.248 111.736 0.488 107.848 0.488 107.704C0.488 107.704 0.488 106.12 0.536 103.96C0.584 101.656 0.584 99.208 0.584 99.208C0.584 98.824 0.584 96.952 1.064 96.184C1.64 95.272 2.168 94.936 3.128 94.744C3.848 94.648 5.864 94.552 5.864 94.552H16.712C18.104 94.552 19.832 94.696 21.032 95.464C22.904 96.664 22.424 99.208 22.424 101.032C22.424 102.04 22.376 103.048 22.424 104.056V106.696C22.376 107.032 22.424 107.416 22.424 107.8C22.328 108.616 22.424 109.432 22.424 110.296C22.424 111.64 22.088 113.8 20.552 114.376C18.872 115.048 17 114.856 15.272 114.856ZM3.896 125.368C3.896 119.56 11.096 117.976 19.928 117.976C28.76 117.976 35.96 118.888 35.96 125.368C35.96 131.752 28.76 132.76 19.928 132.76C11.096 132.76 3.896 131.752 3.896 125.368ZM29.672 112.12H28.568C27.656 112.12 25.736 111.928 25.112 110.824C24.776 110.296 24.728 108.856 24.872 108.376C25.016 107.656 25.64 107.08 26.408 106.792C26.936 106.648 29.72 106.648 29.72 106.648C29.72 106.648 29.672 104.776 29.672 104.152H28.568C27.656 104.152 25.736 103.96 25.112 102.856C24.104 101.176 25.208 98.872 27.224 98.776C27.416 98.776 29.768 98.872 29.816 98.632C30.104 97.384 29.48 95.416 30.776 94.456C31.304 94.072 32.072 93.976 32.696 93.928C33.464 93.832 34.232 94.168 34.76 94.744C34.952 94.984 35.144 95.272 35.24 95.56C35.48 96.328 35.384 97.192 35.384 98.008V111.784C35.384 111.832 35.528 115.576 34.28 116.344C33.848 116.584 33.08 116.728 32.6 116.728C32.024 116.728 31.496 116.536 31.016 116.2C30.68 115.96 30.392 115.672 30.2 115.288C29.816 114.568 29.72 112.792 29.672 112.12ZM15.032 100.648L9.128 100.552C8.552 100.552 8.072 100.552 7.688 100.648C7.16 100.696 6.92 100.84 6.584 101.224C6.344 101.56 6.344 102.376 6.344 102.52V104.536C6.296 105.448 6.296 106.36 6.296 106.36C6.296 106.408 6.2 108.04 6.776 108.76C7.304 109.384 8.6 109.384 9.752 109.384H9.8C11.48 109.336 12.248 109.384 13.976 109.384C14.504 109.384 15.032 109.432 15.56 109.336C16.088 109.288 16.232 109 16.328 108.616C16.376 108.424 16.424 108.232 16.424 107.992C16.568 107.32 16.616 106.648 16.616 105.928C16.616 104.92 16.664 103.864 16.616 102.856C16.568 102.376 16.664 101.8 16.52 101.32C16.28 100.648 15.608 100.648 15.032 100.648ZM29.48 125.368C29.48 123.16 24.392 122.968 19.928 122.968C15.464 122.968 10.664 123.16 10.664 125.368C10.664 127.336 15.464 127.72 19.928 127.72C24.392 127.72 29.48 127.96 29.48 125.368ZM40.6055 125.032C40.6055 119.224 47.8055 117.544 56.6375 117.544C65.4695 117.544 72.6695 118.552 72.6695 125.032C72.6695 131.416 65.4695 132.52 56.6375 132.52C47.8055 132.52 40.6055 131.416 40.6055 125.032ZM55.5815 108.76C56.6855 108.76 57.8375 108.808 59.0855 109.336C60.3335 109.864 60.5255 111.256 60.4775 111.928C60.2375 114.424 57.2135 114.952 54.3815 114.952H46.1735C43.8695 115 41.3255 115 40.3175 113.464C39.2135 111.784 39.4535 107.992 39.4535 107.8L39.5495 99.16C39.5495 98.776 39.5495 96.904 40.0295 96.088C40.6055 95.176 41.1335 94.792 42.1415 94.648C42.8615 94.504 43.7735 94.456 44.9255 94.456C45.5495 94.456 53.2295 94.552 53.8535 94.648C55.5335 94.648 57.5495 94.6 58.5575 96.232C59.2775 97.336 59.2295 98.728 58.4615 99.784C57.7415 100.84 56.5895 100.936 55.5335 100.936L46.1255 100.888C46.2695 100.888 46.0775 102.52 46.0295 104.584C46.0295 106.936 46.1255 108.52 46.2215 108.616C47.9015 108.76 53.9015 108.808 55.5815 108.76ZM72.4295 108.664H71.3255V113.032C71.2775 113.704 71.1815 114.472 70.7975 115.192C70.6055 115.576 70.3175 115.912 69.9815 116.152C69.5015 116.488 68.7335 116.632 68.2055 116.632C67.7255 116.632 67.0535 116.536 66.6695 116.296C65.3735 115.528 65.1815 113.752 65.1815 113.704V97.384C65.1335 97.144 65.2295 95.656 65.6135 94.888C65.9015 94.264 66.8135 93.832 67.7255 93.736C68.8295 93.592 70.0295 93.88 70.5575 94.456C71.3255 95.464 71.3255 96.376 71.3255 98.104V103.336C71.8535 103.384 74.4455 103.432 75.0215 103.576C76.2695 103.816 76.7015 104.344 76.8455 105.016C77.0375 105.688 77.0855 106.792 76.7015 107.416C75.9335 108.664 74.3015 108.616 72.4295 108.664ZM66.1895 125.032C66.1895 122.824 61.1015 122.536 56.6375 122.536C52.1735 122.536 47.3735 122.824 47.3735 125.032C47.3735 127 52.1735 127.48 56.6375 127.48C61.1015 127.48 66.1895 127.624 66.1895 125.032Z" fill="#56C1E1"/>
</svg>
