<svg width="835" height="182" viewBox="0 0 835 182" fill="none" xmlns="http://www.w3.org/2000/svg">
<path d="M12.736 37.24V25.016C12.736 23.736 12.736 22.584 12.992 21.304C13.376 18.936 14.144 17.272 17.088 17.144C17.344 17.144 18.56 17.272 18.944 17.4C20.992 18.296 21.184 21.048 21.312 22.712C21.504 24.632 21.312 26.168 21.312 28.088C21.504 30.392 21.312 32.696 21.312 35.064C21.312 36.6 21.504 38.264 21.632 39.8C21.76 41.976 22.976 43.896 24.128 45.688C25.28 47.928 27.2 50.744 28.352 52.792C28.992 53.944 29.76 55.096 30.272 56.248C30.912 57.656 31.552 59.448 30.912 60.92C30.528 61.816 29.376 62.584 28.352 62.712C27.072 62.84 26.304 62.456 25.408 61.56C23.744 59.896 21.568 57.272 20.096 55.352C19.84 54.968 16.896 51 16.768 51C16.64 51.128 16.512 51.384 16.256 51.64C13.568 54.584 11.648 57.912 8.832 60.792C8.192 61.432 7.36 61.944 6.464 62.2C6.08 62.328 5.696 62.456 5.184 62.456C4.288 62.456 3.392 62.072 2.752 61.304C1.984 60.664 1.6 59.768 1.6 58.68C1.728 57.912 1.856 57.272 2.24 56.632C4.16 52.92 6.592 49.464 9.088 45.944C9.728 44.92 10.176 43.896 10.816 43C11.072 42.616 11.456 42.104 11.712 41.592C11.968 41.208 12.224 40.824 12.352 40.44C12.48 40.056 12.608 39.672 12.608 39.288C12.736 38.52 12.736 37.88 12.736 37.24ZM28.352 35.256C28.608 35 28.864 34.616 29.12 34.488C29.632 34.104 30.144 33.72 30.784 33.592C31.68 33.464 35.904 33.464 38.4 33.592L38.272 27.192C38.144 26.168 38.144 25.4 38.272 24.376V21.432C38.272 20.792 38.4 20.088 38.4 19.448C38.528 18.808 38.656 18.296 38.912 17.656C39.04 17.144 39.296 16.632 39.68 16.248C40.96 15.096 43.52 14.84 44.928 16.248C46.464 17.784 46.208 20.92 46.208 23.096V62.008C46.208 62.392 46.208 62.776 46.08 63.288C46.08 63.8 45.952 64.312 45.696 64.824C45.568 65.336 45.312 65.592 44.928 65.976C43.776 67 40.96 67.256 39.808 65.976C38.272 64.312 38.272 62.52 38.272 60.408V52.728C38.272 51.96 38.272 51.064 38.144 50.168L38.272 42.04C37.76 41.912 34.496 42.04 33.984 41.912C33.344 41.912 32.832 41.912 32.192 41.784C31.552 41.784 30.912 41.656 30.272 41.272C29.632 41.016 29.12 40.632 28.608 40.248C28.224 39.736 27.84 39.224 27.712 38.584C27.584 37.944 27.584 37.176 27.712 36.408C27.84 36.024 27.968 35.64 28.352 35.256ZM95.547 62.008C96.891 62.136 98.043 62.584 98.427 63.928C98.939 65.464 98.363 66.552 96.763 67.192C95.739 67.576 94.651 67.64 93.755 67.64H63.995C62.267 67.64 60.411 67.576 58.555 67.512C56.763 67.448 55.483 66.104 55.291 64.184L55.099 59.704C55.035 58.808 54.971 57.272 55.739 56.44C56.891 55.16 59.195 54.968 61.051 54.968C63.483 54.968 71.611 55.032 91.131 55.032V52.728H59.643C58.811 52.728 58.107 52.728 57.467 52.6C56.699 52.408 56.059 52.408 55.675 51.704C55.099 50.808 54.907 49.976 55.227 48.952C55.675 47.608 57.595 47.416 58.555 47.288C59.195 47.16 59.835 47.096 60.539 47.096C62.907 47.096 65.979 47.16 73.019 47.16C73.019 45.944 73.147 44.856 73.147 43.512C69.243 43.512 67.387 43.512 63.803 43.384C62.331 43.32 57.275 43.128 56.059 43.128C54.715 43 54.075 43 52.987 41.976C52.411 41.464 52.155 40.952 52.155 40.056C52.155 39.224 52.475 38.328 52.987 37.816C54.267 36.472 57.403 36.6 57.531 36.6H94.139C95.419 36.6 96.699 36.6 97.915 36.664C99.067 36.728 100.347 36.856 101.243 37.688C102.139 38.392 102.139 39.288 102.139 40.312C102.139 41.592 101.371 42.168 100.091 42.616C98.363 43.256 96.059 43.192 94.395 43.256C90.171 43.384 86.267 43.512 81.979 43.512C82.043 44.728 81.915 45.944 81.915 47.16H91.771C96.059 47.16 98.491 48.44 98.491 51.384V55.928C98.491 57.08 97.979 58.36 96.635 59.128C95.547 59.768 94.395 59.704 93.307 59.704H62.971V62.008H95.547ZM55.355 24.312C55.355 17.336 63.547 15.416 77.115 15.416C90.171 15.416 98.939 16.568 98.939 24.312C98.939 31.992 91.707 33.208 77.115 33.208C65.083 33.208 55.355 31.992 55.355 24.312ZM90.171 24.312C90.171 21.624 83.259 21.496 77.115 21.496C71.035 21.496 64.507 21.624 64.507 24.312C64.507 26.68 70.907 26.808 76.987 26.808C83.131 26.808 90.171 27.384 90.171 24.312ZM142.414 58.296C142.414 60.408 142.35 61.304 141.71 63.288C141.262 64.568 140.302 65.528 138.446 65.528C137.934 65.528 136.91 65.4 136.462 65.08C134.734 63.992 134.67 60.024 134.67 58.744V41.656L130.51 41.464C129.038 41.4 126.99 40.696 126.798 38.136C126.67 36.6 126.798 34.552 128.718 33.656C129.486 33.272 130.83 33.208 131.662 33.272H134.67V21.624C134.67 20.536 134.606 19.32 134.862 18.232C134.99 17.848 135.118 17.464 135.31 17.08C135.822 16.248 136.333 15.8 137.294 15.48C137.678 15.352 138.254 15.288 138.638 15.288C140.046 15.288 141.134 15.992 141.838 17.208C142.478 18.296 142.414 21.368 142.414 21.688C142.478 52.792 142.414 58.296 142.414 58.296ZM152.59 63.736C152.334 64.312 151.95 64.76 151.374 65.144C150.478 65.72 149.646 65.848 148.558 65.592C145.998 65.016 145.742 62.2 145.742 60.024V22.328C145.678 20.408 145.742 17.208 146.894 16.056C147.854 15.224 148.622 15.096 149.774 15.096C151.246 15.096 152.142 15.992 152.654 17.336C153.422 19.128 153.358 21.048 153.422 22.968V23.288C153.614 29.752 153.422 35.64 153.422 41.656V57.656C153.422 59.896 153.422 61.944 152.59 63.736ZM119.31 51.448C119.182 51.576 115.918 56.056 115.79 56.184C115.15 57.08 114.51 58.04 113.806 58.872C113.678 59.064 113.486 59.32 113.358 59.512C112.206 60.92 110.99 62.52 109.262 63.16C108.878 63.352 108.558 63.416 108.11 63.416C107.278 63.416 106.766 62.968 106.126 62.264C105.486 61.56 105.102 60.6 105.102 59.576C105.166 58.04 105.998 56.632 106.638 55.48C107.214 55.032 113.87 43.128 114.766 42.04C115.278 41.08 115.598 40.248 115.662 39.352C115.79 38.008 115.79 36.728 115.79 35.192V23.864C115.79 23.032 115.79 22.264 115.854 21.432C115.854 20.536 116.046 19.512 116.238 18.744C116.43 18.232 116.75 17.592 117.006 17.08C117.39 16.44 118.222 16.12 119.054 15.928L119.182 15.864C119.822 15.672 120.206 15.736 120.846 15.992C121.166 16.12 121.486 16.312 121.742 16.568C122.062 16.888 122.318 17.528 122.574 18.232C122.894 19.064 123.15 20.152 123.214 21.368C123.534 24.952 123.598 29.88 123.598 33.464C123.662 35.64 123.662 37.88 123.79 39.992C123.854 41.848 124.878 43.448 125.71 45.048C126.542 46.904 127.502 48.952 128.462 50.744C128.718 51.32 130.702 55.032 130.894 55.48L131.022 55.992L131.214 56.376C131.47 56.824 131.662 57.272 131.79 57.848C132.046 58.744 132.238 59.896 131.662 61.112C131.086 62.392 130.19 63.16 129.102 63.224H129.038C127.694 63.224 126.734 62.008 125.582 60.6C124.43 59.256 123.214 57.208 122.382 55.992C120.462 52.728 119.374 51.576 119.31 51.448ZM173.203 57.72C173.203 53.88 173.139 52.216 173.139 31.48C173.139 30.072 173.203 28.728 173.01 27.32C172.755 25.784 172.435 25.528 170.899 25.528C167.187 25.464 165.267 25.528 161.939 25.528C158.931 25.528 157.459 23.864 157.459 21.368C157.459 17.592 162.003 17.4 165.843 17.4H174.355C174.803 17.4 175.251 17.464 175.699 17.464C176.787 17.528 177.683 17.72 178.707 18.104C179.347 18.36 180.115 18.808 180.499 19.384C181.331 20.6 181.267 21.496 181.395 22.904C181.459 24.248 181.523 26.872 181.523 28.216C182.163 28.152 182.803 28.152 183.315 28.152H188.179V21.688C188.179 20.6 188.115 19.384 188.371 18.296C188.499 17.912 188.627 17.528 188.819 17.144C189.331 16.312 189.715 15.864 190.675 15.544C191.059 15.416 191.443 15.352 191.826 15.352C193.235 15.352 194.323 16.056 195.027 17.272C195.667 18.36 195.667 21.432 195.667 21.752C195.731 52.856 195.603 58.936 195.603 58.936C195.603 61.048 195.539 61.944 194.899 63.928C194.451 65.208 193.491 66.168 191.635 66.168C191.123 66.168 190.419 66.04 189.971 65.72C188.243 64.632 188.179 60.664 188.179 59.384V51.832L182.163 51.704C181.971 51.704 181.715 51.704 181.523 51.64C181.523 51.832 181.651 55.8 181.523 58.552C181.267 61.624 179.539 63.672 176.595 63.672C173.458 63.672 173.203 60.152 173.203 57.72ZM206.931 23.032C207.123 29.432 206.931 36.28 206.931 42.296V58.296C206.931 60.536 206.931 62.584 206.099 64.376C205.843 64.952 205.459 65.4 204.883 65.784C203.987 66.36 203.411 66.488 202.323 66.232C199.763 65.656 199.315 62.84 199.315 60.664V22.392C199.251 20.472 199.251 17.272 200.403 16.12C201.363 15.288 202.387 15.16 203.539 15.16C206.995 15.16 206.867 20.728 206.931 23.032ZM188.179 35.832L182.163 35.704C181.971 35.704 181.715 35.704 181.523 35.64V44.344C182.163 44.28 182.803 44.28 183.315 44.28H188.179V35.832ZM254.36 61.944C255.704 62.072 256.856 62.52 257.24 63.864C257.752 65.4 257.176 66.488 255.576 67.128C254.552 67.512 253.464 67.576 252.568 67.576H222.808C221.08 67.576 219.224 67.512 217.368 67.448C215.576 67.384 214.296 66.04 214.104 64.12L213.911 59.64C213.848 58.744 213.784 57.208 214.552 56.376C215.704 55.096 218.008 54.904 219.864 54.904C222.296 54.904 230.424 54.968 249.944 54.968V52.664H218.456C217.624 52.664 216.92 52.664 216.28 52.536C215.512 52.344 214.872 52.344 214.488 51.64C213.911 50.744 213.72 49.912 214.04 48.888C214.488 47.544 216.408 47.352 217.368 47.224C218.008 47.096 218.648 47.032 219.352 47.032C221.72 47.032 224.792 47.096 231.832 47.096C231.896 46.2 231.96 45.304 231.96 44.344C230.296 44.28 216.344 44.216 214.872 43.96C213.528 43.832 212.888 44.088 211.799 43.064C211.224 42.552 210.968 41.976 210.968 41.08C210.968 40.248 211.288 39.416 211.799 38.904C213.08 37.56 216.216 37.816 216.344 37.816H252.952C254.232 37.816 255.512 37.816 256.728 37.88C257.88 37.944 259.16 37.944 260.056 38.776C260.952 39.48 260.952 40.312 260.952 41.336C260.952 42.616 260.184 43.32 258.904 43.768C257.176 44.408 254.936 44.152 253.208 44.216C248.984 44.344 245.08 44.344 240.792 44.344C240.792 45.304 240.792 46.2 240.728 47.096H250.584C254.872 47.096 257.304 48.376 257.304 51.32V55.864C257.304 57.016 256.792 58.296 255.448 59.064C254.36 59.704 253.208 59.64 252.12 59.64H221.784V61.944H254.36ZM216.984 33.464C215.064 31.992 214.936 28.28 214.936 28.088V17.976C214.936 16.376 215.704 14.456 217.56 14.2C219.352 13.944 221.784 14.712 222.168 16.76C222.296 17.528 222.04 18.616 222.36 19.384C222.552 19.832 223.448 19.64 223.832 19.704C225.816 19.832 227.8 19.64 229.848 19.64H247.512C247.832 19.64 248.088 19.64 248.408 19.704C249.304 19.768 249.56 19.64 250.392 19.512C250.584 18.872 250.52 18.168 250.52 17.464C250.584 15.928 251.096 14.52 252.632 14.2C255.64 13.624 257.56 15.16 257.496 18.232C257.432 22.072 257.688 26.168 257.368 30.072C257.24 31.224 256.856 31.864 256.216 32.888C254.936 34.808 251.416 34.488 249.432 34.552C246.68 34.68 245.912 34.552 243.16 34.552C239.064 34.552 236.76 34.616 232.6 34.552C231.128 34.552 229.656 34.68 228.248 34.68C226.2 34.616 224.216 34.616 222.168 34.68C220.376 34.68 218.456 34.552 216.984 33.464ZM222.36 27.704C222.744 29.176 225.24 28.792 226.328 28.792C228.696 28.792 231.064 28.856 233.368 28.856C236.568 28.92 237.976 28.856 241.176 28.792C242.007 28.728 242.904 28.792 243.8 28.792C244.44 28.792 245.144 28.664 245.784 28.728C246.488 28.856 247.192 28.792 247.896 28.792C248.792 28.92 250.392 29.24 250.392 27.832C250.392 27.192 250.648 26.808 250.136 26.232C249.496 25.528 248.664 25.592 247.832 25.656H238.232C237.656 25.656 229.016 25.592 228.503 25.592C226.904 25.528 222.168 24.632 222.232 27.128C222.232 27.512 222.296 27.448 222.36 27.704ZM304.426 59.768C306.09 60.472 307.434 61.24 308.778 62.328C310.314 63.608 309.802 66.488 307.626 66.936C304.81 67.512 301.802 66.616 299.306 65.528C297.706 64.76 289.514 60.152 287.722 59.448C287.082 59.832 279.274 64.248 278.698 64.568C277.29 65.336 275.754 66.104 274.218 66.616C272.682 67.192 270.89 67.576 269.29 67.192C268.202 66.936 267.05 66.232 266.858 65.208C266.73 64.696 266.858 64.184 266.986 63.736C267.306 62.392 268.65 61.624 269.93 60.984C271.402 60.152 272.938 59.448 274.474 58.68C276.074 57.912 277.61 57.144 279.146 56.312C279.338 56.184 283.178 54.392 283.242 54.072H272.938C272.938 54.072 268.458 53.752 267.946 51.512C267.754 49.784 268.586 47.8 270.634 47.608H284.074V46.52C284.074 44.6 286.314 43.448 288.298 43.448C291.306 43.448 292.074 45.432 292.074 47.16V47.608H301.162C304.17 47.608 307.626 47.48 308.074 50.488C307.754 54.136 304.426 54.2 301.61 54.072H293.098C293.738 54.456 303.594 59.64 304.426 59.768ZM306.794 35.32C308.202 35.384 309.802 35.64 311.018 36.6C311.594 37.048 311.914 37.688 311.914 38.456C311.914 39.288 311.594 40.504 311.082 40.952C309.738 42.232 306.41 42.104 306.282 42.104L270.314 42.232C268.394 42.232 266.026 42.36 264.618 41.208C263.658 40.504 263.146 39.672 263.146 38.712C263.146 37.56 264.042 36.216 265.386 35.768C267.178 35.192 269.098 35.384 271.018 35.32C275.178 35.192 280.298 35.32 284.586 35.32V30.968C284.586 28.408 287.274 27.576 289.834 27.832C292.138 28.088 293.418 28.728 293.482 30.392C293.61 31.608 293.674 33.848 293.674 35.32C298.41 35.32 303.146 35.128 306.794 35.32ZM298.154 23.928C298.09 23.416 297.898 22.264 296.106 22.136C294.954 22.2 291.178 22.072 289.77 22.136C288.81 22.136 287.146 22.008 286.314 21.496C285.098 20.664 285.354 19.96 285.354 18.552C285.354 17.72 285.546 17.528 285.866 16.76C286.378 16.312 287.402 15.48 288.746 15.416L300.586 15.48C301.738 15.544 303.018 15.608 304.042 15.992C304.682 16.248 305.45 16.696 305.834 17.272C306.602 18.488 306.538 17.848 306.666 19.256C306.922 21.56 306.73 25.528 306.794 27.768C306.73 29.496 306.282 31.544 304.106 32.44C303.274 32.696 302.634 32.888 301.994 32.888C300.906 32.888 299.626 32.376 299.114 31.48C298.474 30.136 298.154 28.6 298.154 26.936C298.154 25.976 298.09 24.76 298.154 23.928ZM272.17 22.392C271.594 22.328 268.906 22.328 268.01 22.392C267.05 22.392 265.898 22.328 265.066 21.816C263.914 20.984 263.53 20.216 263.53 18.808C263.53 17.976 263.658 18.424 264.042 17.656C264.234 17.272 264.49 16.888 264.874 16.568C265.322 16.184 266.282 15.864 266.922 15.672C268.714 15.288 269.93 15.352 271.914 15.288H275.562C276.01 15.288 276.458 15.288 276.906 15.352C277.994 15.416 279.338 15.608 280.362 15.992C281.002 16.248 281.45 16.696 281.834 17.272C282.666 18.488 282.538 18.488 282.666 19.896C282.858 22.2 282.858 25.08 282.858 27.896C282.986 29.944 282.474 31.608 280.298 32.504C279.466 32.76 278.698 32.888 278.122 32.888C276.97 32.888 275.882 32.504 275.434 31.608C274.794 30.264 274.474 29.944 274.41 28.28L274.346 24.632C274.346 23.224 274.282 22.52 272.17 22.392ZM321.635 58.616C321.508 58.616 319.012 58.04 318.756 56.248C318.5 54.648 318.756 53.368 319.524 52.408C320.548 51.192 322.084 51.192 322.148 51.192H335.332C335.204 49.592 335.46 48.632 335.46 46.968C331.556 46.968 321.956 46.84 318.372 46.584C317.028 46.456 316.388 46.392 315.299 45.368C314.724 44.856 314.468 44.024 314.468 43.128C314.468 42.296 314.788 41.464 315.299 40.952C316.58 39.608 319.716 39.672 319.844 39.672H356.452C357.732 39.672 359.012 39.672 360.228 39.736C361.38 39.8 362.66 39.992 363.556 40.824C364.452 41.528 364.452 42.36 364.452 43.384C364.452 44.664 363.684 45.624 362.404 46.072C360.676 46.712 358.564 46.776 356.772 46.84C352.548 46.968 348.58 47.096 344.292 47.096C344.228 48.632 344.1 49.528 344.1 51.192H353.764C353.764 51.192 353.956 51.128 354.212 51.128C357.668 51.128 359.716 52.28 359.716 54.264V58.616C359.716 59.064 359.78 59.512 359.78 59.96C359.78 60.856 359.844 63.608 359.716 64.568C359.588 66.36 358.18 67.576 356.26 67.576C355.812 67.576 355.364 67.512 354.916 67.384C352.612 66.68 352.484 64.568 352.42 62.648C352.356 61.88 352.292 59.384 352.164 58.744C351.908 58.68 351.012 58.552 347.876 58.552C345.124 58.552 343.012 58.616 343.012 58.616H321.635ZM354.532 28.408C356.132 29.112 357.732 30.2 359.076 31.288C360.484 32.504 360.036 35.32 357.924 35.704C355.236 36.28 352.036 35.448 349.604 34.36C347.3 33.336 345.38 32.44 343.46 31.352C342.308 30.712 339.044 29.048 339.044 29.048C339.044 29.048 335.14 30.776 333.796 31.416C331.556 32.568 329.892 33.272 327.652 34.296C325.988 35 324.196 36.152 322.276 36.024C320.74 35.96 319.012 35.32 318.692 33.656C318.628 33.208 318.692 32.696 318.82 32.184C319.14 30.968 320.036 30.2 321.188 29.496L325.604 27.32C327.076 26.552 327.972 26.168 329.508 25.464C330.212 25.08 331.108 24.632 332.003 24.184H327.972C326.628 24.184 325.796 24.248 324.516 24.12C323.556 23.992 322.34 24.12 321.444 23.672C320.932 23.416 320.548 22.968 320.292 22.456C319.78 21.624 319.652 20.408 320.1 19.512C320.74 18.168 322.532 17.464 324.132 17.464H325.604C326.948 17.528 327.268 17.464 328.612 17.464H334.308V15.544C334.308 12.984 336.996 12.152 339.556 12.408C341.86 12.664 343.14 13.304 343.204 14.968C343.268 15.544 343.332 16.504 343.332 17.464H350.756C353.572 17.464 358.372 16.76 359.268 20.408C360.292 24.568 353.38 24.44 350.692 24.312C349.347 24.248 347.748 24.248 346.404 24.248C346.66 24.376 346.979 24.568 347.236 24.696C348.068 25.144 348.9 25.464 349.732 25.912C351.332 26.68 352.932 27.576 354.532 28.408ZM404.726 58.296C404.726 60.408 404.662 61.304 404.022 63.288C403.574 64.568 402.614 65.528 400.758 65.528C400.246 65.528 399.35 65.4 398.902 65.08C397.174 63.992 397.11 60.024 397.11 58.744V42.616L392.246 42.552C390.774 42.488 388.726 41.912 388.534 39.352C388.406 37.816 388.534 36.216 390.454 35.32C391.222 34.936 392.566 34.616 393.398 34.616H397.11V21.688C397.11 20.6 397.046 19.384 397.302 18.296C397.43 17.912 397.558 17.528 397.75 17.144C398.262 16.312 398.646 15.864 399.606 15.544C399.99 15.416 400.566 15.352 400.95 15.352C402.358 15.352 403.446 16.056 404.15 17.272C404.79 18.36 404.726 21.432 404.726 21.752C404.79 52.856 404.726 58.296 404.726 58.296ZM415.03 63.736C414.774 64.312 414.39 64.76 413.814 65.144C412.918 65.72 412.278 65.848 411.19 65.592C408.63 65.016 408.118 62.2 408.118 60.024V22.392C408.054 20.472 408.118 17.272 409.27 16.12C410.23 15.288 410.678 15.16 411.83 15.16C413.302 15.16 414.582 16.056 415.094 17.4C415.862 19.192 415.798 21.112 415.862 23.032V23.352C416.054 29.816 415.862 35.64 415.862 41.656V57.656C415.862 59.896 415.862 61.944 415.03 63.736ZM376.438 25.784C373.75 25.784 370.678 25.72 370.166 25.656C368.886 25.336 367.926 24.312 367.414 22.904C367.094 21.624 367.222 20.664 367.862 19.704C368.502 18.744 369.462 18.04 370.422 17.784C370.934 17.72 375.542 17.72 375.926 17.72H387.574C390.454 17.72 392.182 18.04 393.398 20.472C393.974 21.624 394.102 22.456 393.718 23.544C393.206 24.632 392.182 25.464 390.966 25.656C389.302 25.912 388.022 25.976 384.438 25.784C384.502 26.488 384.438 41.144 384.502 41.656C385.014 42.36 385.782 44.472 386.358 45.304C387.062 46.264 387.766 47.736 388.598 49.08C389.11 49.848 389.558 50.616 389.942 51.256C391.286 53.496 393.014 55.608 393.59 58.232C393.782 59.448 393.782 61.048 392.95 61.944C392.374 62.52 391.67 62.84 390.838 62.84C389.238 62.84 387.638 61.56 386.742 60.408C385.398 58.68 384.182 56.824 383.094 55.032C382.262 53.752 381.046 51.896 380.214 50.744C379.83 51.448 379.382 52.28 378.998 52.92C378.486 53.688 377.718 54.456 377.206 55.224C376.31 56.952 375.35 58.744 374.006 60.28C372.534 62.072 371.318 62.968 369.974 62.968C369.654 62.968 369.334 62.968 368.95 62.84C368.182 62.52 367.606 61.944 367.286 61.048C366.774 59.64 367.414 57.72 367.99 56.504C368.502 55.096 369.27 53.816 370.038 52.6C370.486 51.832 370.998 51.064 371.382 50.296C372.662 47.8 375.606 43 376.438 41.912V25.784ZM236.1 121.528C226.836 121.528 219.78 120.664 219.78 113.608C219.78 107.176 226.836 105.688 236.1 105.688C245.364 105.688 252.42 106.456 252.42 113.608C252.42 120.664 245.364 121.528 236.1 121.528ZM236.1 111.064C231.396 111.064 226.308 111.16 226.308 113.608C226.308 115.768 230.052 116.344 236.1 116.248C240.804 116.248 245.892 116.44 245.892 113.608C245.892 111.16 240.804 111.064 236.1 111.064ZM221.124 124.072H249.3C251.508 124.072 254.1 123.88 254.1 126.808C254.1 127.528 253.764 128.056 253.14 128.632C252.132 129.496 250.548 129.448 249.252 129.4C248.964 129.352 248.676 129.352 248.388 129.352H221.028C220.164 129.352 218.148 129.064 218.148 126.952C218.148 125.08 219.684 124.072 221.124 124.072ZM221.412 144.472C221.364 144.472 221.316 144.424 221.268 144.376C220.644 143.896 220.452 142.84 220.452 142.12C220.404 140.968 220.26 139.816 220.26 138.712C220.26 137.08 220.212 135.832 220.5 134.248C220.692 133.24 221.076 132.664 222.036 132.28C222.9 131.944 223.812 131.752 224.724 131.752H246.852C248.052 131.8 249.396 131.848 250.548 132.376C251.796 132.904 252.132 133.864 252.228 135.112C252.324 137.32 252.42 140.872 251.796 143.176C251.604 143.896 251.46 144.472 250.692 144.712C250.02 144.952 249.204 145 248.532 145L224.004 144.904C223.188 144.856 222.132 144.952 221.412 144.472ZM225.972 139C225.972 139.288 225.972 139.672 226.164 139.816C226.404 140.056 227.508 139.912 227.508 139.912H242.052C242.052 139.912 244.307 140.104 245.508 139.96C246.132 139.912 246.18 139.576 246.228 139C246.276 138.472 246.372 137.704 245.988 137.224C245.556 136.696 244.596 136.792 243.972 136.84H231.108C229.716 136.744 228.372 136.792 226.98 136.84C226.452 136.84 226.212 136.744 226.068 137.32C225.972 137.752 225.972 138.184 225.972 138.568C226.02 138.664 225.972 138.808 225.972 139ZM261.062 131.08H283.911C284.967 131.032 285.687 131.08 286.263 131.32C286.695 131.56 287.271 131.752 287.559 132.136C287.847 132.472 288.087 132.76 288.135 133.144C288.231 133.48 288.375 133.864 288.375 134.344V140.968C288.375 144.472 287.655 145.048 286.551 145.48C285.015 146.008 283.047 145.912 282.279 144.28C281.895 143.32 282.039 140.536 282.039 138.568C282.039 137.272 280.887 137.08 279.734 137.08H273.111C269.991 137.08 266.919 137.176 263.751 137.08C262.023 137.08 260.055 137.224 258.327 136.744C256.887 136.216 256.263 134.632 256.646 133.192C257.367 131.08 259.047 131.08 261.062 131.08ZM256.646 126.712C256.263 126.472 256.023 126.088 255.831 125.656C255.543 124.936 255.543 124.312 255.639 123.688C255.831 122.968 256.071 122.392 256.455 121.768C256.887 121.336 257.319 120.664 257.751 120.184C258.327 119.656 258.711 119.272 259.047 118.792L260.727 116.824C261.207 116.056 261.783 115.384 262.359 114.664C262.551 114.376 262.791 114.184 262.983 113.848C263.271 113.512 263.463 113.224 263.799 112.936C264.039 112.552 264.183 112.312 264.423 111.976C264.471 111.688 264.567 111.304 264.567 111.016C264.711 110.392 264.711 109.864 264.711 109.384C264.759 108.856 264.855 108.376 265.047 107.848C265.191 107.416 265.431 107.128 265.767 106.84C266.199 106.648 266.727 106.408 267.447 106.408C267.927 106.408 268.455 106.504 268.887 106.648C269.463 106.792 269.703 107.08 269.991 107.56C270.183 108.184 270.279 108.808 270.183 109.528C270.087 110.152 270.183 110.824 270.375 111.544C270.519 111.976 270.855 112.504 271.191 112.84C273.015 114.76 274.551 117.112 276.183 119.272C276.615 119.944 277.095 120.664 277.623 121.384C278.007 122.104 278.391 122.92 278.535 123.688C278.679 124.36 278.583 125.08 278.295 125.512C278.007 126.088 277.623 126.376 277.095 126.616C276.615 126.76 276.087 126.904 275.463 126.76C274.887 126.712 274.311 126.472 273.879 126.088C272.583 124.84 271.527 123.544 270.615 122.2L267.591 118.312C267.015 118.936 266.535 119.368 266.007 119.896C265.623 120.328 265.143 120.904 264.567 121.384C264.087 122.008 263.559 122.488 263.175 122.968C262.695 123.544 262.359 124.024 262.023 124.36C261.639 124.696 261.398 125.08 261.351 125.128C261.062 125.512 260.583 125.8 260.199 126.184C259.815 126.472 259.335 126.712 258.759 126.76C258.519 126.904 258.039 126.904 257.751 126.904C257.367 126.904 257.031 126.76 256.646 126.712ZM289.143 124.84C288.999 126.328 288.135 127.912 286.359 127.912C283.623 127.912 283.431 125.224 283.383 122.968V111.16C283.383 109.816 283.239 108.28 284.007 106.984C284.727 105.832 286.407 105.688 287.559 106.12C289.143 106.984 289.143 108.952 289.143 110.392C289.287 115.24 289.143 119.944 289.143 124.84ZM295.332 135.88C295.332 135.112 295.236 134.008 295.476 133.24C295.572 132.472 295.956 131.848 296.724 131.56C298.404 130.888 299.892 131.08 301.668 131.08H320.724C322.02 131.08 323.604 130.888 324.756 131.656C325.572 132.28 325.764 133.816 325.764 134.824C325.86 136.072 325.86 137.464 325.86 138.856C325.764 140.248 325.956 141.88 325.476 143.272C325.188 144.28 324.18 144.568 323.22 144.664H322.116L298.788 144.568C298.308 144.568 297.732 144.664 297.3 144.568C296.916 144.472 296.532 144.28 296.244 144.088C295.86 143.848 295.572 143.464 295.476 142.888C295.332 142.504 295.332 142.024 295.332 141.688V135.88ZM293.316 112.12C292.884 111.928 292.5 111.544 292.404 111.112C292.02 110.152 292.02 109.144 292.692 108.376C293.412 107.608 293.988 107.416 295.092 107.416H309.924C311.22 107.416 312.084 107.416 312.9 107.608C314.532 107.896 315.54 108.664 315.348 110.536C315.252 110.824 315.156 111.112 315.06 111.448C314.532 112.408 313.668 112.504 312.708 112.504C312.18 112.6 311.988 112.6 311.508 112.6C311.124 112.6 310.596 112.504 310.212 112.504H307.092C307.092 113.512 306.996 114.28 306.996 114.856C306.996 115.48 306.996 116.056 307.092 116.536V117.352C307.188 117.544 307.476 117.832 307.86 118.12C308.34 118.504 308.628 118.792 308.964 119.08C309.252 119.32 309.636 119.608 309.924 119.896C310.212 120.184 310.596 120.472 310.932 120.856C311.124 121.048 311.412 121.288 311.508 121.48L312.084 122.056C312.708 122.632 313.284 123.352 313.86 124.024C314.436 124.696 314.868 125.416 315.06 126.088C315.156 126.376 315.252 126.664 315.156 127.096C315.06 127.384 314.868 127.672 314.532 127.96C313.956 128.248 313.38 128.44 312.804 128.44C312.084 128.44 311.508 128.248 310.836 127.96C310.212 127.768 309.732 127.48 309.348 127.192C308.772 126.664 308.148 126.28 307.668 125.8C307.188 125.32 306.66 124.792 306.18 124.216C305.796 123.928 305.412 123.544 305.028 123.016C304.5 122.632 304.116 122.248 303.636 121.864L301.764 123.736C301.476 123.928 301.284 124.216 301.092 124.408C300.66 124.792 300.276 125.32 299.796 125.8C299.412 126.184 298.932 126.664 298.308 127.096C297.06 127.96 295.86 128.44 294.66 128.44H294.276C294.18 128.44 294.084 128.44 293.892 128.344C293.22 128.248 292.692 127.96 292.5 127.576C292.308 127.192 292.212 126.76 292.308 126.376C292.404 125.896 292.5 125.512 292.692 125.224C292.884 124.792 293.22 124.504 293.604 124.12C293.892 123.832 294.18 123.448 294.468 123.16C294.756 122.824 295.284 122.344 295.86 121.768C296.436 121.192 297.06 120.568 297.732 119.992C298.308 119.416 298.932 118.792 299.508 118.312L300.468 117.352V112.504H297.444C297.06 112.504 296.628 112.6 296.052 112.6C295.572 112.6 295.092 112.6 294.564 112.504C294.084 112.408 293.7 112.312 293.316 112.12ZM313.86 115.576C314.148 115.288 314.532 115.144 315.252 114.952C315.348 114.952 315.636 114.856 316.116 114.856H317.7C318.276 114.856 318.9 114.76 319.38 114.76H320.244V109.672C320.244 109.384 320.34 108.952 320.436 108.664C320.436 108.376 320.58 108.184 320.676 107.896C320.676 107.704 320.868 107.512 321.06 107.176C321.252 106.888 321.636 106.696 322.116 106.504C322.548 106.408 323.028 106.408 323.604 106.408C324.084 106.504 324.516 106.696 324.9 106.888C325.284 107.08 325.476 107.272 325.668 107.704C325.86 107.992 325.956 108.472 326.052 109.048V119.32C326.052 121.576 326.1 123.928 325.908 126.184C325.908 126.376 325.86 127.048 325.764 127.336C325.668 127.576 325.572 127.864 325.38 128.152C325.188 128.44 324.996 128.632 324.612 128.824C324.18 129.112 323.7 129.208 323.22 129.208C322.644 129.208 322.116 129.016 321.636 128.728C321.252 128.44 320.964 128.152 320.868 127.768C320.676 127.432 320.436 127.048 320.436 126.76C320.34 126.376 320.34 126.088 320.244 125.704V120.088H317.7C316.836 120.088 316.02 119.992 315.252 119.992C314.532 119.896 313.956 119.608 313.572 118.888C313.38 118.6 313.284 118.216 313.284 117.736C313.284 117.256 313.38 116.728 313.38 116.44C313.476 116.056 313.668 115.768 313.86 115.576ZM303.732 136.408C302.724 136.504 300.756 136.216 300.66 137.464C300.66 137.848 300.66 138.28 300.756 138.664V139.048C300.756 139.24 300.852 139.336 300.948 139.336C300.948 139.432 301.044 139.432 301.236 139.432C301.38 139.528 301.572 139.528 301.668 139.528H316.02C316.5 139.528 316.884 139.432 317.316 139.528H318.372C319.284 139.528 320.148 139.528 320.244 138.568V137.752C320.244 137.368 320.148 137.08 319.956 136.888C319.668 136.6 319.476 136.408 319.092 136.408H303.732Z" fill="#FF6B97"/>
<path d="M450.619 15.096C451.707 15.096 452.731 15.224 453.755 15.352C455.355 15.608 456.827 16.376 458.043 17.592C462.203 21.944 463.099 29.432 463.355 35.512C463.547 39.416 463.483 43.384 463.035 47.224C462.587 51.192 462.011 55.48 459.899 58.744C458.107 61.496 455.291 63.288 452.411 63.864C449.787 64.376 446.907 64.056 444.475 62.648C442.171 61.304 440.635 59.192 439.483 56.504C438.651 54.52 438.139 52.344 438.011 50.168C437.691 46.584 437.563 43 437.563 39.416C437.563 36.984 437.563 34.616 437.819 32.248C437.947 30.328 438.267 28.344 438.587 26.488C438.907 24.952 439.099 23.608 439.739 22.2C440.379 20.792 441.211 19.448 442.299 18.424C444.155 16.568 446.587 15.544 449.019 15.224C449.531 15.16 450.107 15.16 450.619 15.096ZM473.595 43.064C472.443 42.872 470.011 42.872 468.859 42.744C465.915 42.552 464.507 40.376 465.403 37.112C465.595 36.472 466.235 35.576 466.747 35.128C467.259 34.744 467.835 34.424 468.539 34.296C469.883 34.104 472.123 34.296 473.531 34.168H473.723V33.912C473.787 31.8 473.787 32.312 473.723 30.136C473.723 27.96 473.659 25.72 473.723 23.608V22.712C473.723 20.472 473.723 17.144 475.259 15.608C475.835 15.096 476.475 14.776 477.307 14.776H477.435C481.595 14.968 482.043 19.96 482.043 22.648V61.048C482.043 61.176 482.171 64.44 480.699 65.784C480.123 66.36 478.779 66.744 477.883 66.744C476.923 66.744 476.027 66.36 475.451 65.72C474.363 64.568 474.235 63.224 474.107 61.816C474.107 61.56 474.043 61.304 474.043 60.984C473.915 59.64 473.915 58.04 473.851 56.504C473.787 55.544 473.787 54.648 473.787 53.752V52.28C473.787 50.488 473.723 46.264 473.723 44.472C473.723 44.024 473.787 43.448 473.595 43.064ZM450.427 55.352C451.195 55.352 452.027 55.096 452.795 54.584C454.203 53.56 454.715 51.768 455.099 49.72C455.803 45.816 455.739 41.08 455.611 37.048C455.547 33.784 455.483 29.56 453.947 26.936C453.115 25.528 451.835 24.632 450.491 24.824C449.083 24.952 447.803 25.848 447.035 27.512L446.459 28.856C445.947 30.456 445.691 32.248 445.563 33.976C445.435 35.704 445.307 37.496 445.307 39.224C445.371 40.952 445.179 42.552 445.307 44.216C445.627 48.632 446.203 55.288 450.427 55.352ZM517.936 55.992C518.832 56.44 519.472 57.592 519.728 58.488C519.92 59.384 519.664 60.344 519.088 61.112C517.936 62.584 516.4 63.224 514.288 63.352C512.496 63.416 510.64 63.416 508.464 63.416C506.416 63.416 505.264 63.416 503.28 63.352H499.312C497.392 63.288 495.152 63.288 493.232 62.712C491.888 62.328 490.544 61.112 489.904 59.704C489.072 57.784 489.264 53.88 489.264 53.752V26.168C489.2 25.784 488.752 21.24 490.032 19.192C491.12 17.4 495.984 17.272 496.432 17.272H511.408C511.664 17.336 517.04 17.08 517.872 19.768C518.192 20.728 518.128 22.968 517.744 23.672C517.424 24.248 516.848 24.696 516.144 24.888C515.376 25.08 514.16 25.144 512.496 25.144C511.408 25.144 510.576 25.08 510.512 25.08H502.704C501.552 25.08 500.08 25.208 499.504 25.4C498.288 25.912 498.352 28.728 498.48 29.624V44.92C498.48 45.048 498.416 47.928 498.736 51.64C498.736 51.768 498.736 51.96 498.8 52.152C498.8 53.048 498.864 53.944 499.44 54.52C500.016 55.032 500.784 55.096 501.488 55.096H502.32C502.576 55.032 502.832 55.032 503.152 55.032H503.28C504.688 55.096 505.264 55.096 506.672 55.096C507.696 55.032 507.824 55.032 508.784 55.096H511.024C511.6 55.032 512.176 55.032 512.688 55.032C514.8 55.032 516.528 55.352 517.936 55.992ZM533.104 61.752C532.976 62.776 532.912 63.736 532.592 64.76C532.464 65.08 532.336 65.336 532.208 65.656C531.952 66.168 531.568 66.68 531.056 67.064C530.096 67.64 528.88 67.768 527.792 67.512C527.152 67.384 526.576 67.128 526.128 66.744C524.592 65.336 524.656 62.008 524.656 61.88V22.328C524.592 20.344 524.656 17.144 525.872 15.992C526.768 15.096 527.856 14.968 529.008 14.968C530.48 14.968 531.824 15.864 532.336 17.272C533.104 19.064 533.04 21.048 533.104 23.032V23.352C533.296 29.88 533.104 37.112 533.104 43.256V59.448C533.104 60.216 533.168 60.984 533.104 61.752ZM549.549 37.24V25.016C549.549 23.736 549.549 22.584 549.805 21.304C550.189 18.936 550.957 17.272 553.901 17.144C554.157 17.144 555.373 17.272 555.757 17.4C557.805 18.296 557.997 21.048 558.125 22.712C558.317 24.632 558.125 26.168 558.125 28.088C558.317 30.392 558.125 32.696 558.125 35.064C558.125 36.6 558.317 38.264 558.445 39.8C558.573 41.976 559.789 43.896 560.941 45.688C562.093 47.928 564.013 50.744 565.165 52.792C565.805 53.944 566.573 55.096 567.085 56.248C567.725 57.656 568.365 59.448 567.725 60.92C567.341 61.816 566.189 62.584 565.165 62.712C563.885 62.84 563.117 62.456 562.221 61.56C560.557 59.896 558.381 57.272 556.909 55.352C556.653 54.968 553.708 51 553.581 51C553.453 51.128 553.325 51.384 553.069 51.64C550.381 54.584 548.461 57.912 545.645 60.792C545.005 61.432 544.173 61.944 543.277 62.2C542.893 62.328 542.509 62.456 541.997 62.456C541.101 62.456 540.205 62.072 539.565 61.304C538.797 60.664 538.413 59.768 538.413 58.68C538.541 57.912 538.669 57.272 539.053 56.632C540.973 52.92 543.405 49.464 545.901 45.944C546.541 44.92 546.989 43.896 547.629 43C547.885 42.616 548.269 42.104 548.525 41.592C548.781 41.208 549.037 40.824 549.165 40.44C549.293 40.056 549.421 39.672 549.421 39.288C549.549 38.52 549.549 37.88 549.549 37.24ZM565.165 35.256C565.421 35 565.677 34.616 565.933 34.488C566.445 34.104 566.957 33.72 567.597 33.592C568.493 33.464 572.717 33.464 575.213 33.592L575.085 27.192C574.957 26.168 574.957 25.4 575.085 24.376V21.432C575.085 20.792 575.213 20.088 575.213 19.448C575.341 18.808 575.469 18.296 575.725 17.656C575.853 17.144 576.109 16.632 576.493 16.248C577.773 15.096 580.333 14.84 581.741 16.248C583.277 17.784 583.021 20.92 583.021 23.096V62.008C583.021 62.392 583.021 62.776 582.893 63.288C582.893 63.8 582.765 64.312 582.509 64.824C582.381 65.336 582.125 65.592 581.741 65.976C580.589 67 577.773 67.256 576.621 65.976C575.085 64.312 575.085 62.52 575.085 60.408V52.728C575.085 51.96 575.085 51.064 574.957 50.168L575.085 42.04C574.573 41.912 571.309 42.04 570.797 41.912C570.157 41.912 569.645 41.912 569.005 41.784C568.365 41.784 567.725 41.656 567.085 41.272C566.445 41.016 565.933 40.632 565.421 40.248C565.037 39.736 564.653 39.224 564.525 38.584C564.397 37.944 564.397 37.176 564.525 36.408C564.653 36.024 564.781 35.64 565.165 35.256ZM649 62.136C650.28 62.2 651.432 62.712 651.88 64.056C652.328 65.592 651.752 66.68 650.216 67.256C649.192 67.704 648.04 67.704 647.144 67.704H617.384C615.656 67.704 613.8 67.704 611.944 67.64C610.152 67.576 608.872 66.232 608.68 64.312C608.552 62.904 608.488 60.856 608.488 59.704V59.128C608.424 58.168 608.424 56.696 609.192 55.8C610.28 54.584 612.584 54.392 614.44 54.392H615.784C616.104 54.392 616.424 54.456 616.68 54.456H644.52V51.704H616.04C615.592 51.704 615.08 51.64 614.632 51.704H613.032C612.2 51.704 611.496 51.704 610.856 51.576C610.152 51.384 609.512 51.384 609.064 50.68C608.488 49.784 608.36 48.952 608.616 47.928C609.064 46.584 610.984 46.392 611.944 46.2C612.584 46.136 613.224 46.072 613.992 46.072H615.08C615.464 46.072 615.848 46.136 616.232 46.136H645.16C649.448 46.136 651.88 47.352 651.88 50.36V55.352C651.88 56.504 651.432 57.72 650.088 58.552C648.936 59.192 647.784 59.128 646.76 59.128H616.36V62.136H649ZM608.232 16.12L629.48 16.056C632.872 16.056 635.24 16.312 636.648 17.976C637.479 19 637.224 21.752 635.88 22.392C635.24 22.648 634.152 23.032 633.448 23.096C632.232 23.16 631.016 23.096 629.8 23.096H625.576C625.512 23.032 625.512 27.32 625.576 27.64C626.024 28.024 627.368 29.304 628.136 29.944C628.968 30.648 629.864 31.48 630.824 32.376C631.4 32.952 631.912 33.528 632.36 33.976C633.96 35.576 635.88 37.56 636.456 39.48C636.712 40.248 636.583 41.336 635.688 41.976C635.048 42.36 634.28 42.616 633.384 42.616C631.528 42.616 629.672 41.656 628.648 40.888C627.048 39.672 625.704 38.328 624.36 36.984C623.4 36.024 622.184 34.616 620.968 33.72L619.24 35.448C618.664 36.024 618.024 36.6 617.512 37.176C616.424 38.392 615.272 39.672 613.736 40.76C612.008 42.04 610.344 42.68 608.808 42.68C608.424 42.68 608.104 42.68 607.72 42.552C606.824 42.36 606.184 41.976 605.864 41.4C605.288 40.44 605.608 39.096 606.12 38.2C606.76 37.24 607.72 36.344 608.552 35.448C610.088 33.784 615.912 28.344 616.616 27.64V23.096H612.52C610.408 23.096 606.76 23.608 605.672 21.112C605.288 20.152 605.096 18.872 605.352 17.848C605.672 16.632 607.144 16.248 608.232 16.12ZM653.032 33.784H651.56V38.968C651.56 41.208 650.28 43.128 647.656 43.128C647.016 43.128 646.376 43 645.864 42.68C644.136 41.656 643.88 39.8 643.88 39.16V20.024C643.816 19.704 643.944 17.72 644.456 16.696C644.84 15.864 645.8 15.288 647.016 15.16C648.488 14.968 649.832 15.352 650.536 16.12C651.048 16.76 651.176 17.4 651.368 18.104C651.624 18.872 651.624 20.664 651.56 21.496V26.68C652.264 26.744 655.72 26.808 656.488 27C658.152 27.32 658.728 28.024 658.92 28.92C659.176 29.816 659.24 31.288 658.728 32.12C657.704 33.784 655.528 33.72 653.032 33.784ZM720.434 55.032C720.69 55.096 720.946 55.032 721.202 55.032C722.61 55.16 723.89 55.48 725.042 56.504C725.618 57.08 725.938 57.848 725.938 58.744C725.938 59.64 725.618 60.92 725.106 61.496C723.762 62.84 720.626 62.712 720.498 62.712H684.658C684.274 62.712 683.826 62.776 683.378 62.776C681.586 62.84 679.282 62.968 677.874 61.752C677.042 60.984 676.53 60.024 676.53 59C676.53 57.72 677.362 56.12 678.642 55.608C680.37 54.968 682.226 55.096 684.082 55.032H684.402C688.05 54.968 692.018 54.968 695.858 55.032L695.794 46.2C692.53 46.264 689.842 46.264 688.306 46.136C686.514 46.072 684.146 46.008 682.674 44.92C680.754 43.448 680.69 38.776 680.69 38.584V24.824C680.69 23.16 680.434 21.368 680.754 19.704C681.202 17.72 683.634 17.208 685.554 17.08C687.026 17.016 689.202 17.4 689.522 19.128C689.65 19.896 689.394 24.76 689.714 25.464C689.906 25.912 690.802 25.976 691.25 26.04C693.234 26.168 693.874 25.976 695.858 25.976L710.514 26.04C711.41 26.104 712.114 26.104 712.37 25.208C712.434 24.312 712.434 20.536 712.498 19.832C712.562 18.296 713.01 17.4 714.61 17.08C716.274 16.696 718.642 16.824 719.602 17.784C720.946 19.192 720.882 20.856 720.882 24.184C720.754 28.088 721.074 37.496 720.69 41.4C720.498 43.896 719.09 45.496 716.658 45.88C715.378 46.072 713.65 46.008 712.37 46.008C709.618 46.072 706.994 46.072 704.434 46.072L704.562 55.032C708.914 55.032 711.922 54.904 716.082 55.032C717.618 55.096 719.09 54.904 720.434 55.032ZM689.714 37.944C690.034 39.224 691.89 39.224 693.298 39.288C693.938 39.224 706.93 39.096 707.698 39.224C708.402 39.288 709.106 39.224 709.81 39.288C710.706 39.352 712.242 39.672 712.242 38.264C712.242 37.624 712.37 35 712.05 33.784C711.794 32.76 711.218 32.824 710.386 32.888C710.002 32.888 708.786 32.952 708.402 32.888H693.81C692.21 32.824 689.842 32.504 689.65 34.488C689.65 34.936 689.65 37.624 689.714 37.944ZM772.948 61.944C774.292 62.008 775.444 62.52 775.828 63.864C776.276 65.4 775.764 66.488 774.164 67.064C773.14 67.512 771.988 67.512 771.156 67.512H742.676C740.948 67.512 739.028 67.512 737.172 67.448C734.868 67.384 734.1 65.784 733.972 63.864L733.716 59.448C733.652 58.488 733.652 56.248 734.42 55.352C735.572 54.136 737.172 53.944 739.028 53.944H741.012C741.396 53.944 741.652 54.008 741.908 54.008H768.532V51.448H741.268C740.82 51.448 740.372 51.384 739.86 51.448H738.324C737.492 51.448 736.788 51.448 736.148 51.32C735.38 51.128 734.74 51.128 734.292 50.424C733.78 49.528 733.588 48.504 733.908 47.48C734.356 46.136 736.276 45.944 737.236 45.752C737.876 45.688 738.516 45.624 739.22 45.624H740.308C740.756 45.688 741.076 45.688 741.524 45.688H769.172C773.46 45.688 775.892 46.904 775.892 49.912V55.8C775.892 56.952 775.38 57.976 774.036 58.808C772.948 59.448 771.796 59.384 770.708 59.384H741.588V61.944H772.948ZM745.492 15.032C754.196 15.608 759.06 20.6 758.42 29.752C757.844 37.368 753.748 41.784 745.62 41.784C742.484 41.784 738.9 42.104 734.996 39.672C731.284 37.304 730.132 32.568 730.132 28.472C730.132 19.256 736.66 14.392 745.492 15.032ZM775.956 20.472V38.904C775.956 38.968 775.7 41.464 774.036 42.552C773.46 42.872 772.884 43.064 772.244 43.064C771.476 43.064 770.772 42.808 770.132 42.36C769.684 42.04 769.3 41.592 769.044 41.016C767.764 38.456 768.276 34.68 768.276 31.864C768.34 28.216 768.34 25.848 768.34 22.264V21.432C768.276 20.472 768.276 19.384 768.532 18.424C768.724 17.72 769.108 17.08 769.684 16.376C770.388 15.544 771.732 15.096 773.14 15.288C774.356 15.48 775.316 16.12 775.7 16.952C776.212 18.04 776.02 20.152 775.956 20.472ZM750.996 30.52L751.06 30.008C751.444 26.936 749.908 23.992 747.22 23.032C743.635 21.816 738.132 22.904 737.428 27.704C736.916 30.968 738.324 34.552 743.252 35C746.644 35.384 750.164 34.424 750.996 30.52ZM828.377 34.872H828.505C828.889 34.872 829.273 35 829.721 35C830.169 35.064 830.681 35.128 831.193 35.192C832.153 35.384 833.177 35.768 833.625 36.728C833.945 37.24 834.073 37.816 834.073 38.392C834.073 39.032 834.073 39.608 833.881 40.248C833.753 40.888 833.561 41.784 832.985 42.232C832.473 42.616 831.897 42.936 831.257 43.064C829.913 43.256 827.609 43.064 826.265 43.128C826.137 43.128 826.073 43.192 826.073 43.192C826.073 43.192 826.009 43.192 826.009 43.448C825.945 45.56 826.009 49.272 826.009 51.448C826.073 53.624 826.073 55.864 826.009 57.976V58.872C826.009 61.112 826.009 64.376 824.473 65.912C823.961 66.488 823.257 66.808 822.425 66.808C822.425 66.808 822.361 66.744 822.297 66.744C818.137 66.616 817.689 61.624 817.689 58.936V20.92C817.689 20.792 817.625 17.592 819.033 16.184C819.609 15.608 820.953 15.288 821.913 15.288C822.873 15.288 823.705 15.672 824.281 16.248C825.433 17.464 825.497 18.808 825.625 20.216C825.689 20.472 825.689 20.728 825.689 20.984C825.881 22.392 825.817 24.056 825.881 25.592C825.881 26.552 826.009 27.32 826.009 28.28C825.945 28.792 826.009 29.24 826.009 29.688V33.336C826.009 33.784 826.009 34.296 826.137 34.744C826.137 34.808 827.417 34.808 827.481 34.808C827.801 34.872 828.057 34.936 828.377 34.872ZM790.361 54.712C790.361 53.688 790.297 52.664 790.297 51.64V31.096C790.297 29.688 790.361 28.28 790.169 26.936C790.105 26.488 790.041 25.528 789.593 25.272C789.145 25.08 788.569 25.208 788.057 25.144C787.481 25.08 788.505 25.208 784.793 25.144C783.833 25.144 782.681 25.08 781.849 24.568C780.697 23.736 780.312 22.84 780.312 21.432C780.312 20.6 780.441 20.088 780.825 19.32C781.017 18.936 781.273 18.552 781.657 18.232C782.105 17.848 783.065 17.528 783.705 17.336C785.497 16.952 786.585 16.952 788.441 16.952H793.113C793.433 16.952 793.817 16.952 794.201 17.016C795.033 16.952 795.865 16.952 796.697 16.952H804.761C805.209 16.952 805.657 16.952 806.105 17.016C807.257 17.08 808.601 17.272 809.625 17.656C810.265 17.912 811.033 18.36 811.417 18.936C812.185 20.152 812.121 21.304 812.249 22.712C812.505 25.016 812.377 27.384 812.377 29.752V50.104C812.441 50.36 812.569 55.608 812.377 58.36C812.312 60.088 811.865 62.136 809.689 63.032C808.857 63.288 808.153 63.48 807.513 63.48C806.425 63.48 805.145 62.968 804.633 62.072C803.993 60.728 803.673 59.192 803.673 57.528C803.673 56.568 803.673 55.608 803.609 54.712V31.096C803.609 29.688 803.609 28.28 803.417 26.936C803.417 26.488 803.353 25.528 802.905 25.272C802.457 25.08 801.881 25.208 801.369 25.144C800.793 25.08 799.705 25.208 799.128 25.144V28.92V50.104C799.128 50.36 799.321 55.608 799.128 58.36C799.001 60.088 798.617 62.136 796.441 63.032C795.609 63.288 794.841 63.48 794.265 63.48C793.113 63.48 791.833 62.968 791.385 62.072C790.745 60.728 790.425 59.192 790.361 57.528V54.712ZM98.7713 140.44C99.3713 140.5 99.9113 140.74 100.091 141.4C100.331 142.15 100.061 142.69 99.3113 143.02C98.8613 143.2 98.3513 143.23 97.9313 143.23H84.1313C83.3513 143.23 82.4813 143.2 81.6113 143.17C80.8013 143.14 80.2013 142.48 80.1113 141.52L80.0213 139.3C79.9913 138.88 79.9613 138.1 80.3213 137.71C80.8613 137.08 81.9113 136.99 82.7813 136.99C83.8913 136.99 87.6713 137.02 96.7013 137.02V135.88H82.1213C81.7313 135.88 81.4013 135.88 81.1313 135.82C80.7713 135.7 80.4713 135.7 80.2913 135.37C80.0213 134.92 79.9313 134.5 80.0813 134.02C80.2913 133.33 81.1913 133.24 81.6113 133.18C81.9113 133.12 82.2113 133.09 82.5413 133.09C84.3113 133.09 86.3813 133.12 97.0013 133.12C99.0113 133.12 100.121 133.75 100.121 135.22V137.44C100.121 138.01 99.8813 138.64 99.2513 139.03C98.7713 139.33 98.2313 139.3 97.7213 139.3H83.6813V140.44H98.7713ZM80.1413 122.44C80.1413 119.17 83.9813 117.97 90.3413 117.97C96.4613 117.97 100.571 118.81 100.571 122.44C100.571 126.04 97.1813 126.91 90.3413 126.91C84.7013 126.91 80.1413 126.04 80.1413 122.44ZM81.3113 128.23C81.9113 128.17 83.2313 128.17 83.2313 128.17H89.8313C89.8313 128.17 95.3813 128.11 98.0813 128.17H98.2313C99.0413 128.2 99.8513 128.14 100.631 128.44C101.201 128.65 101.561 129.16 101.561 129.76C101.561 130.24 101.351 130.69 100.961 131.02C100.331 131.59 99.3113 131.56 98.5013 131.5H81.2813C81.2213 131.5 79.8113 131.53 79.2413 130.9C79.0013 130.66 78.8813 130.27 78.8813 129.88C78.8813 129.46 79.0313 129.1 79.2712 128.86C79.7813 128.35 80.3513 128.32 80.9513 128.26C81.0713 128.26 81.1913 128.23 81.3113 128.23ZM96.4613 122.44C96.4613 121.18 93.2213 120.91 90.3413 120.91C87.4913 120.91 84.4313 121.18 84.4313 122.44C84.4313 123.55 87.4313 123.82 90.2813 123.82C93.1613 123.82 96.4613 123.88 96.4613 122.44ZM119.858 119.14C120.218 119.14 120.878 119.14 121.208 119.23C121.748 119.41 122.348 119.68 122.708 120.16C123.098 120.64 123.278 121.54 123.278 122.17C123.278 123.91 123.368 125.62 123.308 127.36C123.248 128.41 123.428 129.94 122.888 130.87C122.288 131.95 120.608 132.25 119.948 131.17C119.438 130.36 119.408 129.28 119.408 128.26V125.68C119.408 125.02 119.378 124.33 119.318 123.73C119.228 122.77 118.508 122.95 117.758 122.92C116.978 122.89 115.568 122.95 114.878 122.92C113.558 122.92 112.478 122.89 111.038 122.71C109.958 122.59 110.018 121.09 110.168 120.37C110.228 119.95 110.438 119.68 110.768 119.44C111.218 119.14 111.758 119.2 112.238 119.14C112.808 119.11 119.168 119.11 119.858 119.14ZM128.378 126.94H127.658C126.488 126.88 125.528 126.97 125.018 126.19C124.778 125.8 124.808 125.08 124.898 124.66C125.018 124.21 125.288 123.91 126.068 123.73C126.398 123.67 128.048 123.61 128.378 123.58V121C128.348 120.58 128.348 120.1 128.468 119.68C128.558 119.38 128.588 119.08 128.858 118.78C129.188 118.39 129.818 118.21 130.478 118.3C131.078 118.39 131.528 118.66 131.708 119.05C131.948 119.53 131.978 120.43 131.978 120.58V130.36H131.948C131.948 130.42 131.828 131.5 131.048 131.98C130.778 132.13 130.508 132.22 130.208 132.22C129.848 132.22 129.518 132.1 129.218 131.89C129.008 131.74 128.828 131.56 128.708 131.29C128.468 130.87 128.408 130.39 128.378 129.97V126.94ZM113.078 142.12C113.048 142.12 113.018 142.09 112.988 142.06C112.598 141.76 112.478 141.01 112.478 140.56C112.448 139.84 112.358 139.12 112.358 138.43C112.358 137.41 112.328 136.39 112.508 135.4C112.628 134.77 112.868 134.41 113.468 134.17C114.008 133.96 114.578 133.84 115.148 133.84H129.278C130.028 133.87 130.868 133.9 131.588 134.23C132.368 134.56 132.578 135.4 132.638 136.18C132.698 137.56 132.758 139.87 132.368 141.31C132.248 141.76 132.158 142.12 131.678 142.27C131.258 142.42 130.748 142.45 130.328 142.45L114.698 142.39C114.188 142.36 113.528 142.42 113.078 142.12ZM115.928 138.61C115.928 138.79 115.928 139 116.048 139.09C116.198 139.24 116.888 139.15 116.888 139.15H126.278C126.278 139.15 127.688 139.27 128.438 139.18C128.828 139.15 128.858 138.97 128.888 138.61C128.918 138.28 128.978 137.8 128.738 137.5C128.468 137.17 127.868 137.23 127.478 137.26H119.138C118.268 137.2 117.428 137.23 116.558 137.26C116.228 137.26 116.078 137.2 115.988 137.56C115.928 137.83 115.928 138.1 115.928 138.34C115.958 138.4 115.928 138.49 115.928 138.61ZM156.509 120.82V130.87C156.509 130.93 156.479 132.01 155.669 132.49C155.429 132.64 155.249 132.7 154.979 132.7C154.619 132.7 154.259 132.61 153.989 132.4C153.779 132.25 153.599 132.04 153.479 131.8C152.879 130.69 153.089 129.25 153.119 128.02V127.6C152.579 127.63 151.709 127.63 151.259 127.66H151.169V130.39C151.139 130.81 151.079 131.29 150.839 131.74C150.719 131.98 150.539 132.19 150.329 132.31C150.059 132.52 149.909 132.64 149.549 132.64C149.249 132.64 148.979 132.55 148.709 132.4C147.929 131.92 147.809 130.84 147.809 130.81V120.91C147.779 120.73 147.809 119.83 148.049 119.35C148.229 118.96 148.709 118.69 149.279 118.63C149.939 118.54 150.359 118.72 150.689 119.08C150.959 119.38 150.989 119.68 151.079 120.01C151.199 120.4 151.199 120.88 151.199 121.3C151.169 121.42 151.169 121.54 151.169 121.66V124.3C151.349 124.33 152.459 124.36 153.149 124.39V121.57V121.21C153.119 120.79 153.119 120.34 153.239 119.92C153.329 119.62 153.509 119.32 153.779 119.02C154.079 118.63 154.529 118.45 155.189 118.54C155.759 118.63 156.089 118.93 156.269 119.32C156.509 119.8 156.539 120.67 156.509 120.82ZM153.599 134.68C155.219 134.68 156.329 135.22 156.329 136.12V140.14C156.359 140.59 156.359 141.04 156.329 141.46C156.239 142.3 155.609 142.87 154.709 142.87C154.499 142.87 153.839 142.84 153.629 142.78C152.579 142.45 152.489 141.46 152.429 140.56C152.399 140.2 152.399 138.52 152.339 138.22C152.219 138.19 151.799 138.13 150.329 138.13C149.039 138.13 148.919 138.19 148.889 138.19H138.059L138.029 138.16C137.999 138.16 136.799 137.89 136.679 137.05C136.589 136.3 136.709 135.7 137.069 135.25C137.549 134.68 138.269 134.68 138.299 134.68H153.599ZM134.909 131.65C134.669 131.53 134.459 131.29 134.369 130.96C133.769 129.37 135.389 127.81 136.199 126.73C136.769 125.89 137.339 125.29 137.939 124.42C138.329 123.76 138.989 123.01 139.049 122.14C139.079 120.79 139.049 118.81 140.549 118.81C141.149 118.81 142.319 118.87 142.559 119.5C142.859 120.22 142.559 121.69 142.799 122.44C142.979 123.1 143.159 123.52 143.459 124.09C144.119 125.29 144.599 126.01 145.319 127.12C145.889 127.96 146.399 128.74 146.579 129.76C146.939 131.47 144.959 132.22 143.999 131.08L140.729 126.67L137.579 130.6C137.189 131.08 136.679 131.56 136.109 131.71C135.689 131.8 135.239 131.83 134.909 131.65ZM166.219 125.74C172.669 125.98 172.969 134.92 170.539 139.24C168.769 142.36 163.699 142.54 161.299 139.96C160.279 138.85 159.919 137.65 159.709 136.18C159.289 133.24 159.079 130.66 160.669 127.99C161.539 126.49 164.029 125.65 166.219 125.74ZM180.199 127.93H180.259C180.439 127.93 180.619 127.99 180.829 127.99C181.039 128.02 181.279 128.05 181.519 128.08C181.969 128.17 182.449 128.35 182.659 128.8C182.809 129.04 182.869 129.31 182.869 129.58C182.869 129.88 182.869 130.15 182.779 130.45C182.719 130.75 182.629 131.17 182.359 131.38C182.119 131.56 181.849 131.71 181.549 131.77C180.919 131.86 179.839 131.77 179.209 131.8C179.149 131.8 179.119 131.83 179.119 131.83C179.119 131.83 179.089 131.83 179.089 131.95C179.059 132.94 179.089 134.44 179.089 135.46C179.119 136.48 179.119 137.53 179.089 138.52V138.94C179.089 139.99 179.089 141.52 178.369 142.24C178.129 142.51 177.799 142.66 177.409 142.66C177.409 142.66 177.379 142.63 177.349 142.63C175.399 142.57 175.189 140.23 175.189 138.97V121.15C175.189 121.09 175.159 119.59 175.819 118.93C176.089 118.66 176.719 118.51 177.169 118.51C177.619 118.51 178.009 118.69 178.279 118.96C178.819 119.53 178.849 120.16 178.909 120.82C178.939 120.94 178.939 121.06 178.939 121.18C179.029 121.84 179.029 122.59 179.059 123.31C179.059 123.76 179.089 124.15 179.089 124.6C179.059 124.84 179.089 125.05 179.089 125.26V127.21C179.089 127.42 179.089 127.66 179.149 127.87C179.149 127.9 179.749 127.9 179.779 127.9C179.929 127.93 180.049 127.96 180.199 127.93ZM170.419 120.94C171.199 120.94 172.129 121.12 172.549 121.9C172.819 122.41 172.729 123.34 172.339 123.85C171.559 124.84 168.559 124.51 168.019 124.54C167.719 124.57 167.419 124.57 167.059 124.57H166.099C165.799 124.54 165.499 124.54 165.169 124.54L161.629 124.48C159.589 124.48 158.809 123.97 158.659 122.86C158.569 122.26 158.749 121.78 159.109 121.45C159.649 120.97 159.949 120.91 160.549 120.91C160.699 120.91 160.879 120.94 161.029 120.94H161.779C162.349 120.94 163.189 120.91 163.759 120.88C163.789 120.58 163.819 119.56 163.849 119.29C163.879 118.96 163.999 118.63 164.179 118.36C164.569 117.82 165.139 117.52 165.739 117.55C166.309 117.61 166.909 117.64 167.269 118.12C167.719 118.75 167.539 120.04 167.629 120.91H168.499C168.829 120.91 169.579 120.94 169.879 120.94H170.419ZM166.099 138.43C167.899 138.16 168.589 135.91 168.559 134.29C168.529 132.91 168.469 130.72 167.239 129.88C166.159 129.16 163.909 129.49 163.339 130.75C162.589 132.37 162.649 134.02 163.009 135.73C163.189 136.6 163.519 137.68 164.269 138.19C164.599 138.4 165.769 138.49 166.099 138.43ZM187.342 123.61C186.652 123.61 185.662 123.52 185.182 122.8C184.912 122.32 184.822 121.66 184.972 121.12C185.122 120.58 185.542 120.13 186.082 119.89C186.322 119.8 186.562 119.71 186.832 119.65C187.582 119.47 187.972 119.47 188.752 119.44C189.112 119.44 189.232 119.44 189.562 119.41C189.862 119.41 189.892 119.38 190.252 119.38C190.912 119.38 197.272 119.41 197.902 119.44C198.502 119.47 199.162 119.47 199.792 119.47C200.512 119.47 201.202 119.5 201.922 119.59C202.252 119.65 202.612 119.68 202.912 119.86C203.782 120.34 203.842 121.84 203.872 122.71C203.872 123.25 203.902 123.79 203.902 124.33C203.932 125.08 203.932 126.22 203.902 126.97C203.872 128.59 203.842 130.18 203.842 131.8C203.842 132.43 203.752 133.09 203.362 133.63C202.942 134.2 202.252 134.41 201.562 134.23C200.002 133.84 200.152 132.04 200.002 130.75C199.882 129.91 199.822 129.1 199.822 128.29C199.852 127.39 199.732 126.16 199.732 125.29C199.732 124.6 199.762 123.94 199.192 123.61C198.952 123.49 198.622 123.52 198.202 123.52H197.572C197.362 123.55 197.152 123.52 196.972 123.52H193.792C193.012 123.52 192.502 123.61 191.722 123.61C190.912 123.61 190.402 123.58 189.592 123.64C189.262 123.67 189.172 123.61 188.842 123.61H187.342ZM204.022 136.87C204.142 136.9 204.262 136.87 204.382 136.87C205.042 136.93 205.642 137.08 206.182 137.56C206.452 137.83 206.602 138.19 206.602 138.61C206.602 139.03 206.452 139.63 206.212 139.9C205.582 140.53 204.112 140.47 204.052 140.47H187.252C187.072 140.47 186.862 140.5 186.652 140.5C185.812 140.53 184.732 140.59 184.072 140.02C183.682 139.66 183.442 139.21 183.442 138.73C183.442 138.13 183.832 137.38 184.432 137.14C185.242 136.84 186.112 136.9 186.982 136.87H187.132C188.842 136.84 189.832 136.84 191.632 136.87L191.602 130.42C191.602 130.42 191.602 129.4 192.412 128.83C193.432 128.08 195.622 128.59 195.622 130.06L195.682 136.87C197.902 136.87 199.912 136.81 201.982 136.87C202.702 136.9 203.392 136.81 204.022 136.87ZM348.49 140.44C349.09 140.5 349.63 140.74 349.81 141.4C350.05 142.15 349.78 142.69 349.03 143.02C348.58 143.2 348.07 143.23 347.65 143.23H333.85C333.07 143.23 332.2 143.2 331.33 143.17C330.52 143.14 329.92 142.48 329.83 141.52L329.74 139.3C329.71 138.88 329.68 138.1 330.04 137.71C330.58 137.08 331.63 136.99 332.5 136.99C333.61 136.99 337.39 137.02 346.42 137.02V135.88H331.84C331.45 135.88 331.12 135.88 330.85 135.82C330.49 135.7 330.19 135.7 330.01 135.37C329.74 134.92 329.65 134.5 329.8 134.02C330.01 133.33 330.91 133.24 331.33 133.18C331.63 133.12 331.93 133.09 332.26 133.09C334.03 133.09 336.1 133.12 346.72 133.12C348.73 133.12 349.84 133.75 349.84 135.22V137.44C349.84 138.01 349.6 138.64 348.97 139.03C348.49 139.33 347.95 139.3 347.44 139.3H333.4V140.44H348.49ZM329.86 122.44C329.86 119.17 333.7 117.97 340.06 117.97C346.18 117.97 350.29 118.81 350.29 122.44C350.29 126.04 346.9 126.91 340.06 126.91C334.42 126.91 329.86 126.04 329.86 122.44ZM331.03 128.23C331.63 128.17 332.95 128.17 332.95 128.17H339.55C339.55 128.17 345.1 128.11 347.8 128.17H347.95C348.76 128.2 349.57 128.14 350.35 128.44C350.92 128.65 351.28 129.16 351.28 129.76C351.28 130.24 351.07 130.69 350.68 131.02C350.05 131.59 349.03 131.56 348.22 131.5H331C330.94 131.5 329.53 131.53 328.96 130.9C328.72 130.66 328.6 130.27 328.6 129.88C328.6 129.46 328.75 129.1 328.99 128.86C329.5 128.35 330.07 128.32 330.67 128.26C330.79 128.26 330.91 128.23 331.03 128.23ZM346.18 122.44C346.18 121.18 342.94 120.91 340.06 120.91C337.21 120.91 334.15 121.18 334.15 122.44C334.15 123.55 337.15 123.82 340 123.82C342.88 123.82 346.18 123.88 346.18 122.44ZM380.287 140.08C380.917 140.11 381.457 140.35 381.637 140.98C381.847 141.7 381.607 142.21 380.857 142.48C380.377 142.69 379.837 142.69 379.447 142.69H365.497C364.687 142.69 363.787 142.69 362.917 142.66C361.837 142.63 361.477 141.88 361.417 140.98L361.297 139C361.267 138.55 361.267 137.83 361.627 137.41C362.167 136.84 362.917 136.75 363.787 136.75H364.717C364.897 136.75 365.017 136.78 365.137 136.78H378.217V135.73H364.837C364.627 135.73 364.417 135.7 364.177 135.73H363.457C363.067 135.73 362.737 135.73 362.437 135.67C362.077 135.58 361.777 135.58 361.567 135.25C361.327 134.83 361.237 134.44 361.387 133.96C361.597 133.33 362.497 133.24 362.947 133.15C363.247 133.12 363.547 133.09 363.877 133.09H364.387C364.597 133.12 364.747 133.12 364.957 133.12H378.517C380.527 133.12 381.667 133.69 381.667 135.1V137.2C381.667 137.74 381.427 138.31 380.797 138.7C380.287 139 379.747 138.97 379.237 138.97H364.987V140.08H380.287ZM362.257 130.81C361.477 130.81 360.397 130.63 360.097 129.85C359.917 129.31 359.917 128.32 360.397 127.93C360.667 127.66 361.117 127.66 361.477 127.66C361.747 127.66 362.017 127.69 362.287 127.69C362.437 127.69 362.557 127.72 362.557 127.54C362.617 127.12 362.557 126.67 362.557 126.25V124.66C362.557 124.21 362.587 123.76 362.587 123.31C362.587 123.22 362.617 122.53 362.587 122.5C362.287 122.5 361.957 122.47 361.657 122.44C360.907 122.35 360.397 122.08 360.247 121.27C360.157 120.88 360.157 120.43 360.337 120.04C360.487 119.77 360.787 119.53 361.117 119.44C361.627 119.26 362.167 119.38 362.677 119.35C363.337 119.32 363.967 119.29 364.627 119.29C365.257 119.26 365.857 119.26 366.517 119.26H371.917C372.457 119.26 373.027 119.32 373.537 119.5C373.987 119.65 374.287 119.98 374.437 120.4C374.707 121 374.587 121.69 374.047 122.05C373.327 122.53 372.427 122.32 371.617 122.41C371.677 123.46 371.737 126.34 371.767 127.6C372.607 127.63 373.687 127.39 374.377 127.96C374.947 128.41 374.917 129.52 374.467 130.12C373.777 130.96 372.547 130.81 371.617 130.81H362.257ZM381.697 120.94V130.18C381.697 130.21 381.577 131.38 380.797 131.89C380.527 132.04 380.257 132.13 379.957 132.13C379.597 132.13 379.267 132.01 378.967 131.8C378.757 131.65 378.577 131.44 378.457 131.17C377.857 129.97 378.097 128.2 378.097 126.88C378.127 125.17 378.127 123.46 378.127 121.78V121.39C378.097 120.94 378.097 120.43 378.217 119.98C378.307 119.65 378.487 119.35 378.757 119.02C379.087 118.63 379.717 118.42 380.377 118.51C380.947 118.6 381.397 118.9 381.577 119.29C381.817 119.8 381.727 120.79 381.697 120.94ZM368.467 127.33C368.497 127.09 368.467 126.82 368.497 126.58V124.72C368.497 124.18 368.497 123.61 368.467 123.07C368.467 122.8 368.437 122.59 368.167 122.47C367.927 122.38 367.627 122.41 367.357 122.41C366.997 122.41 366.637 122.41 366.307 122.44C366.157 122.47 366.037 122.44 365.917 122.5C365.587 122.65 365.617 123.04 365.677 123.31C365.707 123.64 365.677 123.97 365.677 124.3V126.85C365.677 127.09 365.617 127.39 365.797 127.57C365.917 127.69 366.037 127.69 366.157 127.66C366.637 127.66 367.117 127.69 367.597 127.63C367.777 127.63 367.987 127.66 368.167 127.63C368.407 127.6 368.467 127.57 368.467 127.33ZM401.651 131.83C401.111 131.74 400.001 131.74 399.461 131.68C398.081 131.59 396.851 130.63 397.271 129.1C397.361 128.8 397.661 128.38 397.901 128.17C398.141 127.99 398.411 127.84 398.741 127.78C399.371 127.69 400.961 127.78 401.621 127.72H401.711V127.6C401.741 126.61 401.741 126.49 401.711 125.47C401.711 124.45 401.681 123.4 401.711 122.41V121.99C401.711 120.94 401.711 119.38 402.431 118.66C402.701 118.42 403.001 118.27 403.391 118.27H403.451C405.401 118.36 405.701 120.7 405.701 121.96V139.96C405.701 140.02 405.761 141.55 405.071 142.18C404.801 142.45 404.171 142.63 403.751 142.63C403.301 142.63 402.791 142.45 402.521 142.15C402.011 141.61 401.951 140.98 401.891 140.32C401.891 140.2 401.861 140.08 401.861 139.93C401.801 139.3 401.801 138.55 401.771 137.83C401.741 137.38 401.741 136.96 401.741 136.54V135.85C401.741 135.01 401.711 133.33 401.711 132.49C401.711 132.28 401.741 132.01 401.651 131.83ZM397.601 137.29C398.621 138.01 398.501 139.9 397.391 140.47C396.521 140.95 395.501 141.07 394.601 141.07H393.371C392.261 141.1 390.791 141.04 389.681 141.07H389.171C387.851 141.07 386.021 140.95 385.181 139.93C384.371 139 384.461 136.48 384.461 136.36V122.2C384.461 122.08 384.461 120.82 384.731 120.37C385.091 119.8 385.391 119.56 385.991 119.47C386.291 119.41 387.041 119.38 387.041 119.38H393.761C393.761 119.38 394.421 119.41 394.751 119.38H394.811C395.201 119.38 395.561 119.41 395.921 119.53C396.281 119.62 396.671 119.68 396.941 120.01C397.181 120.28 397.331 120.64 397.391 121C397.451 121.3 397.481 121.57 397.421 121.9C397.301 122.74 396.731 123.46 395.831 123.46H388.571V126.07C388.571 126.07 388.601 127.03 388.571 127.9C389.861 127.96 390.851 127.9 390.851 127.9H392.591C392.771 127.9 392.981 127.93 393.191 127.9H394.001C394.451 127.9 394.931 127.96 395.321 128.2C395.921 128.56 396.011 129.37 395.951 130C395.951 130.3 395.951 130.66 395.771 130.9C395.291 131.56 394.811 131.62 394.271 131.62H391.841C391.841 131.62 391.181 131.65 390.161 131.65C389.651 131.65 389.111 131.65 388.601 131.62C388.631 133.21 388.571 134.23 388.571 134.26V135.64C388.571 136.18 388.661 136.69 388.751 136.72C389.021 136.87 389.741 136.96 390.491 136.96H390.611C391.271 136.93 392.291 136.93 392.951 136.96H394.421C394.541 136.96 394.691 136.96 394.841 136.93H395.351C395.981 136.93 396.641 136.93 397.271 137.14C397.391 137.17 397.481 137.23 397.601 137.29ZM409.973 137.98C409.973 134.35 414.473 133.36 419.993 133.36C425.513 133.36 430.013 133.93 430.013 137.98C430.013 141.97 425.513 142.6 419.993 142.6C414.473 142.6 409.973 141.97 409.973 137.98ZM420.743 131.53C420.263 131.71 419.753 131.77 419.243 131.77H412.763C411.893 131.77 410.963 131.77 410.033 131.71C409.163 131.68 408.563 131.02 408.473 130.03C408.383 129.28 408.383 127.12 408.383 126.46V126.16C408.353 125.71 408.323 125.17 408.683 124.72C409.223 124.06 410.333 124 411.263 124H418.043V122.23H412.043C411.803 122.23 411.563 122.26 411.323 122.26C411.083 122.29 410.813 122.29 410.543 122.29C410.153 122.29 409.793 122.26 409.493 122.2C409.133 122.11 408.863 121.87 408.653 121.54C408.383 121.06 408.293 120.43 408.443 119.92C408.653 119.23 409.553 118.9 410.033 118.84C410.333 118.78 410.663 118.75 411.023 118.75H411.563C411.773 118.75 411.953 118.78 412.163 118.78H418.253C420.323 118.78 421.523 119.65 421.523 121.18V124.39C421.523 124.99 421.283 126.07 420.653 126.46C420.143 126.79 419.573 126.79 419.033 126.76H412.103V128.74H418.943C419.333 128.74 419.753 128.74 420.143 128.77C420.803 128.8 421.313 129.31 421.493 129.91C421.733 130.69 421.463 131.23 420.743 131.53ZM429.623 120.94V130.18C429.623 130.21 429.503 131.38 428.723 131.89C428.453 132.04 428.183 132.13 427.883 132.13C427.523 132.13 427.193 132.01 426.893 131.8C426.683 131.65 426.503 131.44 426.383 131.17C425.783 129.97 426.023 128.2 426.023 126.88C426.053 125.17 426.053 123.46 426.053 121.78V121.39C426.023 120.94 426.023 120.43 426.143 119.98C426.233 119.65 426.413 119.35 426.683 119.02C427.013 118.63 427.643 118.42 428.303 118.51C428.873 118.6 429.323 118.9 429.503 119.29C429.743 119.8 429.653 120.79 429.623 120.94ZM425.963 137.98C425.963 136.6 422.783 136.48 419.993 136.48C417.203 136.48 414.203 136.6 414.203 137.98C414.203 139.21 417.203 139.45 419.993 139.45C422.783 139.45 425.963 139.6 425.963 137.98ZM441.3 120.82H441.69C442.02 120.82 442.35 120.88 442.68 120.97C442.95 121.06 443.19 121.3 443.37 121.72C443.52 122.2 443.46 122.77 443.19 123.25C443.04 123.46 442.8 123.64 442.59 123.79C442.35 123.88 442.02 123.97 441.69 123.97C441.36 124.03 441.12 124.03 440.7 123.97C440.4 123.97 440.07 123.97 439.74 123.97L434.07 123.88C433.29 123.88 432.72 123.7 432.39 123.46C432.06 123.16 431.91 122.77 431.82 122.2C431.82 121.87 431.97 121.54 432.3 121.21C432.63 120.88 432.96 120.82 433.38 120.82C433.44 120.82 433.59 120.82 433.83 120.82C434.16 120.82 434.4 120.82 434.73 120.82C434.97 120.82 435.3 120.82 435.54 120.82C435.72 120.82 435.87 120.82 435.87 120.73C435.87 120.58 435.96 120.49 435.96 120.4C435.96 120.31 435.96 120.16 435.96 120.07C435.96 119.68 436.11 119.35 436.2 119.11C436.35 118.9 436.59 118.66 436.92 118.48C437.49 118.24 438.54 118.24 438.84 118.9C438.93 119.02 439.02 119.2 439.02 119.35C439.11 119.44 439.11 119.62 439.11 119.77C439.17 119.92 439.17 120.07 439.11 120.25C439.11 120.4 439.11 120.58 439.17 120.82H440.13C440.31 120.82 440.46 120.82 440.7 120.82C440.97 120.82 441.12 120.82 441.3 120.82ZM438.6 125.11C439.44 125.2 440.13 125.44 440.79 125.92C441.36 126.4 441.87 126.97 442.29 127.78C442.59 128.5 442.8 129.37 442.95 130.36C443.13 131.35 443.19 132.28 443.19 133.27C443.19 134.26 443.13 135.25 442.89 136.12C442.74 137.08 442.53 137.89 442.2 138.61C441.78 139.42 441.3 139.99 440.55 140.41C439.8 140.83 439.11 141.04 438.3 141.13C437.49 141.19 436.65 141.04 435.87 140.74C435.12 140.5 434.46 139.99 434.01 139.33C433.23 138.22 432.72 136.99 432.57 135.55C432.48 134.83 432.39 134.08 432.39 133.42C432.39 132.76 432.39 132.16 432.48 131.5C432.48 130.87 432.63 130.21 432.81 129.55C433.53 126.73 435.54 124.96 438.6 125.11ZM438.39 137.8C438.69 137.74 439.02 137.56 439.26 137.32C439.5 136.99 439.74 136.66 439.89 136.27C440.07 135.85 440.13 135.37 440.22 134.98C440.31 134.5 440.31 134.08 440.31 133.69C440.31 133.36 440.31 132.94 440.31 132.52C440.22 132.1 440.22 131.68 440.13 131.26C440.07 130.87 439.98 130.45 439.8 130.12C439.65 129.79 439.5 129.46 439.26 129.22C439.02 129.07 438.78 129.01 438.45 128.92C438.15 128.83 437.82 128.92 437.49 129.01C437.16 129.07 436.92 129.13 436.59 129.37C436.35 129.55 436.2 129.79 436.05 130.12C435.78 130.93 435.63 131.77 435.63 132.52C435.63 133.42 435.63 134.26 435.78 135.16C435.87 135.55 436.05 136.03 436.2 136.51C436.35 136.9 436.59 137.32 436.92 137.56C436.98 137.65 437.07 137.65 437.25 137.74C437.31 137.74 437.49 137.74 437.64 137.8C437.82 137.8 437.97 137.8 438.06 137.8C438.21 137.8 438.3 137.8 438.39 137.8ZM453.57 123.55V139.18C453.66 139.75 453.57 140.32 453.51 140.89C453.24 142.66 451.17 143.14 450.51 141.19C450.42 140.89 450.36 140.56 450.36 140.17C450.27 139.84 450.27 139.51 450.27 139.18V132.22H448.32V139.33C448.41 139.84 448.32 140.32 448.32 140.83C448.17 141.82 447.57 142.72 446.31 142.42C445.59 142.15 445.17 141.46 445.08 140.74C445.02 140.23 445.02 139.75 445.02 139.27V121.96C445.02 121.96 445.02 121.87 445.02 121.81C445.02 121.72 445.02 121.63 445.02 121.54C445.02 121.21 445.02 120.97 445.02 120.64C445.02 120.31 445.08 119.98 445.17 119.68C445.35 119.35 445.5 119.11 445.68 118.9C445.83 118.66 446.04 118.48 446.37 118.39C446.88 118.33 447.27 118.39 447.51 118.72C447.75 118.99 447.9 119.29 448.08 119.68C448.17 120.07 448.23 120.49 448.23 120.97C448.32 121.48 448.32 121.96 448.32 122.47C448.32 123.01 448.32 123.4 448.32 123.88V128.59H450.27V121.81C450.27 121.54 450.27 121.21 450.27 120.82C450.27 120.49 450.27 120.07 450.36 119.77C450.42 119.44 450.6 119.11 450.84 118.9C451.02 118.66 451.32 118.48 451.71 118.39C452.19 118.39 452.52 118.48 452.76 118.81C453 119.02 453.24 119.35 453.33 119.77C453.42 120.16 453.51 120.58 453.57 121.06C453.57 121.48 453.66 121.96 453.66 122.47C453.57 122.86 453.57 123.25 453.57 123.55ZM484.18 137.14C484.3 137.17 484.42 137.14 484.54 137.14C485.2 137.2 485.8 137.35 486.34 137.83C486.61 138.1 486.76 138.46 486.76 138.88C486.76 139.3 486.61 139.9 486.37 140.17C485.74 140.8 484.27 140.74 484.21 140.74H467.41C467.23 140.74 467.02 140.77 466.81 140.77C465.97 140.8 464.89 140.86 464.23 140.29C463.84 139.93 463.6 139.48 463.6 139C463.6 138.4 463.99 137.65 464.59 137.41C465.4 137.11 466.27 137.17 467.14 137.14H467.29C469 137.11 470.86 137.11 472.66 137.14L472.63 133C471.1 133.03 469.84 133.03 469.12 132.97C468.28 132.94 467.17 132.91 466.48 132.4C465.58 131.71 465.55 129.52 465.55 129.43V122.98C465.55 122.2 465.43 121.36 465.58 120.58C465.79 119.65 466.93 119.41 467.83 119.35C468.52 119.32 469.54 119.5 469.69 120.31C469.75 120.67 469.63 122.95 469.78 123.28C469.87 123.49 470.29 123.52 470.5 123.55C471.43 123.61 471.73 123.52 472.66 123.52L479.53 123.55C479.95 123.58 480.28 123.58 480.4 123.16C480.43 122.74 480.43 120.97 480.46 120.64C480.49 119.92 480.7 119.5 481.45 119.35C482.23 119.17 483.34 119.23 483.79 119.68C484.42 120.34 484.39 121.12 484.39 122.68C484.33 124.51 484.48 128.92 484.3 130.75C484.21 131.92 483.55 132.67 482.41 132.85C481.81 132.94 481 132.91 480.4 132.91C479.11 132.94 477.88 132.94 476.68 132.94L476.74 137.14C478.78 137.14 480.19 137.08 482.14 137.14C482.86 137.17 483.55 137.08 484.18 137.14ZM469.78 129.13C469.93 129.73 470.8 129.73 471.46 129.76C471.76 129.73 477.85 129.67 478.21 129.73C478.54 129.76 478.87 129.73 479.2 129.76C479.62 129.79 480.34 129.94 480.34 129.28C480.34 128.98 480.4 127.75 480.25 127.18C480.13 126.7 479.86 126.73 479.47 126.76C479.29 126.76 478.72 126.79 478.54 126.76H471.7C470.95 126.73 469.84 126.58 469.75 127.51C469.75 127.72 469.75 128.98 469.78 129.13ZM505.616 138.67C505.616 139.66 505.586 140.08 505.286 141.01C505.076 141.61 504.626 142.06 503.756 142.06C503.516 142.06 503.036 142 502.826 141.85C502.016 141.34 501.986 139.48 501.986 138.88V130.87L500.036 130.78C499.346 130.75 498.386 130.42 498.296 129.22C498.236 128.5 498.296 127.54 499.196 127.12C499.556 126.94 500.186 126.91 500.576 126.94H501.986V121.48C501.986 120.97 501.956 120.4 502.076 119.89C502.136 119.71 502.196 119.53 502.286 119.35C502.526 118.96 502.766 118.75 503.216 118.6C503.396 118.54 503.666 118.51 503.846 118.51C504.506 118.51 505.016 118.84 505.346 119.41C505.646 119.92 505.616 121.36 505.616 121.51C505.646 136.09 505.616 138.67 505.616 138.67ZM510.386 141.22C510.266 141.49 510.086 141.7 509.816 141.88C509.396 142.15 509.006 142.21 508.496 142.09C507.296 141.82 507.176 140.5 507.176 139.48V121.81C507.146 120.91 507.176 119.41 507.716 118.87C508.166 118.48 508.526 118.42 509.066 118.42C509.756 118.42 510.176 118.84 510.416 119.47C510.776 120.31 510.746 121.21 510.776 122.11V122.26C510.866 125.29 510.776 128.05 510.776 130.87V138.37C510.776 139.42 510.776 140.38 510.386 141.22ZM494.786 135.46C494.726 135.52 493.196 137.62 493.136 137.68C492.836 138.1 492.536 138.55 492.206 138.94C492.146 139.03 492.056 139.15 491.996 139.24C491.456 139.9 490.886 140.65 490.076 140.95C489.896 141.04 489.746 141.07 489.536 141.07C489.146 141.07 488.906 140.86 488.606 140.53C488.306 140.2 488.126 139.75 488.126 139.27C488.156 138.55 488.546 137.89 488.846 137.35C489.116 137.14 492.236 131.56 492.656 131.05C492.896 130.6 493.046 130.21 493.076 129.79C493.136 129.16 493.136 128.56 493.136 127.84V122.53C493.136 122.14 493.136 121.78 493.166 121.39C493.166 120.97 493.256 120.49 493.346 120.13C493.436 119.89 493.586 119.59 493.706 119.35C493.886 119.05 494.276 118.9 494.666 118.81L494.726 118.78C495.026 118.69 495.206 118.72 495.506 118.84C495.656 118.9 495.806 118.99 495.926 119.11C496.076 119.26 496.196 119.56 496.316 119.89C496.466 120.28 496.586 120.79 496.616 121.36C496.766 123.04 496.796 125.35 496.796 127.03C496.826 128.05 496.826 129.1 496.886 130.09C496.916 130.96 497.396 131.71 497.786 132.46C498.176 133.33 498.626 134.29 499.076 135.13C499.196 135.4 500.126 137.14 500.216 137.35L500.276 137.59L500.366 137.77C500.486 137.98 500.576 138.19 500.636 138.46C500.756 138.88 500.846 139.42 500.576 139.99C500.306 140.59 499.886 140.95 499.376 140.98H499.346C498.716 140.98 498.266 140.41 497.726 139.75C497.186 139.12 496.616 138.16 496.226 137.59C495.326 136.06 494.816 135.52 494.786 135.46ZM533.428 137.17C533.548 137.2 533.668 137.17 533.788 137.17C534.448 137.23 535.048 137.38 535.588 137.89C535.858 138.13 536.008 138.49 536.008 138.91C536.008 139.33 535.858 139.93 535.618 140.2C535.018 140.83 533.518 140.77 533.458 140.77H516.988C516.808 140.77 516.268 140.8 516.088 140.8C515.218 140.83 514.168 140.89 513.478 140.32C513.088 139.96 512.848 139.51 512.848 139.03C512.848 138.43 513.238 137.68 513.838 137.44C514.648 137.14 515.518 137.2 516.388 137.17H516.538C517.138 137.17 518.068 137.14 518.698 137.14C518.668 136.9 518.668 136.72 518.668 136.72V133.93C518.668 133.93 518.668 133 519.388 132.4C517.918 132.04 516.568 131.32 515.608 129.94C514.708 128.71 514.468 127.27 514.468 125.77C514.468 122.68 516.268 120.52 519.118 119.59C521.008 118.96 523.048 118.81 525.028 118.96C526.648 119.08 528.358 119.17 529.858 119.86C530.548 120.19 531.178 120.61 531.748 121.21C533.158 122.71 533.608 124.51 533.458 126.49C533.218 129.61 531.448 131.41 529.078 132.25C529.498 132.49 529.828 132.88 529.858 133.45C529.888 134.08 529.918 135.55 529.918 137.17H531.118C531.838 137.2 532.798 137.11 533.428 137.17ZM529.528 126.94C529.588 126.7 529.618 126.46 529.588 126.19C529.528 124.12 528.148 123.16 526.258 122.92C524.008 122.65 519.088 122.08 518.608 125.29C518.338 127.21 519.118 128.89 521.968 129.16C523.378 129.31 524.848 129.52 526.258 129.25C527.638 128.98 529.168 128.41 529.528 126.94ZM525.478 132.79C524.428 132.79 523.288 132.82 522.118 132.76C522.238 132.97 522.328 133.18 522.358 133.45C522.388 134.08 522.418 135.55 522.418 137.17H525.598H526.198C526.168 136.9 526.168 136.72 526.168 136.72V133.93C526.168 133.93 526.168 133.3 526.558 132.76C526.198 132.79 525.838 132.79 525.478 132.79Z" fill="black"/>
<path d="M16.272 126.856C15.36 126.952 9.168 126.808 8.112 126.856H8.064C5.808 126.856 3.36 126.904 2.352 125.416C1.248 123.736 1.488 119.848 1.488 119.704C1.488 119.704 1.488 118.12 1.536 115.96C1.584 113.656 1.584 111.208 1.584 111.208C1.584 110.824 1.584 108.952 2.064 108.184C2.64 107.272 3.168 106.936 4.128 106.744C4.848 106.648 6.864 106.552 6.864 106.552H17.712C19.104 106.552 20.832 106.696 22.032 107.464C23.904 108.664 23.424 111.208 23.424 113.032C23.424 114.04 23.376 115.048 23.424 116.056V118.696C23.376 119.032 23.424 119.416 23.424 119.8C23.328 120.616 23.424 121.432 23.424 122.296C23.424 123.64 23.088 125.8 21.552 126.376C19.872 127.048 18 126.856 16.272 126.856ZM4.896 137.368C4.896 131.56 12.096 129.976 20.928 129.976C29.76 129.976 36.96 130.888 36.96 137.368C36.96 143.752 29.76 144.76 20.928 144.76C12.096 144.76 4.896 143.752 4.896 137.368ZM30.672 124.12H29.568C28.656 124.12 26.736 123.928 26.112 122.824C25.776 122.296 25.728 120.856 25.872 120.376C26.016 119.656 26.64 119.08 27.408 118.792C27.936 118.648 30.72 118.648 30.72 118.648C30.72 118.648 30.672 116.776 30.672 116.152H29.568C28.656 116.152 26.736 115.96 26.112 114.856C25.104 113.176 26.208 110.872 28.224 110.776C28.416 110.776 30.768 110.872 30.816 110.632C31.104 109.384 30.48 107.416 31.776 106.456C32.304 106.072 33.072 105.976 33.696 105.928C34.464 105.832 35.232 106.168 35.76 106.744C35.952 106.984 36.144 107.272 36.24 107.56C36.48 108.328 36.384 109.192 36.384 110.008V123.784C36.384 123.832 36.528 127.576 35.28 128.344C34.848 128.584 34.08 128.728 33.6 128.728C33.024 128.728 32.496 128.536 32.016 128.2C31.68 127.96 31.392 127.672 31.2 127.288C30.816 126.568 30.72 124.792 30.672 124.12ZM16.032 112.648L10.128 112.552C9.552 112.552 9.072 112.552 8.688 112.648C8.16 112.696 7.92 112.84 7.584 113.224C7.344 113.56 7.344 114.376 7.344 114.52V116.536C7.296 117.448 7.296 118.36 7.296 118.36C7.296 118.408 7.2 120.04 7.776 120.76C8.304 121.384 9.6 121.384 10.752 121.384H10.8C12.48 121.336 13.248 121.384 14.976 121.384C15.504 121.384 16.032 121.432 16.56 121.336C17.088 121.288 17.232 121 17.328 120.616C17.376 120.424 17.424 120.232 17.424 119.992C17.568 119.32 17.616 118.648 17.616 117.928C17.616 116.92 17.664 115.864 17.616 114.856C17.568 114.376 17.664 113.8 17.52 113.32C17.28 112.648 16.608 112.648 16.032 112.648ZM30.48 137.368C30.48 135.16 25.392 134.968 20.928 134.968C16.464 134.968 11.664 135.16 11.664 137.368C11.664 139.336 16.464 139.72 20.928 139.72C25.392 139.72 30.48 139.96 30.48 137.368ZM41.6055 137.032C41.6055 131.224 48.8055 129.544 57.6375 129.544C66.4695 129.544 73.6695 130.552 73.6695 137.032C73.6695 143.416 66.4695 144.52 57.6375 144.52C48.8055 144.52 41.6055 143.416 41.6055 137.032ZM56.5815 120.76C57.6855 120.76 58.8375 120.808 60.0855 121.336C61.3335 121.864 61.5255 123.256 61.4775 123.928C61.2375 126.424 58.2135 126.952 55.3815 126.952H47.1735C44.8695 127 42.3255 127 41.3175 125.464C40.2135 123.784 40.4535 119.992 40.4535 119.8L40.5495 111.16C40.5495 110.776 40.5495 108.904 41.0295 108.088C41.6055 107.176 42.1335 106.792 43.1415 106.648C43.8615 106.504 44.7735 106.456 45.9255 106.456C46.5495 106.456 54.2295 106.552 54.8535 106.648C56.5335 106.648 58.5495 106.6 59.5575 108.232C60.2775 109.336 60.2295 110.728 59.4615 111.784C58.7415 112.84 57.5895 112.936 56.5335 112.936L47.1255 112.888C47.2695 112.888 47.0775 114.52 47.0295 116.584C47.0295 118.936 47.1255 120.52 47.2215 120.616C48.9015 120.76 54.9015 120.808 56.5815 120.76ZM73.4295 120.664H72.3255V125.032C72.2775 125.704 72.1815 126.472 71.7975 127.192C71.6055 127.576 71.3175 127.912 70.9815 128.152C70.5015 128.488 69.7335 128.632 69.2055 128.632C68.7255 128.632 68.0535 128.536 67.6695 128.296C66.3735 127.528 66.1815 125.752 66.1815 125.704V109.384C66.1335 109.144 66.2295 107.656 66.6135 106.888C66.9015 106.264 67.8135 105.832 68.7255 105.736C69.8295 105.592 71.0295 105.88 71.5575 106.456C72.3255 107.464 72.3255 108.376 72.3255 110.104V115.336C72.8535 115.384 75.4455 115.432 76.0215 115.576C77.2695 115.816 77.7015 116.344 77.8455 117.016C78.0375 117.688 78.0855 118.792 77.7015 119.416C76.9335 120.664 75.3015 120.616 73.4295 120.664ZM67.1895 137.032C67.1895 134.824 62.1015 134.536 57.6375 134.536C53.1735 134.536 48.3735 134.824 48.3735 137.032C48.3735 139 53.1735 139.48 57.6375 139.48C62.1015 139.48 67.1895 139.624 67.1895 137.032Z" fill="#56C1E1"/>
</svg>
